<svg width="111" height="131" viewBox="0 0 111 131" fill="none" xmlns="http://www.w3.org/2000/svg">
<path d="M0.47 130.72H1.89C2.15 130.72 2.36 130.51 2.36 130.25C2.36 129.99 2.15 129.78 1.89 129.78H0.95V128.84C0.95 128.58 0.74 128.37 0.48 128.37C0.22 128.37 0 128.57 0 128.83V130.25C0 130.51 0.21 130.72 0.47 130.72Z" fill="#470F4C"/>
<path d="M4.2793 130.25C4.2793 129.99 4.4893 129.78 4.7493 129.78H7.6093C7.8693 129.78 8.0793 129.99 8.0793 130.25C8.0793 130.51 7.8693 130.72 7.6093 130.72H4.7493C4.4893 130.72 4.2793 130.51 4.2793 130.25ZM9.9993 130.25C9.9993 129.99 10.2093 129.78 10.4693 129.78H13.3293C13.5893 129.78 13.7993 129.99 13.7993 130.25C13.7993 130.51 13.5893 130.72 13.3293 130.72H10.4693C10.2093 130.72 9.9993 130.51 9.9993 130.25ZM15.7193 130.25C15.7193 129.99 15.9293 129.78 16.1893 129.78H19.0493C19.3093 129.78 19.5193 129.99 19.5193 130.25C19.5193 130.51 19.3093 130.72 19.0493 130.72H16.1893C15.9293 130.72 15.7193 130.51 15.7193 130.25ZM21.4393 130.25C21.4393 129.99 21.6493 129.78 21.9093 129.78H24.7693C25.0293 129.78 25.2393 129.99 25.2393 130.25C25.2393 130.51 25.0293 130.72 24.7693 130.72H21.9093C21.6493 130.72 21.4393 130.51 21.4393 130.25ZM27.1593 130.25C27.1593 129.99 27.3693 129.78 27.6293 129.78H30.4893C30.7493 129.78 30.9593 129.99 30.9593 130.25C30.9593 130.51 30.7493 130.72 30.4893 130.72H27.6293C27.3693 130.72 27.1593 130.51 27.1593 130.25ZM32.8793 130.25C32.8793 129.99 33.0893 129.78 33.3493 129.78H36.2093C36.4693 129.78 36.6793 129.99 36.6793 130.25C36.6793 130.51 36.4693 130.72 36.2093 130.72H33.3493C33.0893 130.72 32.8793 130.51 32.8793 130.25ZM38.5993 130.25C38.5993 129.99 38.8093 129.78 39.0693 129.78H41.9293C42.1893 129.78 42.3993 129.99 42.3993 130.25C42.3993 130.51 42.1893 130.72 41.9293 130.72H39.0693C38.8093 130.72 38.5993 130.51 38.5993 130.25ZM44.3193 130.25C44.3193 129.99 44.5293 129.78 44.7893 129.78H47.6493C47.9093 129.78 48.1193 129.99 48.1193 130.25C48.1193 130.51 47.9093 130.72 47.6493 130.72H44.7893C44.5293 130.72 44.3193 130.51 44.3193 130.25ZM50.0393 130.25C50.0393 129.99 50.2493 129.78 50.5093 129.78H53.3693C53.6293 129.78 53.8393 129.99 53.8393 130.25C53.8393 130.51 53.6293 130.72 53.3693 130.72H50.5093C50.2493 130.72 50.0393 130.51 50.0393 130.25ZM55.7593 130.25C55.7593 129.99 55.9693 129.78 56.2293 129.78H59.0893C59.3493 129.78 59.5593 129.99 59.5593 130.25C59.5593 130.51 59.3493 130.72 59.0893 130.72H56.2293C55.9693 130.72 55.7593 130.51 55.7593 130.25ZM61.4793 130.25C61.4793 129.99 61.6893 129.78 61.9493 129.78H64.8093C65.0693 129.78 65.2793 129.99 65.2793 130.25C65.2793 130.51 65.0693 130.72 64.8093 130.72H61.9493C61.6893 130.72 61.4793 130.51 61.4793 130.25ZM67.1993 130.25C67.1993 129.99 67.4093 129.78 67.6693 129.78H70.5293C70.7893 129.78 70.9993 129.99 70.9993 130.25C70.9993 130.51 70.7893 130.72 70.5293 130.72H67.6693C67.4093 130.72 67.1993 130.51 67.1993 130.25ZM72.9193 130.25C72.9193 129.99 73.1293 129.78 73.3893 129.78H76.2493C76.5093 129.78 76.7193 129.99 76.7193 130.25C76.7193 130.51 76.5093 130.72 76.2493 130.72H73.3893C73.1293 130.72 72.9193 130.51 72.9193 130.25ZM78.6393 130.25C78.6393 129.99 78.8493 129.78 79.1093 129.78H81.9693C82.2293 129.78 82.4393 129.99 82.4393 130.25C82.4393 130.51 82.2293 130.72 81.9693 130.72H79.1093C78.8493 130.72 78.6393 130.51 78.6393 130.25ZM84.3593 130.25C84.3593 129.99 84.5693 129.78 84.8293 129.78H87.6893C87.9493 129.78 88.1593 129.99 88.1593 130.25C88.1593 130.51 87.9493 130.72 87.6893 130.72H84.8293C84.5693 130.72 84.3593 130.51 84.3593 130.25ZM90.0793 130.25C90.0793 129.99 90.2893 129.78 90.5493 129.78H93.4093C93.6693 129.78 93.8793 129.99 93.8793 130.25C93.8793 130.51 93.6693 130.72 93.4093 130.72H90.5493C90.2893 130.72 90.0793 130.51 90.0793 130.25ZM95.7993 130.25C95.7993 129.99 96.0093 129.78 96.2693 129.78H99.1293C99.3893 129.78 99.5993 129.99 99.5993 130.25C99.5993 130.51 99.3893 130.72 99.1293 130.72H96.2693C96.0093 130.72 95.7993 130.51 95.7993 130.25ZM101.519 130.25C101.519 129.99 101.729 129.78 101.989 129.78H104.849C105.109 129.78 105.319 129.99 105.319 130.25C105.319 130.51 105.109 130.72 104.849 130.72H101.989C101.729 130.72 101.519 130.51 101.519 130.25Z" fill="#470F4C"/>
<path d="M107.72 130.72H109.14C109.4 130.72 109.61 130.51 109.61 130.25V128.83C109.61 128.57 109.4 128.36 109.14 128.36C108.88 128.36 108.67 128.57 108.67 128.83V129.77H107.72C107.46 129.77 107.25 129.98 107.25 130.24C107.25 130.5 107.46 130.71 107.72 130.71V130.72Z" fill="#470F4C"/>
<path d="M108.67 126.01V123.19C108.67 122.93 108.88 122.72 109.14 122.72C109.4 122.72 109.61 122.93 109.61 123.19V126.01C109.61 126.27 109.4 126.48 109.14 126.48C108.88 126.48 108.67 126.27 108.67 126.01ZM108.67 120.37V117.55C108.67 117.29 108.88 117.08 109.14 117.08C109.4 117.08 109.61 117.29 109.61 117.55V120.37C109.61 120.63 109.4 120.84 109.14 120.84C108.88 120.84 108.67 120.63 108.67 120.37ZM108.67 114.73V111.91C108.67 111.65 108.88 111.44 109.14 111.44C109.4 111.44 109.61 111.65 109.61 111.91V114.73C109.61 114.99 109.4 115.2 109.14 115.2C108.88 115.2 108.67 114.99 108.67 114.73ZM108.67 109.09V106.27C108.67 106.01 108.88 105.8 109.14 105.8C109.4 105.8 109.61 106.01 109.61 106.27V109.09C109.61 109.35 109.4 109.56 109.14 109.56C108.88 109.56 108.67 109.35 108.67 109.09ZM108.67 103.45V100.63C108.67 100.37 108.88 100.16 109.14 100.16C109.4 100.16 109.61 100.37 109.61 100.63V103.45C109.61 103.71 109.4 103.92 109.14 103.92C108.88 103.92 108.67 103.71 108.67 103.45ZM108.67 97.81V94.99C108.67 94.73 108.88 94.52 109.14 94.52C109.4 94.52 109.61 94.73 109.61 94.99V97.81C109.61 98.07 109.4 98.28 109.14 98.28C108.88 98.28 108.67 98.07 108.67 97.81ZM108.67 92.17V89.35C108.67 89.09 108.88 88.88 109.14 88.88C109.4 88.88 109.61 89.09 109.61 89.35V92.17C109.61 92.43 109.4 92.64 109.14 92.64C108.88 92.64 108.67 92.43 108.67 92.17ZM108.67 86.53V83.71C108.67 83.45 108.88 83.24 109.14 83.24C109.4 83.24 109.61 83.45 109.61 83.71V86.53C109.61 86.79 109.4 87 109.14 87C108.88 87 108.67 86.79 108.67 86.53ZM108.67 80.89V78.07C108.67 77.81 108.88 77.6 109.14 77.6C109.4 77.6 109.61 77.81 109.61 78.07V80.89C109.61 81.15 109.4 81.36 109.14 81.36C108.88 81.36 108.67 81.15 108.67 80.89ZM108.67 75.25V72.43C108.67 72.17 108.88 71.96 109.14 71.96C109.4 71.96 109.61 72.17 109.61 72.43V75.25C109.61 75.51 109.4 75.72 109.14 75.72C108.88 75.72 108.67 75.51 108.67 75.25ZM108.67 69.61V66.79C108.67 66.53 108.88 66.32 109.14 66.32C109.4 66.32 109.61 66.53 109.61 66.79V69.61C109.61 69.87 109.4 70.08 109.14 70.08C108.88 70.08 108.67 69.87 108.67 69.61ZM108.67 63.97V61.15C108.67 60.89 108.88 60.68 109.14 60.68C109.4 60.68 109.61 60.89 109.61 61.15V63.97C109.61 64.23 109.4 64.44 109.14 64.44C108.88 64.44 108.67 64.23 108.67 63.97ZM108.67 58.33V55.51C108.67 55.25 108.88 55.04 109.14 55.04C109.4 55.04 109.61 55.25 109.61 55.51V58.33C109.61 58.59 109.4 58.8 109.14 58.8C108.88 58.8 108.67 58.59 108.67 58.33ZM108.67 52.69V49.87C108.67 49.61 108.88 49.4 109.14 49.4C109.4 49.4 109.61 49.61 109.61 49.87V52.69C109.61 52.95 109.4 53.16 109.14 53.16C108.88 53.16 108.67 52.95 108.67 52.69ZM108.67 47.05V44.23C108.67 43.97 108.88 43.76 109.14 43.76C109.4 43.76 109.61 43.97 109.61 44.23V47.05C109.61 47.31 109.4 47.52 109.14 47.52C108.88 47.52 108.67 47.31 108.67 47.05ZM108.67 41.41V38.59C108.67 38.33 108.88 38.12 109.14 38.12C109.4 38.12 109.61 38.33 109.61 38.59V41.41C109.61 41.67 109.4 41.88 109.14 41.88C108.88 41.88 108.67 41.67 108.67 41.41ZM108.67 35.77V32.95C108.67 32.69 108.88 32.48 109.14 32.48C109.4 32.48 109.61 32.69 109.61 32.95V35.77C109.61 36.03 109.4 36.24 109.14 36.24C108.88 36.24 108.67 36.03 108.67 35.77ZM108.67 30.13V27.31C108.67 27.05 108.88 26.84 109.14 26.84C109.4 26.84 109.61 27.05 109.61 27.31V30.13C109.61 30.39 109.4 30.6 109.14 30.6C108.88 30.6 108.67 30.39 108.67 30.13ZM108.67 24.49V21.67C108.67 21.41 108.88 21.2 109.14 21.2C109.4 21.2 109.61 21.41 109.61 21.67V24.49C109.61 24.75 109.4 24.96 109.14 24.96C108.88 24.96 108.67 24.75 108.67 24.49ZM108.67 18.85V16.03C108.67 15.77 108.88 15.56 109.14 15.56C109.4 15.56 109.61 15.77 109.61 16.03V18.85C109.61 19.11 109.4 19.32 109.14 19.32C108.88 19.32 108.67 19.11 108.67 18.85ZM108.67 13.21V10.39C108.67 10.13 108.88 9.92003 109.14 9.92003C109.4 9.92003 109.61 10.13 109.61 10.39V13.21C109.61 13.47 109.4 13.68 109.14 13.68C108.88 13.68 108.67 13.47 108.67 13.21ZM108.67 7.57003V4.75003C108.67 4.49003 108.88 4.28003 109.14 4.28003C109.4 4.28003 109.61 4.49003 109.61 4.75003V7.57003C109.61 7.83003 109.4 8.04003 109.14 8.04003C108.88 8.04003 108.67 7.83003 108.67 7.57003Z" fill="#470F4C"/>
<path d="M109.14 2.36C109.4 2.36 109.61 2.15 109.61 1.89V0.47C109.61 0.21 109.4 0 109.14 0H107.72C107.46 0 107.25 0.21 107.25 0.47C107.25 0.73 107.46 0.94 107.72 0.94H108.66V1.88C108.66 2.14 108.87 2.35 109.13 2.35L109.14 2.36Z" fill="#470F4C"/>
<path d="M4.2793 0.47C4.2793 0.21 4.4893 0 4.7493 0H7.6093C7.8693 0 8.0793 0.21 8.0793 0.47C8.0793 0.73 7.8693 0.94 7.6093 0.94H4.7493C4.4893 0.94 4.2793 0.73 4.2793 0.47ZM9.9993 0.47C9.9993 0.21 10.2093 0 10.4693 0H13.3293C13.5893 0 13.7993 0.21 13.7993 0.47C13.7993 0.73 13.5893 0.94 13.3293 0.94H10.4693C10.2093 0.94 9.9993 0.73 9.9993 0.47ZM15.7193 0.47C15.7193 0.21 15.9293 0 16.1893 0H19.0493C19.3093 0 19.5193 0.21 19.5193 0.47C19.5193 0.73 19.3093 0.94 19.0493 0.94H16.1893C15.9293 0.94 15.7193 0.73 15.7193 0.47ZM21.4393 0.47C21.4393 0.21 21.6493 0 21.9093 0H24.7693C25.0293 0 25.2393 0.21 25.2393 0.47C25.2393 0.73 25.0293 0.94 24.7693 0.94H21.9093C21.6493 0.94 21.4393 0.73 21.4393 0.47ZM27.1593 0.47C27.1593 0.21 27.3693 0 27.6293 0H30.4893C30.7493 0 30.9593 0.21 30.9593 0.47C30.9593 0.73 30.7493 0.94 30.4893 0.94H27.6293C27.3693 0.94 27.1593 0.73 27.1593 0.47ZM32.8793 0.47C32.8793 0.21 33.0893 0 33.3493 0H36.2093C36.4693 0 36.6793 0.21 36.6793 0.47C36.6793 0.73 36.4693 0.94 36.2093 0.94H33.3493C33.0893 0.94 32.8793 0.73 32.8793 0.47ZM38.5993 0.47C38.5993 0.21 38.8093 0 39.0693 0H41.9293C42.1893 0 42.3993 0.21 42.3993 0.47C42.3993 0.73 42.1893 0.94 41.9293 0.94H39.0693C38.8093 0.94 38.5993 0.73 38.5993 0.47ZM44.3193 0.47C44.3193 0.21 44.5293 0 44.7893 0H47.6493C47.9093 0 48.1193 0.21 48.1193 0.47C48.1193 0.73 47.9093 0.94 47.6493 0.94H44.7893C44.5293 0.94 44.3193 0.73 44.3193 0.47ZM50.0393 0.47C50.0393 0.21 50.2493 0 50.5093 0H53.3693C53.6293 0 53.8393 0.21 53.8393 0.47C53.8393 0.73 53.6293 0.94 53.3693 0.94H50.5093C50.2493 0.94 50.0393 0.73 50.0393 0.47ZM55.7593 0.47C55.7593 0.21 55.9693 0 56.2293 0H59.0893C59.3493 0 59.5593 0.21 59.5593 0.47C59.5593 0.73 59.3493 0.94 59.0893 0.94H56.2293C55.9693 0.94 55.7593 0.73 55.7593 0.47ZM61.4793 0.47C61.4793 0.21 61.6893 0 61.9493 0H64.8093C65.0693 0 65.2793 0.21 65.2793 0.47C65.2793 0.73 65.0693 0.94 64.8093 0.94H61.9493C61.6893 0.94 61.4793 0.73 61.4793 0.47ZM67.1993 0.47C67.1993 0.21 67.4093 0 67.6693 0H70.5293C70.7893 0 70.9993 0.21 70.9993 0.47C70.9993 0.73 70.7893 0.94 70.5293 0.94H67.6693C67.4093 0.94 67.1993 0.73 67.1993 0.47ZM72.9193 0.47C72.9193 0.21 73.1293 0 73.3893 0H76.2493C76.5093 0 76.7193 0.21 76.7193 0.47C76.7193 0.73 76.5093 0.94 76.2493 0.94H73.3893C73.1293 0.94 72.9193 0.73 72.9193 0.47ZM78.6393 0.47C78.6393 0.21 78.8493 0 79.1093 0H81.9693C82.2293 0 82.4393 0.21 82.4393 0.47C82.4393 0.73 82.2293 0.94 81.9693 0.94H79.1093C78.8493 0.94 78.6393 0.73 78.6393 0.47ZM84.3593 0.47C84.3593 0.21 84.5693 0 84.8293 0H87.6893C87.9493 0 88.1593 0.21 88.1593 0.47C88.1593 0.73 87.9493 0.94 87.6893 0.94H84.8293C84.5693 0.94 84.3593 0.73 84.3593 0.47ZM90.0793 0.47C90.0793 0.21 90.2893 0 90.5493 0H93.4093C93.6693 0 93.8793 0.21 93.8793 0.47C93.8793 0.73 93.6693 0.94 93.4093 0.94H90.5493C90.2893 0.94 90.0793 0.73 90.0793 0.47ZM95.7993 0.47C95.7993 0.21 96.0093 0 96.2693 0H99.1293C99.3893 0 99.5993 0.21 99.5993 0.47C99.5993 0.73 99.3893 0.94 99.1293 0.94H96.2693C96.0093 0.94 95.7993 0.73 95.7993 0.47ZM101.519 0.47C101.519 0.21 101.729 0 101.989 0H104.849C105.109 0 105.319 0.21 105.319 0.47C105.319 0.73 105.109 0.94 104.849 0.94H101.989C101.729 0.94 101.519 0.73 101.519 0.47Z" fill="#470F4C"/>
<path d="M0.47 2.36011C0.73 2.36011 0.94 2.15011 0.94 1.89011V0.950109H1.88C2.14 0.950109 2.35 0.740109 2.35 0.480109C2.35 0.220109 2.14 0.0101086 1.88 0.0101086H0.47C0.21 0.000108557 0 0.210109 0 0.470109V1.89011C0 2.15011 0.21 2.36011 0.47 2.36011Z" fill="#470F4C"/>
<path d="M0 126.01V123.19C0 122.93 0.21 122.72 0.47 122.72C0.73 122.72 0.94 122.93 0.94 123.19V126.01C0.94 126.27 0.73 126.48 0.47 126.48C0.21 126.48 0 126.27 0 126.01ZM0 120.37V117.55C0 117.29 0.21 117.08 0.47 117.08C0.73 117.08 0.94 117.29 0.94 117.55V120.37C0.94 120.63 0.73 120.84 0.47 120.84C0.21 120.84 0 120.63 0 120.37ZM0 114.73V111.91C0 111.65 0.21 111.44 0.47 111.44C0.73 111.44 0.94 111.65 0.94 111.91V114.73C0.94 114.99 0.73 115.2 0.47 115.2C0.21 115.2 0 114.99 0 114.72V114.73ZM0 109.09V106.27C0 106.01 0.21 105.8 0.47 105.8C0.73 105.8 0.94 106.01 0.94 106.27V109.09C0.94 109.35 0.73 109.56 0.47 109.56C0.21 109.56 0 109.34 0 109.08V109.09ZM0 103.45V100.63C0 100.37 0.21 100.16 0.47 100.16C0.73 100.16 0.94 100.37 0.94 100.63V103.45C0.94 103.71 0.73 103.92 0.47 103.92C0.21 103.92 0 103.7 0 103.44V103.45ZM0 97.81V94.99C0 94.73 0.21 94.52 0.47 94.52C0.73 94.52 0.94 94.73 0.94 94.99V97.81C0.94 98.07 0.73 98.28 0.47 98.28C0.21 98.28 0 98.06 0 97.8V97.81ZM0 92.17V89.35C0 89.09 0.21 88.88 0.47 88.88C0.73 88.88 0.94 89.09 0.94 89.35V92.17C0.94 92.43 0.73 92.64 0.47 92.64C0.21 92.64 0 92.42 0 92.16V92.17ZM0 86.53V83.71C0 83.45 0.21 83.24 0.47 83.24C0.73 83.24 0.94 83.45 0.94 83.71V86.53C0.94 86.79 0.73 87 0.47 87C0.21 87 0 86.78 0 86.52V86.53ZM0 80.89V78.07C0 77.81 0.21 77.6 0.47 77.6C0.73 77.6 0.94 77.81 0.94 78.07V80.89C0.94 81.15 0.73 81.36 0.47 81.36C0.21 81.36 0 81.14 0 80.87V80.89ZM0 75.25V72.43C0 72.17 0.21 71.96 0.47 71.96C0.73 71.96 0.94 72.17 0.94 72.43V75.25C0.94 75.51 0.73 75.72 0.47 75.72C0.21 75.72 0 75.49 0 75.23V75.25ZM0 69.61V66.79C0 66.53 0.21 66.32 0.47 66.32C0.73 66.32 0.94 66.53 0.94 66.79V69.61C0.94 69.87 0.73 70.08 0.47 70.08C0.21 70.08 0 69.85 0 69.59V69.61ZM0 63.97V61.15C0 60.89 0.21 60.68 0.47 60.68C0.73 60.68 0.94 60.89 0.94 61.15V63.97C0.94 64.23 0.73 64.44 0.47 64.44C0.21 64.44 0 64.21 0 63.95V63.97ZM0 58.33V55.51C0 55.25 0.21 55.04 0.47 55.04C0.73 55.04 0.94 55.25 0.94 55.51V58.33C0.94 58.59 0.73 58.8 0.47 58.8C0.21 58.8 0 58.57 0 58.31V58.33ZM0 52.69V49.87C0 49.61 0.21 49.4 0.47 49.4C0.73 49.4 0.94 49.61 0.94 49.87V52.69C0.94 52.95 0.73 53.16 0.47 53.16C0.21 53.16 0 52.93 0 52.67V52.69ZM0 47.05V44.23C0 43.97 0.21 43.76 0.47 43.76C0.73 43.76 0.94 43.97 0.94 44.23V47.05C0.94 47.31 0.73 47.52 0.47 47.52C0.21 47.52 0 47.29 0 47.02V47.05ZM0 41.41V38.59C0 38.33 0.21 38.12 0.47 38.12C0.73 38.12 0.94 38.33 0.94 38.59V41.41C0.94 41.67 0.73 41.88 0.47 41.88C0.21 41.88 0 41.64 0 41.38V41.41ZM0 35.77V32.95C0 32.69 0.21 32.48 0.47 32.48C0.73 32.48 0.94 32.69 0.94 32.95V35.77C0.94 36.03 0.73 36.24 0.47 36.24C0.21 36.24 0 36 0 35.74V35.77ZM0 30.13V27.31C0 27.05 0.21 26.84 0.47 26.84C0.73 26.84 0.94 27.05 0.94 27.31V30.13C0.94 30.39 0.73 30.6 0.47 30.6C0.21 30.6 0 30.36 0 30.1V30.13ZM0 24.49V21.67C0 21.41 0.21 21.2 0.47 21.2C0.73 21.2 0.94 21.41 0.94 21.67V24.49C0.94 24.75 0.73 24.96 0.47 24.96C0.21 24.96 0 24.72 0 24.46V24.49ZM0 18.85V16.03C0 15.77 0.21 15.56 0.47 15.56C0.73 15.56 0.94 15.77 0.94 16.03V18.85C0.94 19.11 0.73 19.32 0.47 19.32C0.21 19.32 0 19.08 0 18.82V18.85ZM0 13.21V10.39C0 10.13 0.21 9.92003 0.47 9.92003C0.73 9.92003 0.94 10.13 0.94 10.39V13.21C0.94 13.47 0.73 13.68 0.47 13.68C0.21 13.68 0 13.44 0 13.17V13.21ZM0 7.57003V4.75003C0 4.49003 0.21 4.28003 0.47 4.28003C0.73 4.28003 0.94 4.49003 0.94 4.75003V7.57003C0.94 7.83003 0.73 8.04003 0.47 8.04003C0.21 8.04003 0 7.79003 0 7.53003V7.57003Z" fill="#470F4C"/>
<path opacity="0.1" d="M91.1312 98.9004H90.7213C88.7313 105.54 86.7513 109.02 86.6613 109.17C86.6113 109.26 86.5412 109.32 86.4512 109.36C83.1813 110.85 78.9912 111.56 74.0212 111.49L73.8213 111.68C73.8213 112.24 73.7013 113.64 72.4013 115.15C70.3713 117.51 65.2812 112.45 52.5312 112.45C45.7812 112.45 40.4613 118.34 36.7213 114.43C31.3313 108.81 30.9112 101.03 30.9012 98.9304C28.1312 99.1404 25.5012 99.6604 23.1012 100.47L18.9513 102.27C5.58125 109.56 2.08125 126.54 1.53125 129.77H109.161C108.931 126.03 106.861 101.99 91.1312 98.9004Z" fill="#470F4C"/>
<path d="M0.630672 130.56C0.540672 130.46 0.500672 130.32 0.520672 130.19C0.550672 129.99 3.35067 109.7 18.5307 101.44C18.5407 101.44 18.5607 101.43 18.5707 101.42L22.7807 99.6002C25.4407 98.7002 28.3307 98.1502 31.3707 97.9602C31.5007 97.9502 31.6307 98.0002 31.7307 98.0902C31.8307 98.1802 31.8807 98.3102 31.8707 98.4502C31.8707 98.5402 31.5507 107.66 37.4207 113.79C40.9707 117.5 46.0607 111.51 52.5407 111.51C64.8707 111.51 69.7407 116.77 71.6507 114.58C73.0407 112.99 72.8807 111.63 72.8707 111.57C72.8507 111.42 72.9007 111.27 73.0107 111.16L73.5007 110.68C73.5907 110.59 73.7307 110.54 73.8407 110.54C77.1807 110.61 81.9707 110.32 85.9207 108.57C86.3007 107.87 88.1407 104.33 89.9207 98.2902C89.9807 98.0902 90.1607 97.9502 90.3707 97.9502H91.2307C109.031 101.46 110.131 129.94 110.131 130.23C110.131 130.36 110.091 130.48 110.001 130.57C109.911 130.66 109.791 130.71 109.661 130.71H0.980672C0.840672 130.71 0.710672 130.65 0.630672 130.55V130.56ZM91.1307 98.9002H90.7207C88.7307 105.54 86.7507 109.02 86.6607 109.17C86.6107 109.26 86.5407 109.32 86.4507 109.36C83.1807 110.85 78.9907 111.56 74.0207 111.49L73.8207 111.68C73.8207 112.24 73.7007 113.64 72.4007 115.15C70.3707 117.51 65.2807 112.45 52.5307 112.45C45.7807 112.45 40.4607 118.34 36.7207 114.43C31.3307 108.81 30.9107 101.03 30.9007 98.9302C28.1307 99.1402 25.5007 99.6602 23.1007 100.47L18.9507 102.27C5.58067 109.56 2.08067 126.54 1.53067 129.77H109.161C108.931 126.03 106.861 101.99 91.1307 98.9002Z" fill="#470F4C"/>
<path d="M63.252 60.4703C63.252 61.3803 63.992 62.1203 64.902 62.1203C65.812 62.1203 66.552 61.3803 66.552 60.4703C66.552 59.5603 65.812 58.8203 64.902 58.8203C63.992 58.8203 63.252 59.5603 63.252 60.4703Z" fill="#470F4C"/>
<path d="M62.7812 60.4703C62.7812 59.3003 63.7313 58.3403 64.9113 58.3403C66.0913 58.3403 67.0413 59.2903 67.0413 60.4703C67.0413 61.6503 66.0913 62.6003 64.9113 62.6003C63.7313 62.6003 62.7812 61.6503 62.7812 60.4703ZM63.7213 60.4703C63.7213 61.1203 64.2513 61.6503 64.9013 61.6503C65.5513 61.6503 66.0813 61.1203 66.0813 60.4703C66.0813 59.8203 65.5513 59.2903 64.9013 59.2903C64.2513 59.2903 63.7213 59.8203 63.7213 60.4703Z" fill="#470F4C"/>
<path d="M51.6605 87.6104C75.1905 87.6104 75.3405 74.4504 75.4105 68.1104C75.4105 67.6104 75.4205 67.1504 75.4405 66.7504C75.6705 61.4404 75.5005 51.5604 75.5005 51.4604C75.5005 51.2004 75.2905 50.9904 75.0205 51.0004C74.7605 51.0004 74.5505 51.2204 74.5505 51.4804L74.5805 54.5004C74.5805 54.5004 74.5805 54.5604 74.5805 54.5904C74.6105 57.9504 74.6305 63.3004 74.4805 66.7204C74.4605 67.1304 74.4605 67.6004 74.4505 68.1104C74.3805 74.1504 74.2405 86.6804 51.6405 86.6804C51.5005 86.6804 51.3605 86.6804 51.2205 86.6804C44.3005 86.6304 39.0305 84.7504 35.5805 81.0904C29.8505 75.0204 30.3405 65.4204 30.5805 60.8104C30.6305 59.8304 30.6705 59.0604 30.6405 58.5404C30.4105 54.4104 30.4505 47.9504 30.4505 47.8804C30.4505 47.6204 30.2405 47.4104 29.9805 47.4004C29.7205 47.4004 29.5105 47.6104 29.5105 47.8704C29.5105 47.9304 29.4705 54.4204 29.7005 58.5804C29.7305 59.0404 29.6905 59.8004 29.6405 60.7504C29.4005 65.4904 28.8905 75.3704 34.9005 81.7304C38.5405 85.5904 44.0305 87.5604 51.2205 87.6104C51.3605 87.6104 51.5105 87.6104 51.6505 87.6104H51.6605Z" fill="#470F4C"/>
<path d="M75.0299 53.2301C75.2899 53.2301 75.4999 53.0201 75.4999 52.7501C75.4599 47.4501 69.3799 46.8101 62.9399 46.1301C61.2999 45.9601 59.6099 45.7801 57.9599 45.5201C50.2199 44.3101 42.9199 33.5501 42.8499 33.4401C42.7299 33.2601 42.4999 33.1901 42.2999 33.2601C42.0999 33.3301 41.9699 33.5301 41.9899 33.7501C42.3199 37.3501 43.9299 41.8301 45.4299 43.3301C45.7999 43.7001 46.0099 43.9501 46.1399 44.1301C42.3599 44.3101 37.1099 40.7601 37.0599 40.7201C36.9299 40.6301 36.7599 40.6101 36.6099 40.6701C36.4599 40.7301 36.3499 40.8701 36.3299 41.0301C35.9099 43.4401 34.9099 45.2201 33.3499 46.3001C30.9599 47.9601 28.0399 47.4301 28.0099 47.4201C27.7499 47.3701 27.5099 47.5401 27.4599 47.8001C27.4099 48.0601 27.5799 48.3001 27.8399 48.3501C27.9699 48.3801 31.1699 48.9601 33.8899 47.0801C35.5099 45.9601 36.5899 44.2201 37.1199 41.8901C38.7399 42.9101 43.2899 45.5201 46.7799 45.0101C46.9899 44.9601 47.1699 44.8301 47.2399 44.5801C47.3599 44.1401 47.0299 43.5901 46.0999 42.6601C44.9899 41.5501 43.7799 38.4601 43.2099 35.5301C45.6099 38.6601 51.4599 45.4501 57.8199 46.4501C59.4799 46.7101 61.1899 46.8901 62.8399 47.0701C69.1099 47.7301 74.5199 48.3001 74.5499 52.7601C74.5499 53.0201 74.7599 53.2301 75.0199 53.2301H75.0299Z" fill="#470F4C"/>
<path d="M29.9804 98.9C29.9804 98.9 30.0304 98.9 30.0604 98.9L35.4104 97.96C35.6404 97.92 35.8004 97.72 35.8004 97.49V81.49C35.8004 81.23 35.5904 81.02 35.3304 81.02C35.0704 81.02 34.8604 81.23 34.8604 81.49V97.09L29.9004 97.97C29.6404 98.02 29.4704 98.26 29.5204 98.52C29.5604 98.75 29.7604 98.91 29.9804 98.91V98.9Z" fill="#470F4C"/>
<path d="M59.4701 98.2501C55.1901 98.6901 50.8301 98.3401 46.6801 97.2101C42.2101 95.9901 37.7001 93.8701 33.1501 94.7501C32.6201 94.8501 32.0701 95.0101 31.6901 95.3901C31.2601 95.8101 31.1001 96.4401 31.0401 97.0301C30.6901 100.32 32.5001 104.01 30.6701 106.77C30.1401 107.56 29.3601 108.17 28.8701 108.98C27.6301 111.01 28.6401 113.86 30.5901 115.22C32.5401 116.58 35.1101 116.72 37.4501 116.31C39.7901 115.89 42.0101 114.99 44.3201 114.41C47.3301 113.66 50.4901 113.5 53.5601 113.93C59.3401 114.74 65.0801 117.61 70.7601 116.24C72.9901 115.7 75.3001 114.12 75.4001 111.83C75.5001 109.61 73.4801 107.42 74.3401 105.37C74.6001 104.75 75.0901 104.26 75.5001 103.73C77.4301 101.17 77.1401 97.2001 74.8601 94.9501C69.3301 89.4901 65.0001 97.6801 59.4801 98.2501H59.4701Z" fill="white"/>
<g opacity="0.4">
<path d="M59.4701 98.2501C55.1901 98.6901 50.8301 98.3401 46.6801 97.2101C42.2101 95.9901 37.7001 93.8701 33.1501 94.7501C32.6201 94.8501 32.0701 95.0101 31.6901 95.3901C31.2601 95.8101 31.1001 96.4401 31.0401 97.0301C30.6901 100.32 32.5001 104.01 30.6701 106.77C30.1401 107.56 29.3601 108.17 28.8701 108.98C27.6301 111.01 28.6401 113.86 30.5901 115.22C32.5401 116.58 35.1101 116.72 37.4501 116.31C39.7901 115.89 42.0101 114.99 44.3201 114.41C47.3301 113.66 50.4901 113.5 53.5601 113.93C59.3401 114.74 65.0801 117.61 70.7601 116.24C72.9901 115.7 75.3001 114.12 75.4001 111.83C75.5001 109.61 73.4801 107.42 74.3401 105.37C74.6001 104.75 75.0901 104.26 75.5001 103.73C77.4301 101.17 77.1401 97.2001 74.8601 94.9501C69.3301 89.4901 65.0001 97.6801 59.4801 98.2501H59.4701Z" fill="#470F4C"/>
</g>
<path d="M67.551 117.11C64.721 117.11 61.881 116.38 59.121 115.67C57.271 115.19 55.351 114.7 53.481 114.43C50.491 114.01 47.361 114.17 44.431 114.9C43.511 115.13 42.571 115.42 41.671 115.7C40.331 116.12 38.941 116.55 37.521 116.8C35.491 117.16 32.591 117.25 30.281 115.63C28.231 114.19 26.991 111.07 28.421 108.72C28.711 108.25 29.071 107.85 29.421 107.47C29.721 107.14 30.001 106.84 30.231 106.5C31.271 104.93 31.011 102.98 30.731 100.91C30.561 99.62 30.381 98.28 30.521 96.99C30.611 96.11 30.881 95.48 31.321 95.04C31.811 94.56 32.461 94.38 33.041 94.27C36.681 93.57 40.271 94.71 43.741 95.81C44.751 96.13 45.781 96.46 46.801 96.74C50.921 97.86 55.161 98.21 59.411 97.77C61.311 97.57 63.141 96.36 64.911 95.19C68.101 93.07 71.411 90.88 75.191 94.61C77.661 97.04 77.961 101.28 75.881 104.04C75.771 104.19 75.641 104.34 75.521 104.49C75.221 104.85 74.941 105.19 74.781 105.57C74.361 106.56 74.771 107.66 75.201 108.83C75.561 109.8 75.931 110.81 75.881 111.87C75.761 114.42 73.271 116.16 70.861 116.74C69.761 117.01 68.661 117.12 67.551 117.12V117.11ZM50.191 113.2C51.341 113.2 52.481 113.28 53.611 113.44C55.541 113.71 57.491 114.21 59.371 114.7C63.261 115.71 66.941 116.66 70.621 115.76C72.671 115.26 74.791 113.85 74.881 111.82C74.921 110.96 74.601 110.1 74.261 109.18C73.781 107.88 73.291 106.54 73.861 105.19C74.081 104.67 74.421 104.26 74.751 103.86C74.861 103.72 74.981 103.58 75.081 103.44C76.851 101.1 76.571 97.38 74.491 95.32C71.281 92.16 68.591 93.95 65.461 96.02C63.591 97.26 61.661 98.54 59.511 98.76C55.141 99.21 50.771 98.86 46.541 97.7C45.511 97.42 44.461 97.08 43.441 96.76C40.081 95.69 36.611 94.59 33.231 95.25C32.801 95.33 32.321 95.46 32.021 95.75C31.751 96.02 31.581 96.45 31.521 97.09C31.391 98.27 31.561 99.54 31.731 100.77C32.021 102.93 32.321 105.17 31.071 107.05C30.801 107.46 30.481 107.81 30.161 108.15C29.831 108.51 29.511 108.86 29.281 109.24C28.161 111.08 29.211 113.66 30.861 114.81C32.891 116.23 35.511 116.14 37.351 115.81C38.711 115.57 40.061 115.15 41.371 114.74C42.291 114.45 43.231 114.16 44.181 113.92C46.131 113.44 48.161 113.19 50.191 113.19V113.2Z" fill="#470F4C"/>
<path d="M53.3508 98.32C53.5108 95.38 49.9708 93.43 47.0708 92.93C44.4908 92.49 41.6008 92.32 39.5008 93.88C37.1608 95.61 36.6108 98.84 36.5008 101.74C36.1408 111.25 38.4908 121.19 36.3008 130.25C39.0308 130.25 52.0408 130.25 55.1108 130.25C55.2308 125.41 53.8808 120.6 51.2608 116.43C49.1108 113.01 47.9308 109.67 47.5308 105.71C47.1608 101.94 49.6008 97.9 53.3608 98.33L53.3508 98.32Z" fill="white"/>
<g opacity="0.4">
<path d="M53.3508 98.32C53.5108 95.38 49.9708 93.43 47.0708 92.93C44.4908 92.49 41.6008 92.32 39.5008 93.88C37.1608 95.61 36.6108 98.84 36.5008 101.74C36.1408 111.25 38.4908 121.19 36.3008 130.25C39.0308 130.25 52.0408 130.25 55.1108 130.25C55.2308 125.41 53.8808 120.6 51.2608 116.43C49.1108 113.01 47.9308 109.67 47.5308 105.71C47.1608 101.94 49.6008 97.9 53.3608 98.33L53.3508 98.32Z" fill="#470F4C"/>
</g>
<path d="M55.5806 130.75H35.6406L35.7906 130.13C37.1406 124.54 36.7306 118.46 36.3306 112.57C36.0906 109 35.8406 105.31 35.9806 101.72C36.0806 99.1201 36.5206 95.4501 39.1906 93.4801C41.5206 91.7601 44.6606 92.0201 47.1406 92.4401C49.9306 92.9201 54.0306 94.8801 53.8406 98.3501L53.8106 98.8801L53.2806 98.8201C51.6706 98.6401 50.5306 99.3901 49.8606 100.04C48.5206 101.36 47.7906 103.56 48.0006 105.65C48.3806 109.5 49.5106 112.74 51.6506 116.15C54.3406 120.44 55.7006 125.31 55.5806 130.25V130.74V130.75ZM36.9006 129.75H54.5906C54.6106 125.18 53.3106 120.67 50.8106 116.69C48.5806 113.14 47.4106 109.77 47.0106 105.76C46.7706 103.35 47.6006 100.89 49.1606 99.3401C50.1906 98.3201 51.4306 97.8001 52.7806 97.8001H52.8206C52.5506 95.5601 49.7106 93.9001 46.9706 93.4301C44.6906 93.0401 41.8106 92.7901 39.7806 94.2901C38.0106 95.5901 37.1206 97.9701 36.9806 101.77C36.8506 105.3 37.0906 108.97 37.3306 112.51C37.7206 118.26 38.1206 124.19 36.9006 129.75Z" fill="#470F4C"/>
<path d="M33.5616 110.01C33.4116 110.01 33.2616 109.94 33.1716 109.82C31.7616 108.02 30.9616 105.77 30.9316 103.49C30.9316 103.21 31.1516 102.99 31.4216 102.98C31.7216 102.95 31.9216 103.2 31.9316 103.47C31.9616 105.54 32.6816 107.57 33.9616 109.2C34.1316 109.42 34.0916 109.73 33.8816 109.9C33.7916 109.97 33.6816 110.01 33.5716 110.01H33.5616Z" fill="#470F4C"/>
<path d="M69.3502 108.63C69.1202 108.63 68.9202 108.47 68.8602 108.25C68.8002 107.98 68.9602 107.71 69.2302 107.65C71.6402 107.08 73.8302 105.47 75.0902 103.35C75.2302 103.11 75.5402 103.03 75.7802 103.18C76.0202 103.32 76.1002 103.63 75.9602 103.86C74.5602 106.22 72.1402 108 69.4702 108.63C69.4302 108.63 69.3902 108.64 69.3502 108.64V108.63Z" fill="#470F4C"/>
<path d="M20.261 85.9601C19.701 80.3801 18.941 72.7401 19.151 60.7001C19.361 48.7601 21.711 37.5501 25.761 29.1301C29.041 22.3201 33.251 17.8701 36.491 17.7901C42.441 17.6501 43.691 22.8701 43.731 23.0901C43.771 23.2801 43.921 23.4201 44.111 23.4501C44.301 23.4801 44.491 23.4001 44.591 23.2401C44.641 23.1701 49.671 15.7901 63.361 17.1501C76.021 18.4201 91.511 31.0201 93.491 62.3601C95.261 90.3801 86.781 106.94 85.911 108.56H85.891C85.431 108.76 84.961 108.94 84.481 109.11C84.331 109.16 84.171 109.21 84.011 109.26C83.671 109.37 83.341 109.47 83.001 109.56C82.811 109.61 82.621 109.65 82.431 109.7C82.121 109.77 81.811 109.84 81.511 109.91C81.291 109.95 81.071 109.99 80.851 110.03C80.581 110.08 80.311 110.12 80.041 110.16C79.781 110.2 79.521 110.23 79.261 110.27C79.061 110.29 78.861 110.32 78.661 110.34C78.341 110.37 78.011 110.41 77.691 110.43C77.601 110.43 77.521 110.44 77.441 110.45C72.871 110.76 68.801 110.19 67.631 110L67.361 107.97C67.331 107.78 67.201 107.62 67.011 107.57C66.821 107.52 66.631 107.59 66.511 107.75L64.921 109.93C62.211 109.98 59.841 109.32 58.591 108.88C64.661 105.38 68.671 95.6901 71.011 87.9801C71.211 87.3201 71.391 86.6801 71.571 86.0601C72.611 82.3601 73.181 79.4601 73.331 78.7001C75.361 74.9801 75.401 70.8801 75.441 68.1001C75.441 67.6001 75.451 67.1401 75.471 66.7401C75.701 61.4301 75.531 51.5501 75.531 51.4501C75.531 51.2701 75.421 51.1201 75.271 51.0401C74.041 47.2901 68.651 46.7201 62.981 46.1201C61.341 45.9501 59.641 45.7701 58.001 45.5101C50.261 44.3001 42.961 33.5401 42.891 33.4301C42.771 33.2501 42.541 33.1801 42.341 33.2501C42.141 33.3201 42.011 33.5201 42.031 33.7401C42.361 37.3401 43.971 41.8201 45.471 43.3201C45.841 43.6901 46.051 43.9401 46.181 44.1201C42.401 44.3001 37.151 40.7501 37.101 40.7101C36.971 40.6201 36.801 40.6001 36.651 40.6601C36.501 40.7201 36.391 40.8601 36.371 41.0101C35.951 43.4301 34.951 45.2001 33.391 46.2801C32.331 47.0101 31.171 47.3201 30.201 47.4301C30.151 47.4101 30.091 47.3901 30.031 47.3901C29.941 47.3901 29.861 47.4201 29.791 47.4601C28.781 47.5301 28.071 47.4001 28.051 47.4001C27.791 47.3501 27.551 47.5201 27.501 47.7801C27.451 48.0401 27.621 48.2801 27.881 48.3301C27.941 48.3401 28.601 48.4601 29.561 48.4301C29.561 50.0901 29.561 55.1301 29.751 58.5801C29.781 59.0401 29.741 59.8001 29.691 60.7501C29.451 65.4801 28.951 75.3101 34.901 81.6701V94.4101L31.871 95.1901L31.051 97.7601L29.941 97.9601C29.831 97.9801 29.751 98.0401 29.681 98.1101C27.271 98.3701 24.971 98.8601 22.821 99.5901L19.591 100.99C21.341 96.2501 20.961 92.4601 20.311 85.9501L20.261 85.9601Z" fill="#470F4C"/>
<path d="M74.7098 111.51C78.3598 111.51 82.7298 111.05 86.4398 109.37C86.5298 109.33 86.5998 109.26 86.6498 109.18C86.7498 109.01 96.3098 92.0102 94.4298 62.3202C92.4098 30.3902 76.4798 17.5302 63.4498 16.2302C51.6098 15.0402 46.0398 20.0702 44.3598 22.0102C43.6798 20.3002 41.6298 16.7502 36.4598 16.8602C29.3198 17.0302 18.6698 34.2002 18.1998 60.6902C17.9898 72.7902 18.7498 80.4602 19.3098 86.0602C19.9898 92.9002 20.3698 96.6602 18.2398 101.7C18.1398 101.94 18.2498 102.22 18.4898 102.32C18.7298 102.42 19.0098 102.31 19.1098 102.07C21.3398 96.8102 20.9498 92.9602 20.2498 85.9602C19.6898 80.3802 18.9298 72.7402 19.1398 60.7002C19.3498 48.7602 21.6998 37.5502 25.7498 29.1302C29.0298 22.3202 33.2398 17.8702 36.4798 17.7902C42.4298 17.6502 43.6798 22.8702 43.7198 23.0902C43.7598 23.2802 43.9098 23.4202 44.0998 23.4502C44.2898 23.4802 44.4798 23.4002 44.5798 23.2502C44.6298 23.1802 49.6598 15.8002 63.3498 17.1602C76.0098 18.4302 91.4998 31.0302 93.4798 62.3702C95.2498 90.3902 86.7698 106.95 85.8998 108.57C79.0198 111.62 69.4998 110.31 67.5998 110L67.3298 107.97C67.2998 107.78 67.1698 107.62 66.9798 107.57C66.7898 107.52 66.5998 107.59 66.4798 107.75L64.8898 109.93C62.1798 109.98 59.8098 109.32 58.5598 108.88C64.6298 105.38 68.6398 95.6902 70.9798 87.9902C71.1798 87.3302 71.3598 86.6902 71.5398 86.0802C72.7498 81.7702 73.3298 78.5502 73.3298 78.5202C73.3798 78.2602 73.1998 78.0202 72.9498 77.9702C72.6898 77.9302 72.4498 78.1002 72.3998 78.3502C72.3998 78.3802 71.8198 81.5602 70.6298 85.8202C70.4598 86.4302 70.2798 87.0602 70.0798 87.7202C67.6898 95.6302 63.5098 105.67 57.2298 108.52C57.0598 108.6 56.9498 108.76 56.9498 108.95C56.9498 109.14 57.0598 109.3 57.2198 109.38C57.3698 109.45 60.8398 111.04 65.1598 110.89C65.2998 110.89 65.4398 110.81 65.5198 110.7L66.5498 109.29L66.7098 110.5C66.7398 110.7 66.8898 110.86 67.0898 110.9C67.3398 110.95 70.5498 111.54 74.6998 111.54L74.7098 111.51Z" fill="#470F4C"/>
<path d="M70.0307 55.77C70.1907 55.77 70.3407 55.69 70.4307 55.55C70.5707 55.33 70.5007 55.04 70.2807 54.9C70.0907 54.78 65.5207 51.96 59.7707 52.29C59.5107 52.3 59.3107 52.53 59.3207 52.79C59.3307 53.05 59.5707 53.26 59.8207 53.23C65.2807 52.93 69.7407 55.67 69.7807 55.7C69.8607 55.75 69.9407 55.77 70.0307 55.77Z" fill="#470F4C"/>
<path d="M41.2121 60.4703C41.2121 61.3803 40.4721 62.1203 39.5621 62.1203C38.6521 62.1203 37.9121 61.3803 37.9121 60.4703C37.9121 59.5603 38.6521 58.8203 39.5621 58.8203C40.4721 58.8203 41.2121 59.5603 41.2121 60.4703Z" fill="#470F4C"/>
<path d="M37.4316 60.4703C37.4316 59.3003 38.3816 58.3403 39.5616 58.3403C40.7416 58.3403 41.6916 59.2903 41.6916 60.4703C41.6916 61.6503 40.7416 62.6003 39.5616 62.6003C38.3816 62.6003 37.4316 61.6503 37.4316 60.4703ZM38.3716 60.4703C38.3716 61.1203 38.9016 61.6503 39.5516 61.6503C40.2016 61.6503 40.7316 61.1203 40.7316 60.4703C40.7316 59.8203 40.2016 59.2903 39.5516 59.2903C38.9016 59.2903 38.3716 59.8203 38.3716 60.4703Z" fill="#470F4C"/>
<path d="M34.4314 55.77C34.5214 55.77 34.6014 55.75 34.6814 55.7C34.7214 55.67 39.1914 52.93 44.6414 53.23C44.9014 53.25 45.1214 53.04 45.1414 52.79C45.1514 52.53 44.9614 52.31 44.6914 52.29C38.9414 51.96 34.3714 54.78 34.1814 54.9C33.9614 55.04 33.8914 55.33 34.0314 55.55C34.1214 55.69 34.2714 55.77 34.4314 55.77Z" fill="#470F4C"/>
<path d="M53.1009 71.1303C53.9209 71.1303 54.6809 71.0303 55.1409 70.7203C55.4209 70.5303 55.6009 70.2703 55.6609 69.9703C55.9509 68.4103 55.6809 60.3703 55.6609 60.0303C55.6609 59.7703 55.4209 59.5703 55.1709 59.5703C54.9109 59.5703 54.7009 59.8003 54.7109 60.0603C54.8109 62.9103 54.9409 68.6203 54.7109 69.7903C54.7109 69.8103 54.7009 69.8603 54.6009 69.9303C53.8409 70.4403 51.1009 70.0803 49.5609 69.7403C49.3009 69.6803 49.0509 69.8403 49.0009 70.1003C48.9409 70.3503 49.1009 70.6103 49.3609 70.6603C49.6609 70.7303 51.4909 71.1103 53.0909 71.1103L53.1009 71.1303Z" fill="#470F4C"/>
<path d="M53.0803 78.1204C60.0503 78.1204 61.7103 75.1604 61.7803 75.0304C61.9003 74.8004 61.8203 74.5104 61.5903 74.3904C61.3603 74.2704 61.0803 74.3504 60.9503 74.5804C60.9203 74.6304 59.3003 77.3104 52.5503 77.1704C52.2703 77.2004 52.0703 77.3704 52.0703 77.6304C52.0703 77.8904 52.2703 78.1104 52.5303 78.1104C52.7203 78.1104 52.9003 78.1104 53.0903 78.1104L53.0803 78.1204Z" fill="#470F4C"/>
<path d="M51.232 87.1402C64.492 87.2302 70.302 83.1302 72.872 78.4302C72.872 78.4502 72.452 80.7502 71.592 84.0902C67.562 87.1802 55.752 93.9202 35.332 87.1402V81.4702C38.482 84.7702 43.442 87.0802 51.232 87.1302V87.1402Z" fill="#470F4C"/>
<path d="M35.1813 87.59C34.9913 87.53 34.8613 87.35 34.8613 87.14V81.47C34.8613 81.28 34.9813 81.1 35.1613 81.03C35.3413 80.96 35.5413 81 35.6813 81.14C39.1413 84.76 44.3713 86.61 51.2413 86.66V87.13V86.66C62.1813 86.75 69.3613 83.89 72.4613 78.19C72.5713 77.99 72.8113 77.89 73.0313 77.97C73.2513 78.05 73.3813 78.27 73.3413 78.49C73.3413 78.51 72.9213 80.84 72.0513 84.19C72.0213 84.29 71.9613 84.38 71.8813 84.45C69.0113 86.66 62.4813 90.52 52.0113 90.52C47.2313 90.52 41.6313 89.71 35.1813 87.57V87.59ZM71.9213 80.7C68.1613 85.36 61.2013 87.67 51.2313 87.62C44.6113 87.58 39.4313 85.89 35.8113 82.6V86.8C55.5413 93.24 67.0213 86.96 71.1813 83.81C71.4913 82.61 71.7413 81.55 71.9313 80.69L71.9213 80.7Z" fill="#470F4C"/>
<path d="M29.6117 64.6603C28.2617 64.7503 26.3717 64.6403 26.0217 64.0903C25.9417 63.9603 25.9717 63.7703 26.1217 63.5003C26.3717 63.0503 26.7017 62.7903 27.1117 62.7103C28.0417 62.5303 29.2517 63.2903 29.6617 63.6203C29.6617 63.7303 29.6517 63.8403 29.6417 63.9603C29.6317 64.1803 29.6217 64.4103 29.6117 64.6503V64.6603Z" fill="white"/>
<path d="M24.2005 64.8102C23.6505 64.1602 23.4405 63.4003 23.5705 62.4903C23.7005 61.4903 24.1205 60.7602 24.8505 60.2802C26.3505 59.2802 28.7105 59.6303 29.6405 59.8203C29.6605 60.5103 29.6905 61.1803 29.7205 61.8003C29.7305 61.9903 29.7205 62.2402 29.7205 62.5102C29.0805 62.1102 27.9905 61.5902 26.9505 61.7802C26.2605 61.9102 25.7005 62.3302 25.3105 63.0302C24.8905 63.7702 25.0405 64.2902 25.2405 64.6002C25.8005 65.4602 27.4805 65.6302 28.7205 65.6302C29.0505 65.6302 29.3405 65.6202 29.5805 65.6002C29.5605 66.0102 29.5505 66.4403 29.5405 66.8903C28.4205 66.7903 25.5205 66.3702 24.2005 64.8102Z" fill="white"/>
<path d="M29.9809 67.8801C30.2309 67.8801 30.4409 67.6801 30.4509 67.4201C30.4509 67.1601 30.2509 66.9401 29.9909 66.9301C29.9509 66.9301 25.8409 66.7701 24.1909 64.8101C23.6409 64.1601 23.4309 63.4001 23.5609 62.4901C23.6909 61.4901 24.1109 60.7601 24.8409 60.2801C26.7309 59.0301 29.9909 59.9001 30.0209 59.9101C30.2709 59.9801 30.5309 59.8301 30.6009 59.5801C30.6709 59.3301 30.5209 59.0701 30.2709 59.0001C30.1209 58.9601 26.5509 58.0101 24.3109 59.5001C23.3609 60.1301 22.7909 61.1001 22.6209 62.3701C22.4609 63.5501 22.7509 64.5801 23.4709 65.4301C25.3909 67.7001 29.7709 67.8701 29.9609 67.8801H29.9809Z" fill="#470F4C"/>
<path d="M28.7114 65.6403C29.3114 65.6403 29.8114 65.6003 30.0314 65.5803C30.2914 65.5603 30.4814 65.3203 30.4614 65.0703C30.4414 64.8103 30.2114 64.6303 29.9514 64.6403C28.6014 64.7703 26.4214 64.6903 26.0414 64.1003C25.9614 63.9703 25.9914 63.7803 26.1414 63.5103C26.3914 63.0603 26.7214 62.8003 27.1314 62.7203C28.0714 62.5403 29.3114 63.3203 29.7014 63.6403C29.9014 63.8003 30.2014 63.7703 30.3614 63.5703C30.5214 63.3703 30.4914 63.0703 30.2914 62.9103C30.2214 62.8503 28.5214 61.5003 26.9514 61.8003C26.2614 61.9303 25.7014 62.3503 25.3114 63.0503C24.8914 63.7903 25.0414 64.3103 25.2414 64.6203C25.8014 65.4803 27.4814 65.6503 28.7214 65.6503L28.7114 65.6403Z" fill="#470F4C"/>
<path d="M25.7304 67.0199C25.9504 66.4599 26.1604 65.9999 26.2604 65.8099C26.3804 65.5799 26.6604 65.4799 26.8904 65.5999C27.1204 65.7199 27.2104 65.9999 27.1004 66.2299C26.4904 67.4499 25.7904 69.5099 26.2004 70.0799C26.2904 70.1999 26.4904 70.2399 26.7904 70.1999C27.3004 70.1199 27.6604 69.9099 27.8804 69.5599C28.3904 68.7499 28.1004 67.0499 27.9404 66.5699C27.8604 66.3199 28.0004 66.0599 28.2504 65.9799C28.5004 65.8999 28.7604 66.0399 28.8404 66.2799C28.8704 66.3699 29.5204 68.6999 28.6804 70.0599C28.3104 70.6599 27.7204 71.0199 26.9304 71.1399C26.0904 71.2599 25.6604 70.9399 25.4404 70.6399C24.8404 69.8099 25.2804 68.1799 25.7304 67.0199Z" fill="white"/>
<path d="M38.1505 70.3597C35.8705 70.3597 33.6905 69.7997 32.4205 68.5197C29.9205 66.0197 30.0405 60.0197 30.0505 59.7697C30.0505 59.5997 30.2005 59.4697 30.3605 59.4697C30.5305 59.4697 30.6605 59.6097 30.6605 59.7797C30.6605 59.8397 30.5405 65.7697 32.8605 68.0897C35.1405 70.3697 40.9305 70.1397 44.0705 68.3497C46.6105 66.8997 48.3505 63.1897 48.3605 63.1497C48.4305 62.9997 48.6105 62.9297 48.7605 62.9997C48.9105 63.0697 48.9805 63.2497 48.9105 63.3997C48.8405 63.5597 47.0805 67.3197 44.3705 68.8697C42.7205 69.8197 40.3905 70.3597 38.1605 70.3597H38.1505Z" fill="#470F4C"/>
<path d="M76.58 56.4699L76.1399 54.8399C76.0999 54.6899 75.98 54.5699 75.83 54.5399C74.88 54.3399 71.4599 53.6099 69.3799 53.2199C66.9399 52.7599 61.1499 52.7599 58.2599 53.9799C55.6999 55.0599 53.15 55.0599 52.59 55.0499C52.59 55.0499 52.57 55.0499 52.5299 55.0499C52.4899 55.0499 52.47 55.0499 52.47 55.0499C51.91 55.0699 49.3499 55.0499 46.7999 53.9799C43.9099 52.7599 38.12 52.7599 35.68 53.2199C33.63 53.5999 30.28 54.3099 29.27 54.5299C29.09 54.5699 28.95 54.7099 28.9 54.8799L28.49 56.4C28.43 56.64 28.55 56.8899 28.78 56.9799C29.98 57.4699 30.01 59.1699 29.95 60.0199C29.93 60.2599 30.1 60.4899 30.34 60.5199C30.59 60.5499 30.81 60.3799 30.85 60.1299C30.94 59.4599 31.2 58.0499 31.87 56.7099C32.78 54.8799 36.4399 53.9699 41.0099 53.9699C45.5799 53.9699 48.32 56.2599 48.93 58.3899C49.4 60.0299 48.43 62.3899 47.95 63.3899C47.75 63.8099 48.1199 64.3 48.57 64.19C48.59 64.19 48.5999 64.1899 48.6199 64.1799C49.0799 64.0299 50.45 60.37 50.91 59.15C51.3699 57.9299 52.0999 58.0299 52.5999 58.0299C53.0799 58.0299 53.6899 57.9299 54.1399 59.15C54.5999 60.37 55.97 64.0299 56.43 64.1799C56.45 64.1799 56.4599 64.19 56.4799 64.19C56.93 64.3 57.2999 63.8099 57.0999 63.3899C56.6299 62.3899 55.65 60.0299 56.1199 58.3899C56.7299 56.2599 59.47 53.9699 64.04 53.9699C68.61 53.9699 72.27 54.8799 73.18 56.7099C73.8499 58.0399 74.1099 59.4599 74.1999 60.1299C74.2299 60.3499 74.42 60.5199 74.65 60.5199C74.91 60.5199 75.1199 60.2899 75.0999 60.0299C75.0299 59.1699 75.0499 57.4199 76.3099 56.9499C76.5099 56.8799 76.63 56.6599 76.57 56.4499L76.58 56.4699Z" fill="#470F4C"/>
<path d="M66.9101 70.3597C64.6801 70.3597 62.3501 69.8197 60.7001 68.8697C57.9801 67.3197 56.2301 63.5597 56.1601 63.3997C56.0901 63.2497 56.1601 63.0697 56.3101 62.9997C56.4601 62.9297 56.6401 62.9997 56.7101 63.1497C56.7301 63.1897 58.4601 66.8897 61.0001 68.3497C64.1401 70.1397 69.9301 70.3797 72.2101 68.0897C74.5301 65.7697 74.4101 59.8397 74.4101 59.7797C74.4101 59.6097 74.5401 59.4697 74.7101 59.4697C74.8701 59.4697 75.0101 59.5997 75.0101 59.7697C75.0101 60.0197 75.1401 66.0197 72.6401 68.5197C71.3601 69.7997 69.1801 70.3597 66.9101 70.3597Z" fill="#470F4C"/>
</svg>
