<svg width="111" height="131" viewBox="0 0 111 131" fill="none" xmlns="http://www.w3.org/2000/svg">
<path d="M109.14 130.72H107.72C107.46 130.72 107.25 130.51 107.25 130.25C107.25 129.99 107.46 129.78 107.72 129.78H108.66V128.84C108.66 128.58 108.87 128.37 109.13 128.37C109.39 128.37 109.6 128.58 109.6 128.84V130.26C109.6 130.52 109.39 130.73 109.13 130.73L109.14 130.72Z" fill="#470F4C"/>
<path d="M104.859 130.72H101.999C101.739 130.72 101.529 130.51 101.529 130.25C101.529 129.99 101.739 129.78 101.999 129.78H104.859C105.119 129.78 105.329 129.99 105.329 130.25C105.329 130.51 105.119 130.72 104.859 130.72ZM99.1391 130.72H96.2791C96.0191 130.72 95.8091 130.51 95.8091 130.25C95.8091 129.99 96.0191 129.78 96.2791 129.78H99.1391C99.3991 129.78 99.6091 129.99 99.6091 130.25C99.6091 130.51 99.3991 130.72 99.1391 130.72ZM93.4191 130.72H90.5591C90.2991 130.72 90.0891 130.51 90.0891 130.25C90.0891 129.99 90.2991 129.78 90.5591 129.78H93.4191C93.6791 129.78 93.8891 129.99 93.8891 130.25C93.8891 130.51 93.6791 130.72 93.4191 130.72ZM87.6991 130.72H84.8391C84.5791 130.72 84.3691 130.51 84.3691 130.25C84.3691 129.99 84.5791 129.78 84.8391 129.78H87.6991C87.9591 129.78 88.1691 129.99 88.1691 130.25C88.1691 130.51 87.9591 130.72 87.6991 130.72ZM81.9791 130.72H79.1191C78.8591 130.72 78.6491 130.51 78.6491 130.25C78.6491 129.99 78.8591 129.78 79.1191 129.78H81.9791C82.2391 129.78 82.4491 129.99 82.4491 130.25C82.4491 130.51 82.2391 130.72 81.9791 130.72ZM76.2591 130.72H73.3991C73.1391 130.72 72.9291 130.51 72.9291 130.25C72.9291 129.99 73.1391 129.78 73.3991 129.78H76.2591C76.5191 129.78 76.7291 129.99 76.7291 130.25C76.7291 130.51 76.5191 130.72 76.2591 130.72ZM70.5391 130.72H67.6791C67.4191 130.72 67.2091 130.51 67.2091 130.25C67.2091 129.99 67.4191 129.78 67.6791 129.78H70.5391C70.7991 129.78 71.0091 129.99 71.0091 130.25C71.0091 130.51 70.7991 130.72 70.5391 130.72ZM64.8191 130.72H61.9591C61.6991 130.72 61.4891 130.51 61.4891 130.25C61.4891 129.99 61.6991 129.78 61.9591 129.78H64.8191C65.0791 129.78 65.2891 129.99 65.2891 130.25C65.2891 130.51 65.0791 130.72 64.8191 130.72ZM59.0991 130.72H56.2391C55.9791 130.72 55.7691 130.51 55.7691 130.25C55.7691 129.99 55.9791 129.78 56.2391 129.78H59.0991C59.3591 129.78 59.5691 129.99 59.5691 130.25C59.5691 130.51 59.3591 130.72 59.0991 130.72ZM53.3791 130.72H50.5191C50.2591 130.72 50.0491 130.51 50.0491 130.25C50.0491 129.99 50.2591 129.78 50.5191 129.78H53.3791C53.6391 129.78 53.8491 129.99 53.8491 130.25C53.8491 130.51 53.6391 130.72 53.3791 130.72ZM47.6591 130.72H44.7991C44.5391 130.72 44.3291 130.51 44.3291 130.25C44.3291 129.99 44.5391 129.78 44.7991 129.78H47.6591C47.9191 129.78 48.1291 129.99 48.1291 130.25C48.1291 130.51 47.9191 130.72 47.6591 130.72ZM41.9391 130.72H39.0791C38.8191 130.72 38.6091 130.51 38.6091 130.25C38.6091 129.99 38.8191 129.78 39.0791 129.78H41.9391C42.1991 129.78 42.4091 129.99 42.4091 130.25C42.4091 130.51 42.1991 130.72 41.9391 130.72ZM36.2191 130.72H33.3591C33.0991 130.72 32.8891 130.51 32.8891 130.25C32.8891 129.99 33.0991 129.78 33.3591 129.78H36.2191C36.4791 129.78 36.6891 129.99 36.6891 130.25C36.6891 130.51 36.4791 130.72 36.2191 130.72ZM30.4991 130.72H27.6391C27.3791 130.72 27.1691 130.51 27.1691 130.25C27.1691 129.99 27.3791 129.78 27.6391 129.78H30.4991C30.7591 129.78 30.9691 129.99 30.9691 130.25C30.9691 130.51 30.7591 130.72 30.4991 130.72ZM24.7791 130.72H21.9191C21.6591 130.72 21.4491 130.51 21.4491 130.25C21.4491 129.99 21.6591 129.78 21.9191 129.78H24.7791C25.0391 129.78 25.2491 129.99 25.2491 130.25C25.2491 130.51 25.0391 130.72 24.7791 130.72ZM19.0591 130.72H16.1991C15.9391 130.72 15.7291 130.51 15.7291 130.25C15.7291 129.99 15.9391 129.78 16.1991 129.78H19.0591C19.3191 129.78 19.5291 129.99 19.5291 130.25C19.5291 130.51 19.3191 130.72 19.0591 130.72ZM13.3391 130.72H10.4791C10.2191 130.72 10.0091 130.51 10.0091 130.25C10.0091 129.99 10.2191 129.78 10.4791 129.78H13.3391C13.5991 129.78 13.8091 129.99 13.8091 130.25C13.8091 130.51 13.5991 130.72 13.3391 130.72ZM7.61906 130.72H4.75906C4.49906 130.72 4.28906 130.51 4.28906 130.25C4.28906 129.99 4.49906 129.78 4.75906 129.78H7.61906C7.87906 129.78 8.08906 129.99 8.08906 130.25C8.08906 130.51 7.87906 130.72 7.61906 130.72Z" fill="#470F4C"/>
<path d="M1.89 130.72H0.470001C0.210001 130.72 0 130.51 0 130.25V128.83C0 128.57 0.210001 128.36 0.470001 128.36C0.730001 128.36 0.940002 128.57 0.940002 128.83V129.77H1.88C2.14 129.77 2.35 129.98 2.35 130.24C2.35 130.5 2.14 130.71 1.88 130.71L1.89 130.72Z" fill="#470F4C"/>
<path d="M0.470001 126.48C0.210001 126.48 0 126.27 0 126.01V123.19C0 122.93 0.210001 122.72 0.470001 122.72C0.730001 122.72 0.940002 122.93 0.940002 123.19V126.01C0.940002 126.27 0.730001 126.48 0.470001 126.48ZM0.470001 120.84C0.210001 120.84 0 120.63 0 120.37V117.55C0 117.29 0.210001 117.08 0.470001 117.08C0.730001 117.08 0.940002 117.29 0.940002 117.55V120.37C0.940002 120.63 0.730001 120.84 0.470001 120.84ZM0.470001 115.2C0.210001 115.2 0 114.99 0 114.73V111.91C0 111.65 0.210001 111.44 0.470001 111.44C0.730001 111.44 0.940002 111.65 0.940002 111.91V114.73C0.940002 114.99 0.730001 115.2 0.470001 115.2ZM0.470001 109.56C0.210001 109.56 0 109.35 0 109.09V106.27C0 106.01 0.210001 105.8 0.470001 105.8C0.730001 105.8 0.940002 106.01 0.940002 106.27V109.09C0.940002 109.35 0.730001 109.56 0.470001 109.56ZM0.470001 103.92C0.210001 103.92 0 103.71 0 103.45V100.63C0 100.37 0.210001 100.16 0.470001 100.16C0.730001 100.16 0.940002 100.37 0.940002 100.63V103.45C0.940002 103.71 0.730001 103.92 0.470001 103.92ZM0.470001 98.28C0.210001 98.28 0 98.07 0 97.81V94.99C0 94.73 0.210001 94.52 0.470001 94.52C0.730001 94.52 0.940002 94.73 0.940002 94.99V97.81C0.940002 98.07 0.730001 98.28 0.470001 98.28ZM0.470001 92.64C0.210001 92.64 0 92.43 0 92.17V89.35C0 89.09 0.210001 88.88 0.470001 88.88C0.730001 88.88 0.940002 89.09 0.940002 89.35V92.17C0.940002 92.43 0.730001 92.64 0.470001 92.64ZM0.470001 87C0.210001 87 0 86.79 0 86.53V83.71C0 83.45 0.210001 83.24 0.470001 83.24C0.730001 83.24 0.940002 83.45 0.940002 83.71V86.53C0.940002 86.79 0.730001 87 0.470001 87ZM0.470001 81.36C0.210001 81.36 0 81.15 0 80.89V78.07C0 77.81 0.210001 77.6 0.470001 77.6C0.730001 77.6 0.940002 77.81 0.940002 78.07V80.89C0.940002 81.15 0.730001 81.36 0.470001 81.36ZM0.470001 75.72C0.210001 75.72 0 75.51 0 75.25V72.43C0 72.17 0.210001 71.96 0.470001 71.96C0.730001 71.96 0.940002 72.17 0.940002 72.43V75.25C0.940002 75.51 0.730001 75.72 0.470001 75.72ZM0.470001 70.08C0.210001 70.08 0 69.87 0 69.61V66.79C0 66.53 0.210001 66.32 0.470001 66.32C0.730001 66.32 0.940002 66.53 0.940002 66.79V69.61C0.940002 69.87 0.730001 70.08 0.470001 70.08ZM0.470001 64.44C0.210001 64.44 0 64.23 0 63.97V61.15C0 60.89 0.210001 60.68 0.470001 60.68C0.730001 60.68 0.940002 60.89 0.940002 61.15V63.97C0.940002 64.23 0.730001 64.44 0.470001 64.44ZM0.470001 58.8C0.210001 58.8 0 58.59 0 58.33V55.51C0 55.25 0.210001 55.04 0.470001 55.04C0.730001 55.04 0.940002 55.25 0.940002 55.51V58.33C0.940002 58.59 0.730001 58.8 0.470001 58.8ZM0.470001 53.16C0.210001 53.16 0 52.95 0 52.69V49.87C0 49.61 0.210001 49.4 0.470001 49.4C0.730001 49.4 0.940002 49.61 0.940002 49.87V52.69C0.940002 52.95 0.730001 53.16 0.470001 53.16ZM0.470001 47.52C0.210001 47.52 0 47.31 0 47.05V44.23C0 43.97 0.210001 43.76 0.470001 43.76C0.730001 43.76 0.940002 43.97 0.940002 44.23V47.05C0.940002 47.31 0.730001 47.52 0.470001 47.52ZM0.470001 41.88C0.210001 41.88 0 41.67 0 41.41V38.59C0 38.33 0.210001 38.12 0.470001 38.12C0.730001 38.12 0.940002 38.33 0.940002 38.59V41.41C0.940002 41.67 0.730001 41.88 0.470001 41.88ZM0.470001 36.24C0.210001 36.24 0 36.03 0 35.77V32.95C0 32.69 0.210001 32.48 0.470001 32.48C0.730001 32.48 0.940002 32.69 0.940002 32.95V35.77C0.940002 36.03 0.730001 36.24 0.470001 36.24ZM0.470001 30.6C0.210001 30.6 0 30.39 0 30.13V27.31C0 27.05 0.210001 26.84 0.470001 26.84C0.730001 26.84 0.940002 27.05 0.940002 27.31V30.13C0.940002 30.39 0.730001 30.6 0.470001 30.6ZM0.470001 24.96C0.210001 24.96 0 24.75 0 24.49V21.67C0 21.41 0.210001 21.2 0.470001 21.2C0.730001 21.2 0.940002 21.41 0.940002 21.67V24.49C0.940002 24.75 0.730001 24.96 0.470001 24.96ZM0.470001 19.32C0.210001 19.32 0 19.11 0 18.85V16.03C0 15.77 0.210001 15.56 0.470001 15.56C0.730001 15.56 0.940002 15.77 0.940002 16.03V18.85C0.940002 19.11 0.730001 19.32 0.470001 19.32ZM0.470001 13.68C0.210001 13.68 0 13.47 0 13.21V10.39C0 10.13 0.210001 9.92003 0.470001 9.92003C0.730001 9.92003 0.940002 10.13 0.940002 10.39V13.21C0.940002 13.47 0.730001 13.68 0.470001 13.68ZM0.470001 8.04003C0.210001 8.04003 0 7.83003 0 7.57003V4.75003C0 4.49003 0.210001 4.28003 0.470001 4.28003C0.730001 4.28003 0.940002 4.49003 0.940002 4.75003V7.57003C0.940002 7.83003 0.730001 8.04003 0.470001 8.04003Z" fill="#470F4C"/>
<path d="M0.470001 2.36C0.210001 2.36 0 2.15 0 1.89V0.47C0 0.21 0.210001 0 0.470001 0H1.89C2.15 0 2.36 0.21 2.36 0.47C2.36 0.73 2.15 0.94 1.89 0.94H0.949997V1.88C0.949997 2.14 0.740003 2.35 0.480003 2.35L0.470001 2.36Z" fill="#470F4C"/>
<path d="M104.859 0.94H101.999C101.739 0.94 101.529 0.73 101.529 0.47C101.529 0.21 101.739 0 101.999 0H104.859C105.119 0 105.329 0.21 105.329 0.47C105.329 0.73 105.119 0.94 104.859 0.94ZM99.1391 0.94H96.2791C96.0191 0.94 95.8091 0.73 95.8091 0.47C95.8091 0.21 96.0191 0 96.2791 0H99.1391C99.3991 0 99.6091 0.21 99.6091 0.47C99.6091 0.73 99.3991 0.94 99.1391 0.94ZM93.4191 0.94H90.5591C90.2991 0.94 90.0891 0.73 90.0891 0.47C90.0891 0.21 90.2991 0 90.5591 0H93.4191C93.6791 0 93.8891 0.21 93.8891 0.47C93.8891 0.73 93.6791 0.94 93.4191 0.94ZM87.6991 0.94H84.8391C84.5791 0.94 84.3691 0.73 84.3691 0.47C84.3691 0.21 84.5791 0 84.8391 0H87.6991C87.9591 0 88.1691 0.21 88.1691 0.47C88.1691 0.73 87.9591 0.94 87.6991 0.94ZM81.9791 0.94H79.1191C78.8591 0.94 78.6491 0.73 78.6491 0.47C78.6491 0.21 78.8591 0 79.1191 0H81.9791C82.2391 0 82.4491 0.21 82.4491 0.47C82.4491 0.73 82.2391 0.94 81.9791 0.94ZM76.2591 0.94H73.3991C73.1391 0.94 72.9291 0.73 72.9291 0.47C72.9291 0.21 73.1391 0 73.3991 0H76.2591C76.5191 0 76.7291 0.21 76.7291 0.47C76.7291 0.73 76.5191 0.94 76.2591 0.94ZM70.5391 0.94H67.6791C67.4191 0.94 67.2091 0.73 67.2091 0.47C67.2091 0.21 67.4191 0 67.6791 0H70.5391C70.7991 0 71.0091 0.21 71.0091 0.47C71.0091 0.73 70.7991 0.94 70.5391 0.94ZM64.8191 0.94H61.9591C61.6991 0.94 61.4891 0.73 61.4891 0.47C61.4891 0.21 61.6991 0 61.9591 0H64.8191C65.0791 0 65.2891 0.21 65.2891 0.47C65.2891 0.73 65.0791 0.94 64.8191 0.94ZM59.0991 0.94H56.2391C55.9791 0.94 55.7691 0.73 55.7691 0.47C55.7691 0.21 55.9791 0 56.2391 0H59.0991C59.3591 0 59.5691 0.21 59.5691 0.47C59.5691 0.73 59.3591 0.94 59.0991 0.94ZM53.3791 0.94H50.5191C50.2591 0.94 50.0491 0.73 50.0491 0.47C50.0491 0.21 50.2591 0 50.5191 0H53.3791C53.6391 0 53.8491 0.21 53.8491 0.47C53.8491 0.73 53.6391 0.94 53.3791 0.94ZM47.6591 0.94H44.7991C44.5391 0.94 44.3291 0.73 44.3291 0.47C44.3291 0.21 44.5391 0 44.7991 0H47.6591C47.9191 0 48.1291 0.21 48.1291 0.47C48.1291 0.73 47.9191 0.94 47.6591 0.94ZM41.9391 0.94H39.0791C38.8191 0.94 38.6091 0.73 38.6091 0.47C38.6091 0.21 38.8191 0 39.0791 0H41.9391C42.1991 0 42.4091 0.21 42.4091 0.47C42.4091 0.73 42.1991 0.94 41.9391 0.94ZM36.2191 0.94H33.3591C33.0991 0.94 32.8891 0.73 32.8891 0.47C32.8891 0.21 33.0991 0 33.3591 0H36.2191C36.4791 0 36.6891 0.21 36.6891 0.47C36.6891 0.73 36.4791 0.94 36.2191 0.94ZM30.4991 0.94H27.6391C27.3791 0.94 27.1691 0.73 27.1691 0.47C27.1691 0.21 27.3791 0 27.6391 0H30.4991C30.7591 0 30.9691 0.21 30.9691 0.47C30.9691 0.73 30.7591 0.94 30.4991 0.94ZM24.7791 0.94H21.9191C21.6591 0.94 21.4491 0.73 21.4491 0.47C21.4491 0.21 21.6591 0 21.9191 0H24.7791C25.0391 0 25.2491 0.21 25.2491 0.47C25.2491 0.73 25.0391 0.94 24.7791 0.94ZM19.0591 0.94H16.1991C15.9391 0.94 15.7291 0.73 15.7291 0.47C15.7291 0.21 15.9391 0 16.1991 0H19.0591C19.3191 0 19.5291 0.21 19.5291 0.47C19.5291 0.73 19.3191 0.94 19.0591 0.94ZM13.3391 0.94H10.4791C10.2191 0.94 10.0091 0.73 10.0091 0.47C10.0091 0.21 10.2191 0 10.4791 0H13.3391C13.5991 0 13.8091 0.21 13.8091 0.47C13.8091 0.73 13.5991 0.94 13.3391 0.94ZM7.61906 0.94H4.75906C4.49906 0.94 4.28906 0.73 4.28906 0.47C4.28906 0.21 4.49906 0 4.75906 0H7.61906C7.87906 0 8.08906 0.21 8.08906 0.47C8.08906 0.73 7.87906 0.94 7.61906 0.94Z" fill="#470F4C"/>
<path d="M109.14 2.36C108.88 2.36 108.67 2.15 108.67 1.89V0.94H107.73C107.47 0.94 107.26 0.73 107.26 0.47C107.26 0.21 107.47 0 107.73 0H109.15C109.41 0 109.62 0.21 109.62 0.47V1.89C109.62 2.15 109.41 2.36 109.15 2.36H109.14Z" fill="#470F4C"/>
<path d="M109.14 126.48C108.88 126.48 108.67 126.27 108.67 126.01V123.19C108.67 122.93 108.88 122.72 109.14 122.72C109.4 122.72 109.61 122.93 109.61 123.19V126.01C109.61 126.27 109.4 126.48 109.14 126.48ZM109.14 120.84C108.88 120.84 108.67 120.63 108.67 120.37V117.55C108.67 117.29 108.88 117.08 109.14 117.08C109.4 117.08 109.61 117.29 109.61 117.55V120.37C109.61 120.63 109.4 120.84 109.14 120.84ZM109.14 115.2C108.88 115.2 108.67 114.99 108.67 114.73V111.91C108.67 111.65 108.88 111.44 109.14 111.44C109.4 111.44 109.61 111.65 109.61 111.91V114.73C109.61 114.99 109.4 115.2 109.14 115.2ZM109.14 109.56C108.88 109.56 108.67 109.35 108.67 109.09V106.27C108.67 106.01 108.88 105.8 109.14 105.8C109.4 105.8 109.61 106.01 109.61 106.27V109.09C109.61 109.35 109.4 109.56 109.14 109.56ZM109.14 103.92C108.88 103.92 108.67 103.71 108.67 103.45V100.63C108.67 100.37 108.88 100.16 109.14 100.16C109.4 100.16 109.61 100.37 109.61 100.63V103.45C109.61 103.71 109.4 103.92 109.14 103.92ZM109.14 98.28C108.88 98.28 108.67 98.07 108.67 97.81V94.99C108.67 94.73 108.88 94.52 109.14 94.52C109.4 94.52 109.61 94.73 109.61 94.99V97.81C109.61 98.07 109.4 98.28 109.14 98.28ZM109.14 92.64C108.88 92.64 108.67 92.43 108.67 92.17V89.35C108.67 89.09 108.88 88.88 109.14 88.88C109.4 88.88 109.61 89.09 109.61 89.35V92.17C109.61 92.43 109.4 92.64 109.14 92.64ZM109.14 87C108.88 87 108.67 86.79 108.67 86.53V83.71C108.67 83.45 108.88 83.24 109.14 83.24C109.4 83.24 109.61 83.45 109.61 83.71V86.53C109.61 86.79 109.4 87 109.14 87ZM109.14 81.36C108.88 81.36 108.67 81.15 108.67 80.89V78.07C108.67 77.81 108.88 77.6 109.14 77.6C109.4 77.6 109.61 77.81 109.61 78.07V80.89C109.61 81.15 109.4 81.36 109.14 81.36ZM109.14 75.72C108.88 75.72 108.67 75.51 108.67 75.25V72.43C108.67 72.17 108.88 71.96 109.14 71.96C109.4 71.96 109.61 72.17 109.61 72.43V75.25C109.61 75.51 109.4 75.72 109.14 75.72ZM109.14 70.08C108.88 70.08 108.67 69.87 108.67 69.61V66.79C108.67 66.53 108.88 66.32 109.14 66.32C109.4 66.32 109.61 66.53 109.61 66.79V69.61C109.61 69.87 109.4 70.08 109.14 70.08ZM109.14 64.44C108.88 64.44 108.67 64.23 108.67 63.97V61.15C108.67 60.89 108.88 60.68 109.14 60.68C109.4 60.68 109.61 60.89 109.61 61.15V63.97C109.61 64.23 109.4 64.44 109.14 64.44ZM109.14 58.8C108.88 58.8 108.67 58.59 108.67 58.33V55.51C108.67 55.25 108.88 55.04 109.14 55.04C109.4 55.04 109.61 55.25 109.61 55.51V58.33C109.61 58.59 109.4 58.8 109.14 58.8ZM109.14 53.16C108.88 53.16 108.67 52.95 108.67 52.69V49.87C108.67 49.61 108.88 49.4 109.14 49.4C109.4 49.4 109.61 49.61 109.61 49.87V52.69C109.61 52.95 109.4 53.16 109.14 53.16ZM109.14 47.52C108.88 47.52 108.67 47.31 108.67 47.05V44.23C108.67 43.97 108.88 43.76 109.14 43.76C109.4 43.76 109.61 43.97 109.61 44.23V47.05C109.61 47.31 109.4 47.52 109.14 47.52ZM109.14 41.88C108.88 41.88 108.67 41.67 108.67 41.41V38.59C108.67 38.33 108.88 38.12 109.14 38.12C109.4 38.12 109.61 38.33 109.61 38.59V41.41C109.61 41.67 109.4 41.88 109.14 41.88ZM109.14 36.24C108.88 36.24 108.67 36.03 108.67 35.77V32.95C108.67 32.69 108.88 32.48 109.14 32.48C109.4 32.48 109.61 32.69 109.61 32.95V35.77C109.61 36.03 109.4 36.24 109.14 36.24ZM109.14 30.6C108.88 30.6 108.67 30.39 108.67 30.13V27.31C108.67 27.05 108.88 26.84 109.14 26.84C109.4 26.84 109.61 27.05 109.61 27.31V30.13C109.61 30.39 109.4 30.6 109.14 30.6ZM109.14 24.96C108.88 24.96 108.67 24.75 108.67 24.49V21.67C108.67 21.41 108.88 21.2 109.14 21.2C109.4 21.2 109.61 21.41 109.61 21.67V24.49C109.61 24.75 109.4 24.96 109.14 24.96ZM109.14 19.32C108.88 19.32 108.67 19.11 108.67 18.85V16.03C108.67 15.77 108.88 15.56 109.14 15.56C109.4 15.56 109.61 15.77 109.61 16.03V18.85C109.61 19.11 109.4 19.32 109.14 19.32ZM109.14 13.68C108.88 13.68 108.67 13.47 108.67 13.21V10.39C108.67 10.13 108.88 9.92003 109.14 9.92003C109.4 9.92003 109.61 10.13 109.61 10.39V13.21C109.61 13.47 109.4 13.68 109.14 13.68ZM109.14 8.04003C108.88 8.04003 108.67 7.83003 108.67 7.57003V4.75003C108.67 4.49003 108.88 4.28003 109.14 4.28003C109.4 4.28003 109.61 4.49003 109.61 4.75003V7.57003C109.61 7.83003 109.4 8.04003 109.14 8.04003Z" fill="#470F4C"/>
<path opacity="0.1" d="M76.3099 92.9998C76.4299 92.9098 76.4999 92.7698 76.4999 92.6198V86.0098C79.2799 86.8798 90.9299 90.8898 90.9299 97.2898C90.9299 99.4298 88.7699 101 86.9499 101.94C79.4799 105.8 65.0599 106.1 56.6699 101.02C62.4899 100.49 69.1899 98.2998 76.3099 92.9998Z" fill="#470F4C"/>
<path opacity="0.1" d="M31.5495 86.54V92.62C31.5495 92.75 31.5995 92.88 31.6995 92.97C31.8995 93.16 36.7695 97.62 44.7395 99.9C46.9395 100.53 49.5295 100.99 52.3895 101.11C43.9795 106.09 29.6795 105.77 22.2495 101.94C20.4295 101 18.2695 99.44 18.2695 97.29C18.2695 90.94 28.9095 87.34 31.5495 86.54Z" fill="#470F4C"/>
<path opacity="0.1" d="M1.50977 129.77C2.13977 125.55 6.69977 97.9 17.3798 97.77C17.5998 99.65 19.1198 101.37 21.8298 102.77C25.5498 104.69 30.9398 105.76 36.4998 105.76C42.9198 105.76 49.5598 104.33 54.0998 101.15C54.4298 101.15 54.7598 101.14 55.0898 101.13C59.6298 104.33 66.2898 105.76 72.7298 105.76C78.2898 105.76 83.6898 104.69 87.3998 102.77C90.0998 101.38 91.6098 99.66 91.8498 97.78C104.82 98.37 108.62 125.63 109.12 129.76H1.50977V129.77Z" fill="#470F4C"/>
<path opacity="0.4" d="M81.4984 40.9001C81.4984 29.0701 77.7984 12.1801 54.3384 11.5601C30.8784 10.9401 27.2784 29.4301 26.4184 40.9001C25.6584 51.0501 28.6284 55.9101 29.3184 56.9001C28.4484 44.5701 31.0884 32.9501 31.0884 32.9501C31.0884 29.9301 34.9384 24.8301 34.9384 24.8301C34.9384 24.8301 39.7484 37.3201 54.3384 37.3201C68.9284 37.3201 73.7284 25.7401 73.7284 25.7401C73.7284 25.7401 77.2884 30.2101 78.1984 36.0401L78.5884 37.3301C79.3184 42.8901 79.9184 50.5601 79.1984 58.1501C81.8384 56.6701 81.4884 52.7501 81.4884 40.9101L81.4984 40.9001Z" fill="#470F4C"/>
<path d="M79.2192 58.6101C79.0892 58.6101 78.9592 58.5501 78.8692 58.4601C78.7792 58.3601 78.7292 58.2301 78.7492 58.1001C79.4892 50.3601 78.8292 42.5601 78.1492 37.3901L77.7792 36.1801C77.0792 31.7301 74.8192 28.0701 73.8392 26.6601C73.2792 27.7201 72.0292 29.7901 69.8592 31.8801C67.0392 34.5801 62.0592 37.8001 54.3692 37.8001C41.7592 37.8001 36.2392 28.5401 34.8792 25.7801C33.8692 27.2301 31.5992 30.7501 31.5992 32.9601C31.5992 32.9901 31.5992 33.0301 31.5892 33.0601C31.5592 33.1801 28.9792 44.7601 29.8292 56.8801C29.8392 57.0901 29.7192 57.2901 29.5192 57.3601C29.3192 57.4301 29.0992 57.3601 28.9792 57.1901C28.3392 56.2901 25.2092 51.2601 25.9892 40.8901C26.5592 33.3601 28.2992 10.4001 54.3992 11.1201C72.4692 11.5901 82.0192 21.9001 82.0192 40.9301C82.0192 42.2701 82.0192 43.5001 82.0192 44.6501C82.0492 53.7301 82.0692 57.1301 79.4792 58.5801C79.4092 58.6201 79.3292 58.6401 79.2492 58.6401L79.2192 58.6101ZM73.7492 25.2601C73.8892 25.2601 74.0292 25.3201 74.1192 25.4401C74.2692 25.6301 77.7592 30.0801 78.6892 35.9601L79.0692 37.1801C79.7392 42.2301 80.3692 49.6101 79.7892 57.0601C81.0892 55.4801 81.0792 52.0201 81.0492 44.6201C81.0492 43.4801 81.0492 42.2401 81.0492 40.9001C81.0492 22.2101 72.0692 12.5001 54.3492 12.0401C37.3592 11.5801 28.3992 21.0501 26.9092 40.9401C26.3692 48.0901 27.7192 52.5701 28.7592 54.8701C28.3192 43.8001 30.4692 33.7101 30.6392 32.9001C30.6792 29.7601 34.4192 24.7701 34.5792 24.5501C34.6792 24.4101 34.8492 24.3501 35.0192 24.3701C35.1892 24.3901 35.3292 24.5101 35.3992 24.6701C35.4492 24.7901 40.2792 36.8601 54.3592 36.8601C68.4392 36.8601 73.2692 25.6801 73.3192 25.5701C73.3792 25.4201 73.5192 25.3101 73.6892 25.2801C73.7092 25.2801 73.7292 25.2801 73.7592 25.2801L73.7492 25.2601Z" fill="#470F4C"/>
<path d="M39.3804 52.0704C40.3359 52.0704 41.1104 51.2958 41.1104 50.3404C41.1104 49.3849 40.3359 48.6104 39.3804 48.6104C38.4249 48.6104 37.6504 49.3849 37.6504 50.3404C37.6504 51.2958 38.4249 52.0704 39.3804 52.0704Z" fill="#470F4C"/>
<path d="M39.3797 52.5401C38.1697 52.5401 37.1797 51.5501 37.1797 50.3401C37.1797 49.1301 38.1697 48.1401 39.3797 48.1401C40.5897 48.1401 41.5797 49.1301 41.5797 50.3401C41.5797 51.5501 40.5897 52.5401 39.3797 52.5401ZM39.3797 49.0901C38.6897 49.0901 38.1297 49.6501 38.1297 50.3401C38.1297 51.0301 38.6897 51.5901 39.3797 51.5901C40.0697 51.5901 40.6297 51.0301 40.6297 50.3401C40.6297 49.6501 40.0697 49.0901 39.3797 49.0901Z" fill="#470F4C"/>
<path d="M53.7088 101.16C50.3088 101.16 47.2788 100.62 44.7388 99.9003C36.7688 97.6203 31.9088 93.1603 31.6988 92.9703C31.5988 92.8803 31.5488 92.7503 31.5488 92.6203V70.0403C31.5488 69.7803 31.7588 69.5703 32.0188 69.5703C32.2788 69.5703 32.4888 69.7803 32.4888 70.0403V92.4103C34.3488 94.0103 52.9388 109.08 75.5488 92.3903V72.3003C75.5488 72.0403 75.7588 71.8303 76.0188 71.8303C76.2788 71.8303 76.4888 72.0403 76.4888 72.3003V92.6303C76.4888 92.7803 76.4188 92.9203 76.2988 93.0103C67.9388 99.2403 60.1388 101.17 53.6888 101.17L53.7088 101.16Z" fill="#470F4C"/>
<path d="M54.5993 85.7103C41.9093 85.7103 35.2993 78.9603 32.0293 70.3003C32.0493 73.9203 32.0993 83.3003 32.0993 83.4903C32.0993 83.4903 61.7493 98.3203 76.0293 73.8903V71.7403C72.5993 79.7603 66.1493 85.7103 54.5993 85.7103Z" fill="#470F4C"/>
<path d="M51.4186 88.3501C40.9886 88.3501 32.0486 83.9901 31.8886 83.9101C31.7286 83.8301 31.6286 83.6701 31.6286 83.4901C31.6286 83.3101 31.5786 73.9201 31.5586 70.3101C31.5586 70.0801 31.7186 69.8801 31.9486 69.8401C32.1686 69.8001 32.3986 69.9201 32.4786 70.1401C36.2586 80.1701 43.7086 85.2501 54.6086 85.2501C64.6586 85.2501 71.7186 80.6501 75.5986 71.5601C75.6886 71.3501 75.8986 71.2401 76.1286 71.2801C76.3486 71.3301 76.5086 71.5201 76.5086 71.7401V73.8901C76.5086 73.9701 76.4886 74.0601 76.4486 74.1301C69.9186 85.3001 60.1486 88.3501 51.4286 88.3501H51.4186ZM32.5686 83.1801C34.8586 84.2401 51.7186 91.5601 65.2886 84.0501C62.1986 85.4601 58.6286 86.1801 54.5986 86.1801C44.0886 86.1801 36.6686 81.6401 32.5086 72.6701C32.5286 76.4401 32.5586 81.8501 32.5686 83.1801Z" fill="#470F4C"/>
<path d="M79.9003 55.0503C81.1703 55.1703 82.1603 56.0503 82.1603 57.1303C82.1603 58.2903 81.0103 59.2403 79.6003 59.2403C79.5903 59.2403 79.5803 59.2403 79.5703 59.2403C79.7303 57.8403 79.8403 56.4403 79.9103 55.0503H79.9003Z" fill="white"/>
<path d="M29.0789 59.2603C29.0789 59.2603 28.9889 59.2303 28.9389 59.2303C27.5289 59.2303 26.3789 58.2903 26.3789 57.1203C26.3789 55.9503 27.4289 55.1103 28.7589 55.0303C28.8189 56.4103 28.9289 57.8203 29.0789 59.2603Z" fill="white"/>
<path d="M29.3102 61.9802C29.0002 62.0502 28.6802 62.0802 28.3602 62.0802C25.7702 62.0802 23.6602 59.8602 23.6602 57.1302C23.6602 54.4002 25.7702 52.1802 28.3602 52.1802C28.4702 52.1802 28.5802 52.1902 28.6902 52.2002C28.6902 52.8202 28.7101 53.4602 28.7301 54.1002C26.9001 54.2002 25.4301 55.5102 25.4301 57.1302C25.4301 58.7502 27.0002 60.1802 28.9402 60.1802C29.0302 60.1802 29.1101 60.1502 29.1801 60.1102C29.2601 60.7302 29.3402 61.3602 29.4402 61.9802C29.4002 61.9802 29.3602 61.9802 29.3202 61.9802H29.3102Z" fill="white"/>
<path d="M80.1694 62.0802C79.8494 62.0802 79.5295 62.0502 79.2195 61.9802C79.2195 61.9802 79.1995 61.9802 79.1895 61.9802C79.2895 61.3702 79.3694 60.7602 79.4494 60.1502C79.4994 60.1602 79.5394 60.1802 79.5894 60.1802C81.5194 60.1802 83.0995 58.8102 83.0995 57.1302C83.0995 55.5502 81.7095 54.2602 79.9395 54.1102C79.9595 53.4702 79.9795 52.8302 79.9895 52.1902C80.0495 52.1902 80.1094 52.1802 80.1694 52.1802C82.7594 52.1802 84.8694 54.4002 84.8694 57.1302C84.8694 59.8602 82.7594 62.0802 80.1694 62.0802Z" fill="white"/>
<path d="M80.1691 63.02C79.7791 63.02 79.3991 62.98 79.0191 62.9C78.7591 62.84 78.5991 62.59 78.6591 62.34C78.7091 62.09 78.9691 61.92 79.2191 61.98C79.5291 62.05 79.8491 62.08 80.1691 62.08C82.7591 62.08 84.8691 59.86 84.8691 57.13C84.8691 54.4 82.7591 52.18 80.1691 52.18C79.9891 52.18 79.8191 52.19 79.6491 52.21C79.3891 52.24 79.1591 52.05 79.1291 51.79C79.0991 51.53 79.2891 51.3 79.5491 51.27C79.7591 51.25 79.9691 51.23 80.1791 51.23C83.2891 51.23 85.8291 53.87 85.8291 57.12C85.8291 60.37 83.2991 63.01 80.1791 63.01L80.1691 63.02Z" fill="#470F4C"/>
<path d="M79.5989 60.1801C79.3389 60.1801 79.1289 59.9701 79.1289 59.7101C79.1289 59.4501 79.3389 59.2401 79.5989 59.2401C81.0089 59.2401 82.1589 58.3001 82.1589 57.1301C82.1589 55.9601 81.0089 55.0201 79.5989 55.0201C79.3389 55.0201 79.1289 54.8101 79.1289 54.5501C79.1289 54.2901 79.3389 54.0801 79.5989 54.0801C81.5289 54.0801 83.1089 55.4501 83.1089 57.1301C83.1089 58.8101 81.5389 60.1801 79.5989 60.1801Z" fill="#470F4C"/>
<path d="M28.3592 63.02C28.7492 63.02 29.1292 62.98 29.5092 62.9C29.7692 62.84 29.9292 62.59 29.8692 62.34C29.8192 62.09 29.5592 61.92 29.3092 61.98C28.9992 62.05 28.6792 62.08 28.3592 62.08C25.7692 62.08 23.6592 59.86 23.6592 57.13C23.6592 54.4 25.7692 52.18 28.3592 52.18C28.5392 52.18 28.7092 52.19 28.8792 52.21C29.1392 52.24 29.3692 52.05 29.3992 51.79C29.4292 51.53 29.2392 51.3 28.9792 51.27C28.7692 51.25 28.5592 51.23 28.3492 51.23C25.2392 51.23 22.6992 53.87 22.6992 57.12C22.6992 60.37 25.2292 63.01 28.3492 63.01L28.3592 63.02Z" fill="#470F4C"/>
<path d="M28.9397 60.1801C29.1997 60.1801 29.4097 59.9701 29.4097 59.7101C29.4097 59.4501 29.1997 59.2401 28.9397 59.2401C27.5297 59.2401 26.3797 58.3001 26.3797 57.1301C26.3797 55.9601 27.5297 55.0201 28.9397 55.0201C29.1997 55.0201 29.4097 54.8101 29.4097 54.5501C29.4097 54.2901 29.1997 54.0801 28.9397 54.0801C27.0097 54.0801 25.4297 55.4501 25.4297 57.1301C25.4297 58.8101 26.9997 60.1801 28.9397 60.1801Z" fill="#470F4C"/>
<path d="M34.9492 45.07C34.8092 45.07 34.6792 45.01 34.5792 44.9C34.4192 44.7 34.4492 44.4 34.6492 44.24C34.7792 44.13 37.9292 41.61 43.7292 40.45C43.9692 40.4 44.2292 40.56 44.2892 40.82C44.3392 41.08 44.1792 41.32 43.9192 41.38C38.3692 42.49 35.2792 44.96 35.2492 44.98C35.1592 45.05 35.0592 45.09 34.9492 45.09V45.07Z" fill="#470F4C"/>
<path d="M69.3101 52.0704C70.2655 52.0704 71.0401 51.2958 71.0401 50.3404C71.0401 49.3849 70.2655 48.6104 69.3101 48.6104C68.3546 48.6104 67.5801 49.3849 67.5801 50.3404C67.5801 51.2958 68.3546 52.0704 69.3101 52.0704Z" fill="#470F4C"/>
<path d="M69.3094 52.5401C68.0994 52.5401 67.1094 51.5501 67.1094 50.3401C67.1094 49.1301 68.0994 48.1401 69.3094 48.1401C70.5194 48.1401 71.5094 49.1301 71.5094 50.3401C71.5094 51.5501 70.5194 52.5401 69.3094 52.5401ZM69.3094 49.0901C68.6194 49.0901 68.0594 49.6501 68.0594 50.3401C68.0594 51.0301 68.6194 51.5901 69.3094 51.5901C69.9994 51.5901 70.5594 51.0301 70.5594 50.3401C70.5594 49.6501 69.9994 49.0901 69.3094 49.0901Z" fill="#470F4C"/>
<path d="M73.7495 45.07C73.6395 45.07 73.5395 45.04 73.4495 44.96C73.4195 44.94 70.3395 42.47 64.7795 41.36C64.5195 41.31 64.3595 41.06 64.4095 40.8C64.4595 40.54 64.7195 40.38 64.9695 40.43C70.7695 41.59 73.9195 44.12 74.0495 44.22C74.2495 44.38 74.2795 44.68 74.1195 44.88C74.0295 44.99 73.8895 45.05 73.7495 45.05V45.07Z" fill="#470F4C"/>
<path d="M52.0598 72.0402C44.3598 72.0402 42.1298 68.4502 42.0398 68.3002C41.9098 68.0802 41.9798 67.7902 42.1998 67.6502C42.4198 67.5202 42.7098 67.5902 42.8498 67.8102C42.8498 67.8102 44.9498 71.0902 52.0598 71.0902C52.3198 71.0902 52.5298 71.3002 52.5298 71.5602C52.5298 71.8202 52.3198 72.0302 52.0598 72.0302V72.0402Z" fill="#470F4C"/>
<path d="M54.6 86.1802C46.45 86.1802 40.1 83.4102 35.73 77.9402C29.55 70.2002 28.49 58.3302 28.7 49.7402C28.91 40.8702 30.47 33.5702 30.62 32.8902C30.66 29.7502 34.4 24.7602 34.56 24.5402C34.66 24.4002 34.83 24.3402 35 24.3602C35.17 24.3802 35.31 24.5002 35.38 24.6602C35.43 24.7802 40.26 36.8502 54.34 36.8502C68.42 36.8502 73.25 25.6702 73.3 25.5602C73.36 25.4102 73.5 25.3002 73.67 25.2702C73.83 25.2402 74 25.3102 74.11 25.4402C74.26 25.6302 77.74 30.0602 78.67 35.9302L79.05 37.1902C80.51 48.2402 81.53 68.2402 72.16 78.9302C67.94 83.7502 62.03 86.1902 54.6 86.1902V86.1802ZM34.85 25.7702C33.84 27.2202 31.57 30.7402 31.57 32.9502C31.57 32.9802 31.57 33.0202 31.56 33.0502C31.54 33.1202 29.87 40.6102 29.65 49.7802C29.45 58.2102 30.47 69.8302 36.48 77.3502C40.66 82.5802 46.76 85.2302 54.61 85.2302C61.75 85.2302 67.42 82.9002 71.46 78.2902C80.59 67.8802 79.57 48.1802 78.14 37.3702L77.77 36.1602C77.77 36.1602 77.76 36.1202 77.76 36.1002C77.07 31.7002 74.81 28.0502 73.84 26.6502C73.28 27.7102 72.03 29.7802 69.86 31.8702C67.04 34.5702 62.06 37.7902 54.37 37.7902C41.76 37.7902 36.24 28.5302 34.88 25.7702H34.85Z" fill="#470F4C"/>
<path d="M52.1595 64.4902C51.9095 64.4902 51.6995 64.2902 51.6895 64.0302C51.6895 63.7702 51.8794 63.5502 52.1494 63.5402C54.4094 63.4602 57.8094 63.0402 58.6694 62.3602C58.7694 61.1202 59.3595 53.4602 58.7195 47.1602C58.6895 46.9002 58.8794 46.6702 59.1395 46.6402C59.3995 46.6202 59.6295 46.8002 59.6595 47.0602C60.3695 53.9902 59.6095 62.5302 59.5995 62.6102C59.5995 62.7102 59.5495 62.8002 59.4895 62.8802C58.3395 64.2002 53.2094 64.4502 52.1994 64.4802C52.1994 64.4802 52.1894 64.4802 52.1794 64.4802L52.1595 64.4902Z" fill="#470F4C"/>
<path d="M36.4901 105.76C30.9301 105.76 25.5301 104.69 21.8201 102.77C18.8801 101.25 17.3301 99.3601 17.3301 97.2801C17.3301 89.3301 31.3101 85.6001 31.9101 85.4501C32.1601 85.3801 32.4201 85.5401 32.4901 85.7901C32.5601 86.0401 32.4101 86.3001 32.1501 86.3701C32.0101 86.4101 18.2801 90.0701 18.2801 97.2901C18.2801 99.4301 20.4401 101 22.2601 101.94C30.0601 105.97 45.4701 106.14 53.6401 100.33C53.8501 100.18 54.1501 100.23 54.3001 100.44C54.4501 100.65 54.4001 100.95 54.1901 101.1C49.6501 104.32 42.9601 105.77 36.5001 105.77L36.4901 105.76Z" fill="#470F4C"/>
<path d="M109.629 130.72H0.959423C0.819423 130.72 0.689423 130.66 0.599423 130.56C0.509423 130.46 0.469422 130.32 0.489422 130.19C0.669422 128.81 5.04942 96.8203 17.4494 96.8203C17.5694 96.8203 17.6994 96.8203 17.8194 96.8303C18.0794 96.8403 18.2794 97.0703 18.2694 97.3303C18.2594 97.5903 18.0594 97.8203 17.7694 97.7803C6.80943 97.2003 2.13942 125.52 1.49942 129.79H109.089C108.589 125.61 104.709 97.7803 91.3994 97.7803C91.1394 97.7803 90.9294 97.5703 90.9294 97.3103C90.9294 97.0503 91.1394 96.8403 91.3994 96.8403C97.7194 96.8403 102.959 102.65 106.549 113.64C109.229 121.83 110.079 130.14 110.089 130.22C110.099 130.35 110.059 130.48 109.969 130.58C109.879 130.68 109.749 130.74 109.619 130.74L109.629 130.72Z" fill="#470F4C"/>
<path d="M48.6101 119.48C48.6101 119.48 48.5901 119.48 48.5801 119.48C48.3201 119.46 48.1201 119.24 48.1401 118.98C48.1801 118.39 49.13 104.57 51.81 101.49C51.98 101.29 52.28 101.27 52.48 101.44C52.68 101.61 52.7001 101.91 52.5301 102.11C50.0601 104.95 49.1 118.9 49.09 119.04C49.07 119.29 48.87 119.48 48.62 119.48H48.6101Z" fill="#470F4C"/>
<path d="M72.7186 105.76C66.2486 105.76 59.5586 104.32 55.0286 101.09C54.8186 100.94 54.7686 100.64 54.9186 100.43C55.0686 100.22 55.3686 100.17 55.5786 100.32C63.7486 106.13 79.1587 105.96 86.9587 101.93C88.7787 100.99 90.9386 99.4303 90.9386 97.2803C90.9386 90.0503 76.0586 85.8603 75.9086 85.8203C75.6586 85.7503 75.5086 85.4903 75.5786 85.2403C75.6486 84.9903 75.9086 84.8403 76.1586 84.9103C76.7986 85.0903 91.8787 89.3403 91.8787 97.2803C91.8787 99.3503 90.3286 101.25 87.3886 102.77C83.6686 104.69 78.2786 105.76 72.7186 105.76Z" fill="#470F4C"/>
<path d="M60.5992 119.48C60.3492 119.48 60.1492 119.29 60.1292 119.04C60.1292 118.9 59.1592 104.95 56.6892 102.11C56.5192 101.91 56.5392 101.61 56.7392 101.44C56.9392 101.27 57.2392 101.29 57.4092 101.49C60.0892 104.57 61.0392 118.39 61.0792 118.98C61.0992 119.24 60.8992 119.47 60.6392 119.48C60.6292 119.48 60.6192 119.48 60.6092 119.48H60.5992Z" fill="#470F4C"/>
</svg>
