<svg width="111" height="132" viewBox="0 0 111 132" fill="none" xmlns="http://www.w3.org/2000/svg">
<path opacity="0.2" d="M76.6998 37.1299C76.6998 37.1299 77.8598 57.2999 77.0898 59.7399C76.3198 62.1799 72.1398 73.4999 54.3798 73.1899C37.2098 72.8999 31.1698 63.9499 30.1198 59.7399C29.0698 55.5299 31.1498 37.8399 31.1498 37.8399L30.1198 40.5699C30.1198 40.5699 18.5298 92.3299 53.5798 92.3299C88.6298 92.3299 76.6898 37.1399 76.6898 37.1399L76.6998 37.1299Z" fill="#470F4C"/>
<path d="M54.4296 81.9601C46.3996 81.9601 45.7796 77.0701 45.7596 76.8601C45.7396 76.7101 45.7997 76.5601 45.9197 76.4601C46.0297 76.3601 46.1896 76.3201 46.3396 76.3601C46.4096 76.3801 53.7596 78.1301 62.0596 76.3601C62.1996 76.3301 62.3397 76.3601 62.4497 76.4501C62.5597 76.5401 62.6196 76.6701 62.6196 76.8101C62.6196 76.8601 62.5096 81.9601 54.4396 81.9601H54.4296Z" fill="#470F4C"/>
<path opacity="0.3" d="M33.3804 80.1999C33.5904 80.5999 33.8004 80.9899 34.0204 81.3699C34.0704 81.4499 34.1104 81.5299 34.1604 81.6099C34.9804 82.9999 35.9004 84.2399 36.9204 85.3499C37.2104 85.6699 37.5204 85.9799 37.8304 86.2799C38.1204 86.5599 38.4204 86.8299 38.7304 87.0899C39.0404 87.3499 39.3504 87.6099 39.6704 87.8499C39.9004 88.0199 40.1304 88.1799 40.3604 88.3399C40.7204 88.5799 41.0904 88.8199 41.4604 89.0399C41.6404 89.1499 41.8204 89.2599 42.0004 89.3599C42.5504 89.6599 43.1204 89.9299 43.7104 90.1799C43.9004 90.2599 44.1004 90.3299 44.2904 90.4099C44.7704 90.5999 45.2604 90.7699 45.7604 90.9199C45.9304 90.9699 46.1104 91.0299 46.2804 91.0799C46.9404 91.2699 47.6304 91.4299 48.3304 91.5599C48.4604 91.5799 48.6004 91.5999 48.7304 91.6199C49.3304 91.7199 49.9404 91.7999 50.5704 91.8599C50.7704 91.8799 50.9804 91.8999 51.1804 91.9199C51.9404 91.9799 52.7104 92.0199 53.5104 92.0199C54.1204 92.0199 54.7104 91.9999 55.2904 91.9699C55.4704 91.9699 55.6404 91.9499 55.8104 91.9399C56.2504 91.9099 56.6804 91.8699 57.1004 91.8199C57.2604 91.7999 57.4204 91.7899 57.5704 91.7699C58.1104 91.6999 58.6404 91.6099 59.1504 91.5099C59.3004 91.4799 59.4504 91.4399 59.6004 91.4099C59.9804 91.3299 60.3604 91.2399 60.7204 91.1399C60.9104 91.0899 61.0904 91.0399 61.2704 90.9899C61.6604 90.8799 62.0404 90.7599 62.4104 90.6299C62.5204 90.5899 62.6404 90.5599 62.7504 90.5099C63.2204 90.3399 63.6704 90.1499 64.1104 89.9499C64.2604 89.8799 64.4004 89.8099 64.5504 89.7399C64.8904 89.5799 65.2204 89.4099 65.5404 89.2299C65.6604 89.1599 65.7904 89.0999 65.9104 89.0299C66.3504 88.7799 66.7804 88.5199 67.1904 88.2299C67.2204 88.2099 67.2504 88.1799 67.2904 88.1599C67.6804 87.8899 68.0704 87.5999 68.4404 87.2999C68.5204 87.2399 68.6004 87.1699 68.6804 87.1099C69.0604 86.7899 69.4404 86.4599 69.8004 86.1099C69.8004 86.1099 69.8204 86.0999 69.8204 86.0899C70.2104 85.7099 70.6004 85.2999 70.9604 84.8799C70.9904 84.8499 71.0204 84.8099 71.0404 84.7799C71.3304 84.4499 71.6004 84.0999 71.8704 83.7399C72.0204 83.5399 72.1704 83.3299 72.3204 83.1299C72.5104 82.8599 72.7004 82.5899 72.8804 82.3099C73.0404 82.0599 73.1904 81.8099 73.3504 81.5599C73.5004 81.3099 73.6504 81.0599 73.7904 80.7999C73.9604 80.4899 74.1304 80.1799 74.2904 79.8599C74.4004 79.6499 74.5004 79.4399 74.6004 79.2199C74.7804 78.8399 74.9504 78.4599 75.1104 78.0699C75.1804 77.9099 75.2404 77.7499 75.3104 77.5799C75.4004 77.3499 75.4804 77.1199 75.5704 76.8899V76.7999C75.5704 76.6599 75.6404 76.5299 75.7404 76.4499C76.4504 74.4699 76.9904 72.4099 77.3904 70.3299C73.3104 79.9099 66.5404 86.7999 51.5504 86.7999C36.5604 86.7999 29.9804 69.3999 29.9004 69.1899C30.4504 72.3999 31.2804 75.5199 32.5004 78.3599C32.7104 78.8599 32.9404 79.3399 33.1704 79.8099C33.2304 79.9299 33.2904 80.0499 33.3504 80.1699L33.3804 80.1999Z" fill="#470F4C"/>
<path d="M1.3096 131H2.72961C2.98961 131 3.19962 130.79 3.19962 130.53C3.19962 130.27 2.98961 130.06 2.72961 130.06H1.78961V129.11C1.78961 128.85 1.57961 128.64 1.31961 128.64C1.05961 128.64 0.849609 128.85 0.849609 129.11V130.53C0.849609 130.79 1.05961 131 1.31961 131H1.3096Z" fill="#470F4C"/>
<path d="M5.11914 130.52C5.11914 130.26 5.32914 130.05 5.58914 130.05H8.44916C8.70916 130.05 8.91916 130.26 8.91916 130.52C8.91916 130.78 8.70916 130.99 8.44916 130.99H5.58914C5.32914 130.99 5.11914 130.78 5.11914 130.52ZM10.8391 130.52C10.8391 130.26 11.0491 130.05 11.3091 130.05H14.1692C14.4292 130.05 14.6392 130.26 14.6392 130.52C14.6392 130.78 14.4292 130.99 14.1692 130.99H11.3091C11.0491 130.99 10.8391 130.78 10.8391 130.52ZM16.5591 130.52C16.5591 130.26 16.7691 130.05 17.0291 130.05H19.8892C20.1492 130.05 20.3591 130.26 20.3591 130.52C20.3591 130.78 20.1492 130.99 19.8892 130.99H17.0291C16.7691 130.99 16.5591 130.78 16.5591 130.52ZM22.2791 130.52C22.2791 130.26 22.4891 130.05 22.7491 130.05H25.6091C25.8691 130.05 26.0791 130.26 26.0791 130.52C26.0791 130.78 25.8691 130.99 25.6091 130.99H22.7491C22.4891 130.99 22.2791 130.78 22.2791 130.52ZM27.9991 130.52C27.9991 130.26 28.2091 130.05 28.4691 130.05H31.3291C31.5891 130.05 31.7991 130.26 31.7991 130.52C31.7991 130.78 31.5891 130.99 31.3291 130.99H28.4691C28.2091 130.99 27.9991 130.78 27.9991 130.52ZM33.7191 130.52C33.7191 130.26 33.9291 130.05 34.1891 130.05H37.0491C37.3091 130.05 37.5191 130.26 37.5191 130.52C37.5191 130.78 37.3091 130.99 37.0491 130.99H34.1891C33.9291 130.99 33.7191 130.78 33.7191 130.52ZM39.4391 130.52C39.4391 130.26 39.6492 130.05 39.9091 130.05H42.7691C43.0291 130.05 43.2391 130.26 43.2391 130.52C43.2391 130.78 43.0291 130.99 42.7691 130.99H39.9091C39.6492 130.99 39.4391 130.78 39.4391 130.52ZM45.1591 130.52C45.1591 130.26 45.3692 130.05 45.6292 130.05H48.4891C48.7491 130.05 48.9591 130.26 48.9591 130.52C48.9591 130.78 48.7491 130.99 48.4891 130.99H45.6292C45.3692 130.99 45.1591 130.78 45.1591 130.52ZM50.8792 130.52C50.8792 130.26 51.0892 130.05 51.3492 130.05H54.2091C54.4691 130.05 54.6791 130.26 54.6791 130.52C54.6791 130.78 54.4691 130.99 54.2091 130.99H51.3492C51.0892 130.99 50.8792 130.78 50.8792 130.52ZM56.5992 130.52C56.5992 130.26 56.8092 130.05 57.0692 130.05H59.9291C60.1891 130.05 60.3991 130.26 60.3991 130.52C60.3991 130.78 60.1891 130.99 59.9291 130.99H57.0692C56.8092 130.99 56.5992 130.78 56.5992 130.52ZM62.3192 130.52C62.3192 130.26 62.5292 130.05 62.7892 130.05H65.6491C65.9091 130.05 66.1191 130.26 66.1191 130.52C66.1191 130.78 65.9091 130.99 65.6491 130.99H62.7892C62.5292 130.99 62.3192 130.78 62.3192 130.52ZM68.0392 130.52C68.0392 130.26 68.2492 130.05 68.5092 130.05H71.3691C71.6291 130.05 71.8391 130.26 71.8391 130.52C71.8391 130.78 71.6291 130.99 71.3691 130.99H68.5092C68.2492 130.99 68.0392 130.78 68.0392 130.52ZM73.7592 130.52C73.7592 130.26 73.9692 130.05 74.2292 130.05H77.0891C77.3491 130.05 77.5591 130.26 77.5591 130.52C77.5591 130.78 77.3491 130.99 77.0891 130.99H74.2292C73.9692 130.99 73.7592 130.78 73.7592 130.52ZM79.4792 130.52C79.4792 130.26 79.6892 130.05 79.9492 130.05H82.8091C83.0691 130.05 83.2791 130.26 83.2791 130.52C83.2791 130.78 83.0691 130.99 82.8091 130.99H79.9492C79.6892 130.99 79.4792 130.78 79.4792 130.52ZM85.1992 130.52C85.1992 130.26 85.4092 130.05 85.6692 130.05H88.5291C88.7891 130.05 88.9991 130.26 88.9991 130.52C88.9991 130.78 88.7891 130.99 88.5291 130.99H85.6692C85.4092 130.99 85.1992 130.78 85.1992 130.52ZM90.9192 130.52C90.9192 130.26 91.1292 130.05 91.3892 130.05H94.2491C94.5091 130.05 94.7191 130.26 94.7191 130.52C94.7191 130.78 94.5091 130.99 94.2491 130.99H91.3892C91.1292 130.99 90.9192 130.78 90.9192 130.52ZM96.6392 130.52C96.6392 130.26 96.8491 130.05 97.1091 130.05H99.9691C100.229 130.05 100.439 130.26 100.439 130.52C100.439 130.78 100.229 130.99 99.9691 130.99H97.1091C96.8491 130.99 96.6392 130.78 96.6392 130.52ZM102.359 130.52C102.359 130.26 102.569 130.05 102.829 130.05H105.689C105.949 130.05 106.159 130.26 106.159 130.52C106.159 130.78 105.949 130.99 105.689 130.99H102.829C102.569 130.99 102.359 130.78 102.359 130.52Z" fill="#470F4C"/>
<path d="M108.56 131H109.98C110.24 131 110.45 130.79 110.45 130.53V129.11C110.45 128.85 110.24 128.64 109.98 128.64C109.72 128.64 109.51 128.85 109.51 129.11V130.05H108.57C108.31 130.05 108.1 130.26 108.1 130.52C108.1 130.78 108.31 130.99 108.57 130.99L108.56 131Z" fill="#470F4C"/>
<path d="M109.51 126.29V123.47C109.51 123.21 109.72 123 109.98 123C110.24 123 110.45 123.21 110.45 123.47V126.29C110.45 126.55 110.24 126.76 109.98 126.76C109.72 126.76 109.51 126.55 109.51 126.29ZM109.51 120.65V117.83C109.51 117.57 109.72 117.36 109.98 117.36C110.24 117.36 110.45 117.57 110.45 117.83V120.65C110.45 120.91 110.24 121.12 109.98 121.12C109.72 121.12 109.51 120.91 109.51 120.65ZM109.51 115.01V112.19C109.51 111.93 109.72 111.72 109.98 111.72C110.24 111.72 110.45 111.93 110.45 112.19V115.01C110.45 115.27 110.24 115.48 109.98 115.48C109.72 115.48 109.51 115.27 109.51 115.01ZM109.51 109.37V106.55C109.51 106.29 109.72 106.08 109.98 106.08C110.24 106.08 110.45 106.29 110.45 106.55V109.37C110.45 109.63 110.24 109.84 109.98 109.84C109.72 109.84 109.51 109.63 109.51 109.37ZM109.51 103.73V100.91C109.51 100.65 109.72 100.44 109.98 100.44C110.24 100.44 110.45 100.65 110.45 100.91V103.73C110.45 103.99 110.24 104.2 109.98 104.2C109.72 104.2 109.51 103.99 109.51 103.73ZM109.51 98.0901V95.2701C109.51 95.0101 109.72 94.8001 109.98 94.8001C110.24 94.8001 110.45 95.0101 110.45 95.2701V98.0901C110.45 98.3501 110.24 98.5601 109.98 98.5601C109.72 98.5601 109.51 98.3501 109.51 98.0901ZM109.51 92.4501V89.6301C109.51 89.3701 109.72 89.1601 109.98 89.1601C110.24 89.1601 110.45 89.3701 110.45 89.6301V92.4501C110.45 92.7101 110.24 92.9201 109.98 92.9201C109.72 92.9201 109.51 92.7101 109.51 92.4501ZM109.51 86.8101V83.9901C109.51 83.7301 109.72 83.5201 109.98 83.5201C110.24 83.5201 110.45 83.7301 110.45 83.9901V86.8101C110.45 87.0701 110.24 87.2801 109.98 87.2801C109.72 87.2801 109.51 87.0701 109.51 86.8101ZM109.51 81.1701V78.3501C109.51 78.0901 109.72 77.8801 109.98 77.8801C110.24 77.8801 110.45 78.0901 110.45 78.3501V81.1701C110.45 81.4301 110.24 81.6401 109.98 81.6401C109.72 81.6401 109.51 81.4301 109.51 81.1701ZM109.51 75.5301V72.7101C109.51 72.4501 109.72 72.2401 109.98 72.2401C110.24 72.2401 110.45 72.4501 110.45 72.7101V75.5301C110.45 75.7901 110.24 76.0001 109.98 76.0001C109.72 76.0001 109.51 75.7901 109.51 75.5301ZM109.51 69.8901V67.0701C109.51 66.8101 109.72 66.6001 109.98 66.6001C110.24 66.6001 110.45 66.8101 110.45 67.0701V69.8901C110.45 70.1501 110.24 70.3601 109.98 70.3601C109.72 70.3601 109.51 70.1501 109.51 69.8901ZM109.51 64.2501V61.4301C109.51 61.1701 109.72 60.9601 109.98 60.9601C110.24 60.9601 110.45 61.1701 110.45 61.4301V64.2501C110.45 64.5101 110.24 64.7201 109.98 64.7201C109.72 64.7201 109.51 64.5101 109.51 64.2501ZM109.51 58.6101V55.7901C109.51 55.5301 109.72 55.3201 109.98 55.3201C110.24 55.3201 110.45 55.5301 110.45 55.7901V58.6101C110.45 58.8701 110.24 59.0801 109.98 59.0801C109.72 59.0801 109.51 58.8701 109.51 58.6101ZM109.51 52.9701V50.1501C109.51 49.8901 109.72 49.6801 109.98 49.6801C110.24 49.6801 110.45 49.8901 110.45 50.1501V52.9701C110.45 53.2301 110.24 53.4401 109.98 53.4401C109.72 53.4401 109.51 53.2301 109.51 52.9701ZM109.51 47.3301V44.5101C109.51 44.2501 109.72 44.0401 109.98 44.0401C110.24 44.0401 110.45 44.2501 110.45 44.5101V47.3301C110.45 47.5901 110.24 47.8001 109.98 47.8001C109.72 47.8001 109.51 47.5901 109.51 47.3301ZM109.51 41.6901V38.8701C109.51 38.6101 109.72 38.4001 109.98 38.4001C110.24 38.4001 110.45 38.6101 110.45 38.8701V41.6901C110.45 41.9501 110.24 42.1601 109.98 42.1601C109.72 42.1601 109.51 41.9501 109.51 41.6901ZM109.51 36.0501V33.2301C109.51 32.9701 109.72 32.7601 109.98 32.7601C110.24 32.7601 110.45 32.9701 110.45 33.2301V36.0501C110.45 36.3101 110.24 36.5201 109.98 36.5201C109.72 36.5201 109.51 36.3101 109.51 36.0501ZM109.51 30.4101V27.5901C109.51 27.3301 109.72 27.1201 109.98 27.1201C110.24 27.1201 110.45 27.3301 110.45 27.5901V30.4101C110.45 30.6701 110.24 30.8801 109.98 30.8801C109.72 30.8801 109.51 30.6701 109.51 30.4101ZM109.51 24.7701V21.9501C109.51 21.6901 109.72 21.4801 109.98 21.4801C110.24 21.4801 110.45 21.6901 110.45 21.9501V24.7701C110.45 25.0301 110.24 25.2401 109.98 25.2401C109.72 25.2401 109.51 25.0301 109.51 24.7701ZM109.51 19.1301V16.3101C109.51 16.0501 109.72 15.8401 109.98 15.8401C110.24 15.8401 110.45 16.0501 110.45 16.3101V19.1301C110.45 19.3901 110.24 19.6001 109.98 19.6001C109.72 19.6001 109.51 19.3901 109.51 19.1301ZM109.51 13.4901V10.6701C109.51 10.4101 109.72 10.2001 109.98 10.2001C110.24 10.2001 110.45 10.4101 110.45 10.6701V13.4901C110.45 13.7501 110.24 13.9601 109.98 13.9601C109.72 13.9601 109.51 13.7501 109.51 13.4901ZM109.51 7.85006V5.03006C109.51 4.77006 109.72 4.56006 109.98 4.56006C110.24 4.56006 110.45 4.77006 110.45 5.03006V7.85006C110.45 8.11006 110.24 8.32006 109.98 8.32006C109.72 8.32006 109.51 8.11006 109.51 7.85006Z" fill="#470F4C"/>
<path d="M109.98 2.64003C110.24 2.64003 110.45 2.43003 110.45 2.17003V0.750029C110.45 0.490029 110.24 0.280029 109.98 0.280029H108.56C108.3 0.280029 108.09 0.490029 108.09 0.750029C108.09 1.01003 108.3 1.22003 108.56 1.22003H109.5V2.17003C109.5 2.43003 109.71 2.64003 109.97 2.64003H109.98Z" fill="#470F4C"/>
<path d="M5.11914 0.750029C5.11914 0.490029 5.32914 0.280029 5.58914 0.280029H8.44916C8.70916 0.280029 8.91916 0.490029 8.91916 0.750029C8.91916 1.01003 8.70916 1.22003 8.44916 1.22003H5.58914C5.32914 1.22003 5.11914 1.01003 5.11914 0.750029ZM10.8391 0.750029C10.8391 0.490029 11.0491 0.280029 11.3091 0.280029H14.1692C14.4292 0.280029 14.6392 0.490029 14.6392 0.750029C14.6392 1.01003 14.4292 1.22003 14.1692 1.22003H11.3091C11.0491 1.22003 10.8391 1.01003 10.8391 0.750029ZM16.5591 0.750029C16.5591 0.490029 16.7691 0.280029 17.0291 0.280029H19.8892C20.1492 0.280029 20.3591 0.490029 20.3591 0.750029C20.3591 1.01003 20.1492 1.22003 19.8892 1.22003H17.0291C16.7691 1.22003 16.5591 1.01003 16.5591 0.750029ZM22.2791 0.750029C22.2791 0.490029 22.4891 0.280029 22.7491 0.280029H25.6091C25.8691 0.280029 26.0791 0.490029 26.0791 0.750029C26.0791 1.01003 25.8691 1.22003 25.6091 1.22003H22.7491C22.4891 1.22003 22.2791 1.01003 22.2791 0.750029ZM27.9991 0.750029C27.9991 0.490029 28.2091 0.280029 28.4691 0.280029H31.3291C31.5891 0.280029 31.7991 0.490029 31.7991 0.750029C31.7991 1.01003 31.5891 1.22003 31.3291 1.22003H28.4691C28.2091 1.22003 27.9991 1.01003 27.9991 0.750029ZM33.7191 0.750029C33.7191 0.490029 33.9291 0.280029 34.1891 0.280029H37.0491C37.3091 0.280029 37.5191 0.490029 37.5191 0.750029C37.5191 1.01003 37.3091 1.22003 37.0491 1.22003H34.1891C33.9291 1.22003 33.7191 1.01003 33.7191 0.750029ZM39.4391 0.750029C39.4391 0.490029 39.6492 0.280029 39.9091 0.280029H42.7691C43.0291 0.280029 43.2391 0.490029 43.2391 0.750029C43.2391 1.01003 43.0291 1.22003 42.7691 1.22003H39.9091C39.6492 1.22003 39.4391 1.01003 39.4391 0.750029ZM45.1591 0.750029C45.1591 0.490029 45.3692 0.280029 45.6292 0.280029H48.4891C48.7491 0.280029 48.9591 0.490029 48.9591 0.750029C48.9591 1.01003 48.7491 1.22003 48.4891 1.22003H45.6292C45.3692 1.22003 45.1591 1.01003 45.1591 0.750029ZM50.8792 0.750029C50.8792 0.490029 51.0892 0.280029 51.3492 0.280029H54.2091C54.4691 0.280029 54.6791 0.490029 54.6791 0.750029C54.6791 1.01003 54.4691 1.22003 54.2091 1.22003H51.3492C51.0892 1.22003 50.8792 1.01003 50.8792 0.750029ZM56.5992 0.750029C56.5992 0.490029 56.8092 0.280029 57.0692 0.280029H59.9291C60.1891 0.280029 60.3991 0.490029 60.3991 0.750029C60.3991 1.01003 60.1891 1.22003 59.9291 1.22003H57.0692C56.8092 1.22003 56.5992 1.01003 56.5992 0.750029ZM62.3192 0.750029C62.3192 0.490029 62.5292 0.280029 62.7892 0.280029H65.6491C65.9091 0.280029 66.1191 0.490029 66.1191 0.750029C66.1191 1.01003 65.9091 1.22003 65.6491 1.22003H62.7892C62.5292 1.22003 62.3192 1.01003 62.3192 0.750029ZM68.0392 0.750029C68.0392 0.490029 68.2492 0.280029 68.5092 0.280029H71.3691C71.6291 0.280029 71.8391 0.490029 71.8391 0.750029C71.8391 1.01003 71.6291 1.22003 71.3691 1.22003H68.5092C68.2492 1.22003 68.0392 1.01003 68.0392 0.750029ZM73.7592 0.750029C73.7592 0.490029 73.9692 0.280029 74.2292 0.280029H77.0891C77.3491 0.280029 77.5591 0.490029 77.5591 0.750029C77.5591 1.01003 77.3491 1.22003 77.0891 1.22003H74.2292C73.9692 1.22003 73.7592 1.01003 73.7592 0.750029ZM79.4792 0.750029C79.4792 0.490029 79.6892 0.280029 79.9492 0.280029H82.8091C83.0691 0.280029 83.2791 0.490029 83.2791 0.750029C83.2791 1.01003 83.0691 1.22003 82.8091 1.22003H79.9492C79.6892 1.22003 79.4792 1.01003 79.4792 0.750029ZM85.1992 0.750029C85.1992 0.490029 85.4092 0.280029 85.6692 0.280029H88.5291C88.7891 0.280029 88.9991 0.490029 88.9991 0.750029C88.9991 1.01003 88.7891 1.22003 88.5291 1.22003H85.6692C85.4092 1.22003 85.1992 1.01003 85.1992 0.750029ZM90.9192 0.750029C90.9192 0.490029 91.1292 0.280029 91.3892 0.280029H94.2491C94.5091 0.280029 94.7191 0.490029 94.7191 0.750029C94.7191 1.01003 94.5091 1.22003 94.2491 1.22003H91.3892C91.1292 1.22003 90.9192 1.01003 90.9192 0.750029ZM96.6392 0.750029C96.6392 0.490029 96.8491 0.280029 97.1091 0.280029H99.9691C100.229 0.280029 100.439 0.490029 100.439 0.750029C100.439 1.01003 100.229 1.22003 99.9691 1.22003H97.1091C96.8491 1.22003 96.6392 1.01003 96.6392 0.750029ZM102.359 0.750029C102.359 0.490029 102.569 0.280029 102.829 0.280029H105.689C105.949 0.280029 106.159 0.490029 106.159 0.750029C106.159 1.01003 105.949 1.22003 105.689 1.22003H102.829C102.569 1.22003 102.359 1.01003 102.359 0.750029Z" fill="#470F4C"/>
<path d="M1.31009 2.64004C1.57009 2.64004 1.78009 2.43004 1.78009 2.17004V1.23004H2.72009C2.98009 1.23004 3.19009 1.02004 3.19009 0.760039C3.19009 0.500039 2.98009 0.290039 2.72009 0.290039H1.30008C1.04008 0.290039 0.830078 0.500039 0.830078 0.760039V2.18004C0.830078 2.44004 1.04008 2.65004 1.30008 2.65004L1.31009 2.64004Z" fill="#470F4C"/>
<path d="M0.839844 126.29V123.47C0.839844 123.21 1.04984 123 1.30984 123C1.56984 123 1.77985 123.21 1.77985 123.47V126.29C1.77985 126.55 1.56984 126.76 1.30984 126.76C1.04984 126.76 0.839844 126.55 0.839844 126.29ZM0.839844 120.65V117.83C0.839844 117.57 1.04984 117.36 1.30984 117.36C1.56984 117.36 1.77985 117.57 1.77985 117.83V120.65C1.77985 120.91 1.56984 121.12 1.30984 121.12C1.04984 121.12 0.839844 120.91 0.839844 120.65ZM0.839844 115.01V112.19C0.839844 111.93 1.04984 111.72 1.30984 111.72C1.56984 111.72 1.77985 111.93 1.77985 112.19V115.01C1.77985 115.27 1.56984 115.48 1.30984 115.48C1.04984 115.48 0.839844 115.27 0.839844 115.01ZM0.839844 109.37V106.55C0.839844 106.29 1.04984 106.08 1.30984 106.08C1.56984 106.08 1.77985 106.29 1.77985 106.55V109.37C1.77985 109.63 1.56984 109.84 1.30984 109.84C1.04984 109.84 0.839844 109.63 0.839844 109.37ZM0.839844 103.73V100.91C0.839844 100.65 1.04984 100.44 1.30984 100.44C1.56984 100.44 1.77985 100.65 1.77985 100.91V103.73C1.77985 103.99 1.56984 104.2 1.30984 104.2C1.04984 104.2 0.839844 103.99 0.839844 103.73ZM0.839844 98.0901V95.2701C0.839844 95.0101 1.04984 94.8001 1.30984 94.8001C1.56984 94.8001 1.77985 95.0101 1.77985 95.2701V98.0901C1.77985 98.3501 1.56984 98.5601 1.30984 98.5601C1.04984 98.5601 0.839844 98.3501 0.839844 98.0901ZM0.839844 92.4501V89.6301C0.839844 89.3701 1.04984 89.1601 1.30984 89.1601C1.56984 89.1601 1.77985 89.3701 1.77985 89.6301V92.4501C1.77985 92.7101 1.56984 92.9201 1.30984 92.9201C1.04984 92.9201 0.839844 92.7101 0.839844 92.4501ZM0.839844 86.8101V83.9901C0.839844 83.7301 1.04984 83.5201 1.30984 83.5201C1.56984 83.5201 1.77985 83.7301 1.77985 83.9901V86.8101C1.77985 87.0701 1.56984 87.2801 1.30984 87.2801C1.04984 87.2801 0.839844 87.0701 0.839844 86.8101ZM0.839844 81.1701V78.3501C0.839844 78.0901 1.04984 77.8801 1.30984 77.8801C1.56984 77.8801 1.77985 78.0901 1.77985 78.3501V81.1701C1.77985 81.4301 1.56984 81.6401 1.30984 81.6401C1.04984 81.6401 0.839844 81.4301 0.839844 81.1701ZM0.839844 75.5301V72.7101C0.839844 72.4501 1.04984 72.2401 1.30984 72.2401C1.56984 72.2401 1.77985 72.4501 1.77985 72.7101V75.5301C1.77985 75.7901 1.56984 76.0001 1.30984 76.0001C1.04984 76.0001 0.839844 75.7901 0.839844 75.5301ZM0.839844 69.8901V67.0701C0.839844 66.8101 1.04984 66.6001 1.30984 66.6001C1.56984 66.6001 1.77985 66.8101 1.77985 67.0701V69.8901C1.77985 70.1501 1.56984 70.3601 1.30984 70.3601C1.04984 70.3601 0.839844 70.1501 0.839844 69.8901ZM0.839844 64.2501V61.4301C0.839844 61.1701 1.04984 60.9601 1.30984 60.9601C1.56984 60.9601 1.77985 61.1701 1.77985 61.4301V64.2501C1.77985 64.5101 1.56984 64.7201 1.30984 64.7201C1.04984 64.7201 0.839844 64.5101 0.839844 64.2501ZM0.839844 58.6101V55.7901C0.839844 55.5301 1.04984 55.3201 1.30984 55.3201C1.56984 55.3201 1.77985 55.5301 1.77985 55.7901V58.6101C1.77985 58.8701 1.56984 59.0801 1.30984 59.0801C1.04984 59.0801 0.839844 58.8701 0.839844 58.6101ZM0.839844 52.9701V50.1501C0.839844 49.8901 1.04984 49.6801 1.30984 49.6801C1.56984 49.6801 1.77985 49.8901 1.77985 50.1501V52.9701C1.77985 53.2301 1.56984 53.4401 1.30984 53.4401C1.04984 53.4401 0.839844 53.2301 0.839844 52.9701ZM0.839844 47.3301V44.5101C0.839844 44.2501 1.04984 44.0401 1.30984 44.0401C1.56984 44.0401 1.77985 44.2501 1.77985 44.5101V47.3301C1.77985 47.5901 1.56984 47.8001 1.30984 47.8001C1.04984 47.8001 0.839844 47.5901 0.839844 47.3301ZM0.839844 41.6901V38.8701C0.839844 38.6101 1.04984 38.4001 1.30984 38.4001C1.56984 38.4001 1.77985 38.6101 1.77985 38.8701V41.6901C1.77985 41.9501 1.56984 42.1601 1.30984 42.1601C1.04984 42.1601 0.839844 41.9501 0.839844 41.6901ZM0.839844 36.0501V33.2301C0.839844 32.9701 1.04984 32.7601 1.30984 32.7601C1.56984 32.7601 1.77985 32.9701 1.77985 33.2301V36.0501C1.77985 36.3101 1.56984 36.5201 1.30984 36.5201C1.04984 36.5201 0.839844 36.3101 0.839844 36.0501ZM0.839844 30.4101V27.5901C0.839844 27.3301 1.04984 27.1201 1.30984 27.1201C1.56984 27.1201 1.77985 27.3301 1.77985 27.5901V30.4101C1.77985 30.6701 1.56984 30.8801 1.30984 30.8801C1.04984 30.8801 0.839844 30.6701 0.839844 30.4101ZM0.839844 24.7701V21.9501C0.839844 21.6901 1.04984 21.4801 1.30984 21.4801C1.56984 21.4801 1.77985 21.6901 1.77985 21.9501V24.7701C1.77985 25.0301 1.56984 25.2401 1.30984 25.2401C1.04984 25.2401 0.839844 25.0301 0.839844 24.7701ZM0.839844 19.1301V16.3101C0.839844 16.0501 1.04984 15.8401 1.30984 15.8401C1.56984 15.8401 1.77985 16.0501 1.77985 16.3101V19.1301C1.77985 19.3901 1.56984 19.6001 1.30984 19.6001C1.04984 19.6001 0.839844 19.3901 0.839844 19.1301ZM0.839844 13.4901V10.6701C0.839844 10.4101 1.04984 10.2001 1.30984 10.2001C1.56984 10.2001 1.77985 10.4101 1.77985 10.6701V13.4901C1.77985 13.7501 1.56984 13.9601 1.30984 13.9601C1.04984 13.9601 0.839844 13.7501 0.839844 13.4901ZM0.839844 7.85006V5.03006C0.839844 4.77006 1.04984 4.56006 1.30984 4.56006C1.56984 4.56006 1.77985 4.77006 1.77985 5.03006V7.85006C1.77985 8.11006 1.56984 8.32006 1.30984 8.32006C1.04984 8.32006 0.839844 8.11006 0.839844 7.85006Z" fill="#470F4C"/>
<path d="M68.7202 55.8799C69.6757 55.8799 70.4503 55.1054 70.4503 54.1499C70.4503 53.1945 69.6757 52.4199 68.7202 52.4199C67.7648 52.4199 66.9902 53.1945 66.9902 54.1499C66.9902 55.1054 67.7648 55.8799 68.7202 55.8799Z" fill="#470F4C"/>
<path d="M66.5195 54.1497C66.5195 52.9397 67.5095 51.9497 68.7195 51.9497C69.9295 51.9497 70.9196 52.9397 70.9196 54.1497C70.9196 55.3597 69.9295 56.3497 68.7195 56.3497C67.5095 56.3497 66.5195 55.3597 66.5195 54.1497ZM67.4595 54.1497C67.4595 54.8397 68.0195 55.3997 68.7095 55.3997C69.3995 55.3997 69.9595 54.8397 69.9595 54.1497C69.9595 53.4597 69.3995 52.8997 68.7095 52.8997C68.0195 52.8997 67.4595 53.4597 67.4595 54.1497Z" fill="#470F4C"/>
<path d="M54.3894 107.95C57.7894 107.95 60.8194 107.41 63.3594 106.69C71.3294 104.41 76.1894 99.9499 76.3994 99.7599C76.4994 99.6699 76.5494 99.5499 76.5494 99.4099V76.8299C76.5494 76.5699 76.3394 76.3599 76.0794 76.3599C75.8194 76.3599 75.6094 76.5699 75.6094 76.8299V99.1999C73.7494 100.8 55.1594 115.87 32.5494 99.1799V79.0899C32.5494 78.8299 32.3394 78.6199 32.0794 78.6199C31.8194 78.6199 31.6094 78.8299 31.6094 79.0899V99.4199C31.6094 99.5699 31.6794 99.7099 31.7994 99.7999C40.1594 106.03 47.9594 107.96 54.4094 107.96L54.3894 107.95Z" fill="#470F4C"/>
<path d="M53.5003 92.4998C66.1903 92.4998 72.8003 85.7498 76.0703 77.0898C76.0503 80.7098 76.0003 90.0898 76.0003 90.2798C76.0003 90.2798 46.3503 105.11 32.0703 80.6798V78.5298C35.5003 86.5498 41.9503 92.4998 53.5003 92.4998Z" fill="#470F4C"/>
<path d="M31.6596 80.91C31.6196 80.84 31.5996 80.75 31.5996 80.67V78.52C31.5996 78.3 31.7596 78.1 31.9796 78.06C32.2096 78.01 32.4196 78.13 32.5096 78.34C36.3896 87.42 43.4496 92.03 53.4996 92.03C64.3996 92.03 71.8496 86.95 75.6296 76.92C75.7096 76.71 75.9396 76.58 76.1596 76.62C76.3896 76.66 76.5496 76.86 76.5496 77.09C76.5296 80.71 76.4796 90.09 76.4796 90.27C76.4796 90.45 76.3796 90.61 76.2196 90.69C76.0596 90.77 67.1196 95.14 56.6896 95.13C47.9696 95.13 38.1996 92.08 31.6696 80.91H31.6596ZM75.5796 79.46C71.4196 88.43 63.9996 92.97 53.4896 92.97C49.4596 92.97 45.8996 92.26 42.7996 90.84C56.3696 98.34 73.2296 91.03 75.5196 89.97C75.5196 88.64 75.5596 83.23 75.5796 79.46Z" fill="#470F4C"/>
<path d="M27.9295 65.81C28.3195 65.81 28.6995 65.77 29.0795 65.69C29.3395 65.63 29.3595 65.42 29.3095 65.17C29.2595 64.92 29.1395 64.71 28.8795 64.77C28.5695 64.84 28.2495 64.87 27.9295 64.87C25.3395 64.87 23.2296 62.65 23.2296 59.92C23.2296 57.19 25.3395 54.97 27.9295 54.97C28.1095 54.97 28.2796 54.98 28.4496 55C28.7096 55.03 28.9395 54.84 28.9695 54.58C28.9995 54.32 28.8095 54.09 28.5495 54.06C28.3395 54.04 28.1296 54.02 27.9196 54.02C24.8096 54.02 22.2695 56.66 22.2695 59.91C22.2695 63.16 24.7996 65.8 27.9196 65.8L27.9295 65.81Z" fill="#470F4C"/>
<path d="M28.5002 62.9701C28.7602 62.9701 28.9702 62.7601 28.9702 62.5001C28.9702 62.2401 28.7602 62.0301 28.5002 62.0301C27.0902 62.0301 25.9402 61.0901 25.9402 59.9201C25.9402 58.7501 27.0902 57.8101 28.5002 57.8101C28.7602 57.8101 28.9702 57.6001 28.9702 57.3401C28.9702 57.0801 28.7602 56.8701 28.5002 56.8701C26.5702 56.8701 24.9902 58.2401 24.9902 59.9201C24.9902 61.6001 26.5602 62.9701 28.5002 62.9701Z" fill="#470F4C"/>
<path d="M79.7394 65.81C79.3494 65.81 78.9694 65.77 78.5894 65.69C78.3294 65.63 78.1694 65.38 78.2294 65.13C78.2794 64.88 78.5394 64.71 78.7894 64.77C79.0994 64.84 79.4194 64.87 79.7394 64.87C82.3294 64.87 84.4394 62.65 84.4394 59.92C84.4394 57.19 82.3294 54.97 79.7394 54.97C79.5594 54.97 79.3894 54.98 79.2194 55C78.9594 55.03 78.7294 54.84 78.6994 54.58C78.6694 54.32 78.8594 54.09 79.1194 54.06C79.3294 54.04 79.5394 54.02 79.7494 54.02C82.8594 54.02 85.3994 56.66 85.3994 59.91C85.3994 63.16 82.8694 65.8 79.7494 65.8L79.7394 65.81Z" fill="#470F4C"/>
<path d="M79.1595 62.9701C78.8995 62.9701 78.6895 62.7601 78.6895 62.5001C78.6895 62.2401 78.8995 62.0301 79.1595 62.0301C80.5695 62.0301 81.7195 61.0901 81.7195 59.9201C81.7195 58.7501 80.5695 57.8101 79.1595 57.8101C78.8995 57.8101 78.6895 57.6001 78.6895 57.3401C78.6895 57.0801 78.8995 56.8701 79.1595 56.8701C81.0895 56.8701 82.6695 58.2401 82.6695 59.9201C82.6695 61.6001 81.0995 62.9701 79.1595 62.9701Z" fill="#470F4C"/>
<path d="M80.219 66.5199C80.219 65.9199 80.259 65.4199 80.279 65.1999C80.299 64.9399 80.539 64.7499 80.789 64.7699C81.049 64.7899 81.229 65.0199 81.219 65.2799C81.089 66.6299 81.169 68.8099 81.759 69.1999C81.889 69.2799 82.079 69.2499 82.349 69.0999C82.799 68.8499 83.059 68.5199 83.139 68.1099C83.319 67.1699 82.439 65.6899 82.119 65.2899C81.959 65.0899 81.989 64.7899 82.189 64.6299C82.389 64.4699 82.689 64.4999 82.849 64.6999C82.909 64.7699 84.349 66.7199 84.059 68.2799C83.929 68.9699 83.509 69.5299 82.809 69.9199C82.069 70.3399 81.549 70.1899 81.239 69.9899C80.379 69.4299 80.209 67.7499 80.209 66.5099L80.219 66.5199Z" fill="#470F4C"/>
<path d="M73.1499 48.8801C73.2899 48.8801 73.4199 48.8201 73.5199 48.7101C73.6799 48.5101 73.6499 48.2101 73.4499 48.0501C73.3199 47.9401 70.1699 45.4201 64.3699 44.2601C64.1299 44.2101 63.8699 44.3701 63.8099 44.6301C63.7599 44.8901 63.9199 45.1301 64.1799 45.1901C69.7299 46.3001 72.8199 48.7701 72.8499 48.7901C72.9399 48.8601 73.0399 48.9001 73.1499 48.9001V48.8801Z" fill="#470F4C"/>
<path d="M38.7808 55.8799C39.7362 55.8799 40.5108 55.1054 40.5108 54.1499C40.5108 53.1945 39.7362 52.4199 38.7808 52.4199C37.8253 52.4199 37.0508 53.1945 37.0508 54.1499C37.0508 55.1054 37.8253 55.8799 38.7808 55.8799Z" fill="#470F4C"/>
<path d="M36.5898 54.1497C36.5898 52.9397 37.5799 51.9497 38.7899 51.9497C39.9999 51.9497 40.9898 52.9397 40.9898 54.1497C40.9898 55.3597 39.9999 56.3497 38.7899 56.3497C37.5799 56.3497 36.5898 55.3597 36.5898 54.1497ZM37.5298 54.1497C37.5298 54.8397 38.0898 55.3997 38.7798 55.3997C39.4698 55.3997 40.0298 54.8397 40.0298 54.1497C40.0298 53.4597 39.4698 52.8997 38.7798 52.8997C38.0898 52.8997 37.5298 53.4597 37.5298 54.1497Z" fill="#470F4C"/>
<path d="M34.3496 48.8801C34.4596 48.8801 34.5595 48.8501 34.6495 48.7701C34.6795 48.7501 37.7596 46.2801 43.3196 45.1701C43.5796 45.1201 43.7396 44.8701 43.6896 44.6101C43.6396 44.3501 43.3796 44.1901 43.1296 44.2401C37.3296 45.4001 34.1795 47.9301 34.0495 48.0301C33.8495 48.1901 33.8196 48.4901 33.9796 48.6901C34.0696 48.8001 34.2096 48.8601 34.3496 48.8601V48.8801Z" fill="#470F4C"/>
<path d="M35.9391 85.7099C40.1591 90.5299 46.0691 92.9699 53.4991 92.9699C61.6491 92.9699 67.9991 90.1999 72.3691 84.7299C78.5491 76.9899 79.6091 65.1199 79.3991 56.5299C79.1891 47.6599 77.6291 40.3599 77.4791 39.6799C77.4491 37.7799 76.0791 35.2099 74.9591 33.4199C74.9591 33.4199 70.0291 23.6899 54.1691 23.6899C54.0291 23.6899 53.8991 23.6899 53.7491 23.6899C38.2891 23.8499 32.8191 33.8599 32.7691 33.9599C32.7191 34.0499 32.4191 34.5299 32.3591 34.6299C31.2291 36.4999 29.9991 39.1499 29.4291 42.7099L29.0491 43.9699C27.5891 55.0199 26.5691 75.0199 35.9391 85.7099ZM29.9691 44.1699L30.3391 42.9599C30.3391 42.9599 30.3491 42.9199 30.3491 42.8999C30.9191 39.2899 32.5391 36.2099 33.6391 34.4399C33.6891 34.3399 38.9191 24.8499 53.7491 24.6999C53.8791 24.6999 54.0091 24.6999 54.1391 24.6999C65.8991 24.6999 71.3691 30.1099 73.2591 32.6099C74.2791 34.0799 76.5091 37.5499 76.5091 39.7399C76.5091 39.7799 76.5091 39.8099 76.5191 39.8399C76.5391 39.9099 78.2091 47.3999 78.4291 56.5699C78.6291 64.9999 77.6091 76.6199 71.5991 84.1399C67.4191 89.3699 61.3191 92.0199 53.4691 92.0199C46.3291 92.0199 40.6591 89.6899 36.6191 85.0799C27.4891 74.6699 28.5091 54.9699 29.9391 44.1599L29.9691 44.1699Z" fill="#470F4C"/>
<path d="M55.9395 68.8398C56.1895 68.8398 56.3995 68.6398 56.4095 68.3798C56.4095 68.1198 56.2195 67.8998 55.9495 67.8898C53.6895 67.8098 50.2895 67.3898 49.4295 66.7098C49.3295 65.4698 48.7395 57.8098 49.3795 51.5098C49.4095 51.2498 49.2195 51.0198 48.9595 50.9898C48.6995 50.9698 48.4695 51.1498 48.4395 51.4098C47.7295 58.3398 48.4895 66.8798 48.4995 66.9598C48.4995 67.0598 48.5495 67.1498 48.6095 67.2298C49.7595 68.5498 54.8895 68.7998 55.8995 68.8298C55.8995 68.8298 55.9095 68.8298 55.9195 68.8298L55.9395 68.8398Z" fill="#470F4C"/>
<path d="M76.2306 96.6099C76.2306 96.6099 74.4406 105.37 54.0706 105.37C33.7006 105.37 32.0706 96.6099 32.0706 96.6099C32.0706 96.6099 1.31055 99.2199 1.31055 130.57H28.1906C28.1906 130.57 27.7806 124.47 30.2206 123.17C30.2206 123.17 41.5406 124.3 51.2906 122.91C61.0406 121.52 81.5905 123.43 81.5905 123.43C81.5905 123.43 82.7205 128.31 82.3705 130.57H109.971C109.971 130.57 111.401 96.6099 76.2206 96.6099H76.2306Z" fill="#470F4C"/>
<path d="M110.46 131.07H81.8003L81.8903 130.49C82.1703 128.69 81.4403 125.04 81.1903 123.89C78.4003 123.64 60.2403 122.13 51.3703 123.4C42.3103 124.69 31.7803 123.81 30.3403 123.68C28.6903 124.76 28.5903 128.97 28.6903 130.54L28.7303 131.07H0.820312V130.57C0.820312 99.1298 31.7203 96.1398 32.0303 96.1098L32.4803 96.0698L32.5603 96.5198C32.5803 96.5998 34.4403 104.87 54.0703 104.87C73.7003 104.87 75.7303 96.5898 75.7403 96.5098L75.8203 96.1198H76.2203C86.9403 96.1198 95.3803 99.2498 101.31 105.42C110.99 115.52 110.48 130.44 110.47 130.59L110.45 131.07H110.46ZM82.9303 130.07H109.49C109.49 127.47 109.02 114.88 100.6 106.1C94.9403 100.2 86.8803 97.1798 76.6203 97.1098C76.0003 98.8998 72.3903 105.86 54.0803 105.86C35.7703 105.86 32.3603 99.0198 31.7103 97.1498C28.1203 97.6098 2.13031 101.95 1.82031 130.06H27.6703C27.6203 128.43 27.7103 123.94 29.9903 122.72L30.1203 122.65L30.2703 122.67C30.3803 122.68 41.6403 123.78 51.2203 122.41C60.9203 121.02 81.4303 122.91 81.6403 122.93L82.0003 122.96L82.0803 123.31C82.1203 123.5 83.0703 127.6 82.9303 130.06V130.07Z" fill="#470F4C"/>
<path d="M82.371 131.04H28.181C27.931 131.04 27.731 130.85 27.711 130.6C27.691 130.34 27.311 124.18 29.991 122.75C30.071 122.71 30.171 122.69 30.261 122.7C30.371 122.71 41.631 123.81 51.221 122.44C60.911 121.05 81.421 122.94 81.631 122.96C81.831 122.98 82.001 123.13 82.051 123.32C82.101 123.52 83.201 128.31 82.841 130.64C82.801 130.87 82.611 131.04 82.371 131.04ZM28.631 130.1H81.941C82.081 128.19 81.421 124.92 81.191 123.87C78.461 123.63 60.251 122.1 51.341 123.38C42.261 124.68 31.711 123.79 30.311 123.66C28.781 124.65 28.571 128.29 28.621 130.1H28.631Z" fill="#470F4C"/>
</svg>
