<svg width="111" height="132" viewBox="0 0 111 132" fill="none" xmlns="http://www.w3.org/2000/svg">
<path opacity="0.1" d="M109.628 130.05H1.93833C1.89833 128.68 1.87834 124.29 3.12834 119.38C4.49834 113.98 7.72834 106.81 15.3183 103.37C28.1183 97.5702 32.4083 96.3802 33.3283 96.1602C34.6483 97.3002 43.3183 104.33 55.7283 104.32C62.3983 104.32 70.1483 102.28 78.4083 96.1902C79.5883 96.4902 84.0483 97.8202 96.2683 103.36C103.858 106.8 107.088 113.96 108.458 119.37C109.698 124.28 109.688 128.67 109.648 130.04L109.628 130.05Z" fill="#470F4C"/>
<path d="M110.458 131H109.038C108.778 131 108.568 130.79 108.568 130.53C108.568 130.27 108.778 130.06 109.038 130.06H109.978V129.12C109.978 128.86 110.188 128.65 110.448 128.65C110.708 128.65 110.918 128.86 110.918 129.12V130.54C110.918 130.8 110.708 131.01 110.448 131.01L110.458 131Z" fill="#470F4C"/>
<path d="M106.189 131H103.329C103.069 131 102.859 130.79 102.859 130.53C102.859 130.27 103.069 130.06 103.329 130.06H106.189C106.449 130.06 106.659 130.27 106.659 130.53C106.659 130.79 106.449 131 106.189 131ZM100.469 131H97.6091C97.3491 131 97.1392 130.79 97.1392 130.53C97.1392 130.27 97.3491 130.06 97.6091 130.06H100.469C100.729 130.06 100.939 130.27 100.939 130.53C100.939 130.79 100.729 131 100.469 131ZM94.7491 131H91.8892C91.6292 131 91.4192 130.79 91.4192 130.53C91.4192 130.27 91.6292 130.06 91.8892 130.06H94.7491C95.0091 130.06 95.2191 130.27 95.2191 130.53C95.2191 130.79 95.0091 131 94.7491 131ZM89.0291 131H86.1692C85.9092 131 85.6992 130.79 85.6992 130.53C85.6992 130.27 85.9092 130.06 86.1692 130.06H89.0291C89.2891 130.06 89.4991 130.27 89.4991 130.53C89.4991 130.79 89.2891 131 89.0291 131ZM83.3091 131H80.4492C80.1892 131 79.9792 130.79 79.9792 130.53C79.9792 130.27 80.1892 130.06 80.4492 130.06H83.3091C83.5691 130.06 83.7791 130.27 83.7791 130.53C83.7791 130.79 83.5691 131 83.3091 131ZM77.5891 131H74.7292C74.4692 131 74.2592 130.79 74.2592 130.53C74.2592 130.27 74.4692 130.06 74.7292 130.06H77.5891C77.8491 130.06 78.0591 130.27 78.0591 130.53C78.0591 130.79 77.8491 131 77.5891 131ZM71.8691 131H69.0092C68.7492 131 68.5392 130.79 68.5392 130.53C68.5392 130.27 68.7492 130.06 69.0092 130.06H71.8691C72.1291 130.06 72.3391 130.27 72.3391 130.53C72.3391 130.79 72.1291 131 71.8691 131ZM66.1491 131H63.2892C63.0292 131 62.8192 130.79 62.8192 130.53C62.8192 130.27 63.0292 130.06 63.2892 130.06H66.1491C66.4091 130.06 66.6191 130.27 66.6191 130.53C66.6191 130.79 66.4091 131 66.1491 131ZM60.4291 131H57.5692C57.3092 131 57.0992 130.79 57.0992 130.53C57.0992 130.27 57.3092 130.06 57.5692 130.06H60.4291C60.6891 130.06 60.8991 130.27 60.8991 130.53C60.8991 130.79 60.6891 131 60.4291 131ZM54.7091 131H51.8492C51.5892 131 51.3792 130.79 51.3792 130.53C51.3792 130.27 51.5892 130.06 51.8492 130.06H54.7091C54.9691 130.06 55.1791 130.27 55.1791 130.53C55.1791 130.79 54.9691 131 54.7091 131ZM48.9891 131H46.1292C45.8692 131 45.6591 130.79 45.6591 130.53C45.6591 130.27 45.8692 130.06 46.1292 130.06H48.9891C49.2491 130.06 49.4591 130.27 49.4591 130.53C49.4591 130.79 49.2491 131 48.9891 131ZM43.2691 131H40.4091C40.1492 131 39.9391 130.79 39.9391 130.53C39.9391 130.27 40.1492 130.06 40.4091 130.06H43.2691C43.5291 130.06 43.7391 130.27 43.7391 130.53C43.7391 130.79 43.5291 131 43.2691 131ZM37.5491 131H34.6891C34.4291 131 34.2191 130.79 34.2191 130.53C34.2191 130.27 34.4291 130.06 34.6891 130.06H37.5491C37.8091 130.06 38.0191 130.27 38.0191 130.53C38.0191 130.79 37.8091 131 37.5491 131ZM31.8291 131H28.9691C28.7091 131 28.4991 130.79 28.4991 130.53C28.4991 130.27 28.7091 130.06 28.9691 130.06H31.8291C32.0891 130.06 32.2991 130.27 32.2991 130.53C32.2991 130.79 32.0891 131 31.8291 131ZM26.1091 131H23.2491C22.9891 131 22.7791 130.79 22.7791 130.53C22.7791 130.27 22.9891 130.06 23.2491 130.06H26.1091C26.3691 130.06 26.5791 130.27 26.5791 130.53C26.5791 130.79 26.3691 131 26.1091 131ZM20.3891 131H17.5291C17.2691 131 17.0591 130.79 17.0591 130.53C17.0591 130.27 17.2691 130.06 17.5291 130.06H20.3891C20.6491 130.06 20.8591 130.27 20.8591 130.53C20.8591 130.79 20.6491 131 20.3891 131ZM14.6691 131H11.8091C11.5491 131 11.3391 130.79 11.3391 130.53C11.3391 130.27 11.5491 130.06 11.8091 130.06H14.6691C14.9291 130.06 15.1391 130.27 15.1391 130.53C15.1391 130.79 14.9291 131 14.6691 131ZM8.94914 131H6.08914C5.82914 131 5.61914 130.79 5.61914 130.53C5.61914 130.27 5.82914 130.06 6.08914 130.06H8.94914C9.20914 130.06 9.41914 130.27 9.41914 130.53C9.41914 130.79 9.20914 131 8.94914 131Z" fill="#470F4C"/>
<path d="M3.20836 131H1.78835C1.52835 131 1.31836 130.79 1.31836 130.53V129.11C1.31836 128.85 1.52835 128.64 1.78835 128.64C2.04835 128.64 2.25835 128.85 2.25835 129.11V130.05H3.19835C3.45835 130.05 3.66835 130.26 3.66835 130.52C3.66835 130.78 3.45835 130.99 3.19835 130.99L3.20836 131Z" fill="#470F4C"/>
<path d="M1.78835 126.76C1.52835 126.76 1.31836 126.55 1.31836 126.29V123.47C1.31836 123.21 1.52835 123 1.78835 123C2.04835 123 2.25835 123.21 2.25835 123.47V126.29C2.25835 126.55 2.04835 126.76 1.78835 126.76ZM1.78835 121.12C1.52835 121.12 1.31836 120.91 1.31836 120.65V117.83C1.31836 117.57 1.52835 117.36 1.78835 117.36C2.04835 117.36 2.25835 117.57 2.25835 117.83V120.65C2.25835 120.91 2.04835 121.12 1.78835 121.12ZM1.78835 115.48C1.52835 115.48 1.31836 115.27 1.31836 115.01V112.19C1.31836 111.93 1.52835 111.72 1.78835 111.72C2.04835 111.72 2.25835 111.93 2.25835 112.19V115.01C2.25835 115.27 2.04835 115.48 1.78835 115.48ZM1.78835 109.84C1.52835 109.84 1.31836 109.63 1.31836 109.37V106.55C1.31836 106.29 1.52835 106.08 1.78835 106.08C2.04835 106.08 2.25835 106.29 2.25835 106.55V109.37C2.25835 109.63 2.04835 109.84 1.78835 109.84ZM1.78835 104.2C1.52835 104.2 1.31836 103.99 1.31836 103.73V100.91C1.31836 100.65 1.52835 100.44 1.78835 100.44C2.04835 100.44 2.25835 100.65 2.25835 100.91V103.73C2.25835 103.99 2.04835 104.2 1.78835 104.2ZM1.78835 98.5601C1.52835 98.5601 1.31836 98.3501 1.31836 98.0901V95.2701C1.31836 95.0101 1.52835 94.8001 1.78835 94.8001C2.04835 94.8001 2.25835 95.0101 2.25835 95.2701V98.0901C2.25835 98.3501 2.04835 98.5601 1.78835 98.5601ZM1.78835 92.9201C1.52835 92.9201 1.31836 92.7101 1.31836 92.4501V89.6301C1.31836 89.3701 1.52835 89.1601 1.78835 89.1601C2.04835 89.1601 2.25835 89.3701 2.25835 89.6301V92.4501C2.25835 92.7101 2.04835 92.9201 1.78835 92.9201ZM1.78835 87.2801C1.52835 87.2801 1.31836 87.0701 1.31836 86.8101V83.9901C1.31836 83.7301 1.52835 83.5201 1.78835 83.5201C2.04835 83.5201 2.25835 83.7301 2.25835 83.9901V86.8101C2.25835 87.0701 2.04835 87.2801 1.78835 87.2801ZM1.78835 81.6401C1.52835 81.6401 1.31836 81.4301 1.31836 81.1701V78.3501C1.31836 78.0901 1.52835 77.8801 1.78835 77.8801C2.04835 77.8801 2.25835 78.0901 2.25835 78.3501V81.1701C2.25835 81.4301 2.04835 81.6401 1.78835 81.6401ZM1.78835 76.0001C1.52835 76.0001 1.31836 75.7901 1.31836 75.5301V72.7101C1.31836 72.4501 1.52835 72.2401 1.78835 72.2401C2.04835 72.2401 2.25835 72.4501 2.25835 72.7101V75.5301C2.25835 75.7901 2.04835 76.0001 1.78835 76.0001ZM1.78835 70.3601C1.52835 70.3601 1.31836 70.1501 1.31836 69.8901V67.0701C1.31836 66.8101 1.52835 66.6001 1.78835 66.6001C2.04835 66.6001 2.25835 66.8101 2.25835 67.0701V69.8901C2.25835 70.1501 2.04835 70.3601 1.78835 70.3601ZM1.78835 64.7201C1.52835 64.7201 1.31836 64.5101 1.31836 64.2501V61.4301C1.31836 61.1701 1.52835 60.9601 1.78835 60.9601C2.04835 60.9601 2.25835 61.1701 2.25835 61.4301V64.2501C2.25835 64.5101 2.04835 64.7201 1.78835 64.7201ZM1.78835 59.0801C1.52835 59.0801 1.31836 58.8701 1.31836 58.6101V55.7901C1.31836 55.5301 1.52835 55.3201 1.78835 55.3201C2.04835 55.3201 2.25835 55.5301 2.25835 55.7901V58.6101C2.25835 58.8701 2.04835 59.0801 1.78835 59.0801ZM1.78835 53.4401C1.52835 53.4401 1.31836 53.2301 1.31836 52.9701V50.1501C1.31836 49.8901 1.52835 49.6801 1.78835 49.6801C2.04835 49.6801 2.25835 49.8901 2.25835 50.1501V52.9701C2.25835 53.2301 2.04835 53.4401 1.78835 53.4401ZM1.78835 47.8001C1.52835 47.8001 1.31836 47.5901 1.31836 47.3301V44.5101C1.31836 44.2501 1.52835 44.0401 1.78835 44.0401C2.04835 44.0401 2.25835 44.2501 2.25835 44.5101V47.3301C2.25835 47.5901 2.04835 47.8001 1.78835 47.8001ZM1.78835 42.1601C1.52835 42.1601 1.31836 41.9501 1.31836 41.6901V38.8701C1.31836 38.6101 1.52835 38.4001 1.78835 38.4001C2.04835 38.4001 2.25835 38.6101 2.25835 38.8701V41.6901C2.25835 41.9501 2.04835 42.1601 1.78835 42.1601ZM1.78835 36.5201C1.52835 36.5201 1.31836 36.3101 1.31836 36.0501V33.2301C1.31836 32.9701 1.52835 32.7601 1.78835 32.7601C2.04835 32.7601 2.25835 32.9701 2.25835 33.2301V36.0501C2.25835 36.3101 2.04835 36.5201 1.78835 36.5201ZM1.78835 30.8801C1.52835 30.8801 1.31836 30.6701 1.31836 30.4101V27.5901C1.31836 27.3301 1.52835 27.1201 1.78835 27.1201C2.04835 27.1201 2.25835 27.3301 2.25835 27.5901V30.4101C2.25835 30.6701 2.04835 30.8801 1.78835 30.8801ZM1.78835 25.2401C1.52835 25.2401 1.31836 25.0301 1.31836 24.7701V21.9501C1.31836 21.6901 1.52835 21.4801 1.78835 21.4801C2.04835 21.4801 2.25835 21.6901 2.25835 21.9501V24.7701C2.25835 25.0301 2.04835 25.2401 1.78835 25.2401ZM1.78835 19.6001C1.52835 19.6001 1.31836 19.3901 1.31836 19.1301V16.3101C1.31836 16.0501 1.52835 15.8401 1.78835 15.8401C2.04835 15.8401 2.25835 16.0501 2.25835 16.3101V19.1301C2.25835 19.3901 2.04835 19.6001 1.78835 19.6001ZM1.78835 13.9601C1.52835 13.9601 1.31836 13.7501 1.31836 13.4901V10.6701C1.31836 10.4101 1.52835 10.2001 1.78835 10.2001C2.04835 10.2001 2.25835 10.4101 2.25835 10.6701V13.4901C2.25835 13.7501 2.04835 13.9601 1.78835 13.9601ZM1.78835 8.32006C1.52835 8.32006 1.31836 8.11006 1.31836 7.85006V5.03006C1.31836 4.77006 1.52835 4.56006 1.78835 4.56006C2.04835 4.56006 2.25835 4.77006 2.25835 5.03006V7.85006C2.25835 8.11006 2.04835 8.32006 1.78835 8.32006Z" fill="#470F4C"/>
<path d="M1.78835 2.64003C1.52835 2.64003 1.31836 2.43003 1.31836 2.17003V0.750029C1.31836 0.490029 1.52835 0.280029 1.78835 0.280029H3.20836C3.46836 0.280029 3.67834 0.490029 3.67834 0.750029C3.67834 1.01003 3.46836 1.22003 3.20836 1.22003H2.26836V2.16003C2.26836 2.42003 2.05836 2.63003 1.79836 2.63003L1.78835 2.64003Z" fill="#470F4C"/>
<path d="M106.189 1.22003H103.329C103.069 1.22003 102.859 1.01003 102.859 0.750029C102.859 0.490029 103.069 0.280029 103.329 0.280029H106.189C106.449 0.280029 106.659 0.490029 106.659 0.750029C106.659 1.01003 106.449 1.22003 106.189 1.22003ZM100.469 1.22003H97.6091C97.3491 1.22003 97.1392 1.01003 97.1392 0.750029C97.1392 0.490029 97.3491 0.280029 97.6091 0.280029H100.469C100.729 0.280029 100.939 0.490029 100.939 0.750029C100.939 1.01003 100.729 1.22003 100.469 1.22003ZM94.7491 1.22003H91.8892C91.6292 1.22003 91.4192 1.01003 91.4192 0.750029C91.4192 0.490029 91.6292 0.280029 91.8892 0.280029H94.7491C95.0091 0.280029 95.2191 0.490029 95.2191 0.750029C95.2191 1.01003 95.0091 1.22003 94.7491 1.22003ZM89.0291 1.22003H86.1692C85.9092 1.22003 85.6992 1.01003 85.6992 0.750029C85.6992 0.490029 85.9092 0.280029 86.1692 0.280029H89.0291C89.2891 0.280029 89.4991 0.490029 89.4991 0.750029C89.4991 1.01003 89.2891 1.22003 89.0291 1.22003ZM83.3091 1.22003H80.4492C80.1892 1.22003 79.9792 1.01003 79.9792 0.750029C79.9792 0.490029 80.1892 0.280029 80.4492 0.280029H83.3091C83.5691 0.280029 83.7791 0.490029 83.7791 0.750029C83.7791 1.01003 83.5691 1.22003 83.3091 1.22003ZM77.5891 1.22003H74.7292C74.4692 1.22003 74.2592 1.01003 74.2592 0.750029C74.2592 0.490029 74.4692 0.280029 74.7292 0.280029H77.5891C77.8491 0.280029 78.0591 0.490029 78.0591 0.750029C78.0591 1.01003 77.8491 1.22003 77.5891 1.22003ZM71.8691 1.22003H69.0092C68.7492 1.22003 68.5392 1.01003 68.5392 0.750029C68.5392 0.490029 68.7492 0.280029 69.0092 0.280029H71.8691C72.1291 0.280029 72.3391 0.490029 72.3391 0.750029C72.3391 1.01003 72.1291 1.22003 71.8691 1.22003ZM66.1491 1.22003H63.2892C63.0292 1.22003 62.8192 1.01003 62.8192 0.750029C62.8192 0.490029 63.0292 0.280029 63.2892 0.280029H66.1491C66.4091 0.280029 66.6191 0.490029 66.6191 0.750029C66.6191 1.01003 66.4091 1.22003 66.1491 1.22003ZM60.4291 1.22003H57.5692C57.3092 1.22003 57.0992 1.01003 57.0992 0.750029C57.0992 0.490029 57.3092 0.280029 57.5692 0.280029H60.4291C60.6891 0.280029 60.8991 0.490029 60.8991 0.750029C60.8991 1.01003 60.6891 1.22003 60.4291 1.22003ZM54.7091 1.22003H51.8492C51.5892 1.22003 51.3792 1.01003 51.3792 0.750029C51.3792 0.490029 51.5892 0.280029 51.8492 0.280029H54.7091C54.9691 0.280029 55.1791 0.490029 55.1791 0.750029C55.1791 1.01003 54.9691 1.22003 54.7091 1.22003ZM48.9891 1.22003H46.1292C45.8692 1.22003 45.6591 1.01003 45.6591 0.750029C45.6591 0.490029 45.8692 0.280029 46.1292 0.280029H48.9891C49.2491 0.280029 49.4591 0.490029 49.4591 0.750029C49.4591 1.01003 49.2491 1.22003 48.9891 1.22003ZM43.2691 1.22003H40.4091C40.1492 1.22003 39.9391 1.01003 39.9391 0.750029C39.9391 0.490029 40.1492 0.280029 40.4091 0.280029H43.2691C43.5291 0.280029 43.7391 0.490029 43.7391 0.750029C43.7391 1.01003 43.5291 1.22003 43.2691 1.22003ZM37.5491 1.22003H34.6891C34.4291 1.22003 34.2191 1.01003 34.2191 0.750029C34.2191 0.490029 34.4291 0.280029 34.6891 0.280029H37.5491C37.8091 0.280029 38.0191 0.490029 38.0191 0.750029C38.0191 1.01003 37.8091 1.22003 37.5491 1.22003ZM31.8291 1.22003H28.9691C28.7091 1.22003 28.4991 1.01003 28.4991 0.750029C28.4991 0.490029 28.7091 0.280029 28.9691 0.280029H31.8291C32.0891 0.280029 32.2991 0.490029 32.2991 0.750029C32.2991 1.01003 32.0891 1.22003 31.8291 1.22003ZM26.1091 1.22003H23.2491C22.9891 1.22003 22.7791 1.01003 22.7791 0.750029C22.7791 0.490029 22.9891 0.280029 23.2491 0.280029H26.1091C26.3691 0.280029 26.5791 0.490029 26.5791 0.750029C26.5791 1.01003 26.3691 1.22003 26.1091 1.22003ZM20.3891 1.22003H17.5291C17.2691 1.22003 17.0591 1.01003 17.0591 0.750029C17.0591 0.490029 17.2691 0.280029 17.5291 0.280029H20.3891C20.6491 0.280029 20.8591 0.490029 20.8591 0.750029C20.8591 1.01003 20.6491 1.22003 20.3891 1.22003ZM14.6691 1.22003H11.8091C11.5491 1.22003 11.3391 1.01003 11.3391 0.750029C11.3391 0.490029 11.5491 0.280029 11.8091 0.280029H14.6691C14.9291 0.280029 15.1391 0.490029 15.1391 0.750029C15.1391 1.01003 14.9291 1.22003 14.6691 1.22003ZM8.94914 1.22003H6.08914C5.82914 1.22003 5.61914 1.01003 5.61914 0.750029C5.61914 0.490029 5.82914 0.280029 6.08914 0.280029H8.94914C9.20914 0.280029 9.41914 0.490029 9.41914 0.750029C9.41914 1.01003 9.20914 1.22003 8.94914 1.22003Z" fill="#470F4C"/>
<path d="M110.458 2.64004C110.198 2.64004 109.988 2.43004 109.988 2.17004V1.23004H109.048C108.788 1.23004 108.578 1.02004 108.578 0.760039C108.578 0.500039 108.788 0.290039 109.048 0.290039H110.468C110.728 0.290039 110.938 0.500039 110.938 0.760039V2.18004C110.938 2.44004 110.728 2.65004 110.468 2.65004L110.458 2.64004Z" fill="#470F4C"/>
<path d="M110.458 126.76C110.198 126.76 109.988 126.55 109.988 126.29V123.47C109.988 123.21 110.198 123 110.458 123C110.718 123 110.928 123.21 110.928 123.47V126.29C110.928 126.55 110.718 126.76 110.458 126.76ZM110.458 121.12C110.198 121.12 109.988 120.91 109.988 120.65V117.83C109.988 117.57 110.198 117.36 110.458 117.36C110.718 117.36 110.928 117.57 110.928 117.83V120.65C110.928 120.91 110.718 121.12 110.458 121.12ZM110.458 115.48C110.198 115.48 109.988 115.27 109.988 115.01V112.19C109.988 111.93 110.198 111.72 110.458 111.72C110.718 111.72 110.928 111.93 110.928 112.19V115.01C110.928 115.27 110.718 115.48 110.458 115.48ZM110.458 109.84C110.198 109.84 109.988 109.63 109.988 109.37V106.55C109.988 106.29 110.198 106.08 110.458 106.08C110.718 106.08 110.928 106.29 110.928 106.55V109.37C110.928 109.63 110.718 109.84 110.458 109.84ZM110.458 104.2C110.198 104.2 109.988 103.99 109.988 103.73V100.91C109.988 100.65 110.198 100.44 110.458 100.44C110.718 100.44 110.928 100.65 110.928 100.91V103.73C110.928 103.99 110.718 104.2 110.458 104.2ZM110.458 98.5601C110.198 98.5601 109.988 98.3501 109.988 98.0901V95.2701C109.988 95.0101 110.198 94.8001 110.458 94.8001C110.718 94.8001 110.928 95.0101 110.928 95.2701V98.0901C110.928 98.3501 110.718 98.5601 110.458 98.5601ZM110.458 92.9201C110.198 92.9201 109.988 92.7101 109.988 92.4501V89.6301C109.988 89.3701 110.198 89.1601 110.458 89.1601C110.718 89.1601 110.928 89.3701 110.928 89.6301V92.4501C110.928 92.7101 110.718 92.9201 110.458 92.9201ZM110.458 87.2801C110.198 87.2801 109.988 87.0701 109.988 86.8101V83.9901C109.988 83.7301 110.198 83.5201 110.458 83.5201C110.718 83.5201 110.928 83.7301 110.928 83.9901V86.8101C110.928 87.0701 110.718 87.2801 110.458 87.2801ZM110.458 81.6401C110.198 81.6401 109.988 81.4301 109.988 81.1701V78.3501C109.988 78.0901 110.198 77.8801 110.458 77.8801C110.718 77.8801 110.928 78.0901 110.928 78.3501V81.1701C110.928 81.4301 110.718 81.6401 110.458 81.6401ZM110.458 76.0001C110.198 76.0001 109.988 75.7901 109.988 75.5301V72.7101C109.988 72.4501 110.198 72.2401 110.458 72.2401C110.718 72.2401 110.928 72.4501 110.928 72.7101V75.5301C110.928 75.7901 110.718 76.0001 110.458 76.0001ZM110.458 70.3601C110.198 70.3601 109.988 70.1501 109.988 69.8901V67.0701C109.988 66.8101 110.198 66.6001 110.458 66.6001C110.718 66.6001 110.928 66.8101 110.928 67.0701V69.8901C110.928 70.1501 110.718 70.3601 110.458 70.3601ZM110.458 64.7201C110.198 64.7201 109.988 64.5101 109.988 64.2501V61.4301C109.988 61.1701 110.198 60.9601 110.458 60.9601C110.718 60.9601 110.928 61.1701 110.928 61.4301V64.2501C110.928 64.5101 110.718 64.7201 110.458 64.7201ZM110.458 59.0801C110.198 59.0801 109.988 58.8701 109.988 58.6101V55.7901C109.988 55.5301 110.198 55.3201 110.458 55.3201C110.718 55.3201 110.928 55.5301 110.928 55.7901V58.6101C110.928 58.8701 110.718 59.0801 110.458 59.0801ZM110.458 53.4401C110.198 53.4401 109.988 53.2301 109.988 52.9701V50.1501C109.988 49.8901 110.198 49.6801 110.458 49.6801C110.718 49.6801 110.928 49.8901 110.928 50.1501V52.9701C110.928 53.2301 110.718 53.4401 110.458 53.4401ZM110.458 47.8001C110.198 47.8001 109.988 47.5901 109.988 47.3301V44.5101C109.988 44.2501 110.198 44.0401 110.458 44.0401C110.718 44.0401 110.928 44.2501 110.928 44.5101V47.3301C110.928 47.5901 110.718 47.8001 110.458 47.8001ZM110.458 42.1601C110.198 42.1601 109.988 41.9501 109.988 41.6901V38.8701C109.988 38.6101 110.198 38.4001 110.458 38.4001C110.718 38.4001 110.928 38.6101 110.928 38.8701V41.6901C110.928 41.9501 110.718 42.1601 110.458 42.1601ZM110.458 36.5201C110.198 36.5201 109.988 36.3101 109.988 36.0501V33.2301C109.988 32.9701 110.198 32.7601 110.458 32.7601C110.718 32.7601 110.928 32.9701 110.928 33.2301V36.0501C110.928 36.3101 110.718 36.5201 110.458 36.5201ZM110.458 30.8801C110.198 30.8801 109.988 30.6701 109.988 30.4101V27.5901C109.988 27.3301 110.198 27.1201 110.458 27.1201C110.718 27.1201 110.928 27.3301 110.928 27.5901V30.4101C110.928 30.6701 110.718 30.8801 110.458 30.8801ZM110.458 25.2401C110.198 25.2401 109.988 25.0301 109.988 24.7701V21.9501C109.988 21.6901 110.198 21.4801 110.458 21.4801C110.718 21.4801 110.928 21.6901 110.928 21.9501V24.7701C110.928 25.0301 110.718 25.2401 110.458 25.2401ZM110.458 19.6001C110.198 19.6001 109.988 19.3901 109.988 19.1301V16.3101C109.988 16.0501 110.198 15.8401 110.458 15.8401C110.718 15.8401 110.928 16.0501 110.928 16.3101V19.1301C110.928 19.3901 110.718 19.6001 110.458 19.6001ZM110.458 13.9601C110.198 13.9601 109.988 13.7501 109.988 13.4901V10.6701C109.988 10.4101 110.198 10.2001 110.458 10.2001C110.718 10.2001 110.928 10.4101 110.928 10.6701V13.4901C110.928 13.7501 110.718 13.9601 110.458 13.9601ZM110.458 8.32006C110.198 8.32006 109.988 8.11006 109.988 7.85006V5.03006C109.988 4.77006 110.198 4.56006 110.458 4.56006C110.718 4.56006 110.928 4.77006 110.928 5.03006V7.85006C110.928 8.11006 110.718 8.32006 110.458 8.32006Z" fill="#470F4C"/>
<path d="M45.5602 51.7102C46.4714 51.7102 47.2101 50.9714 47.2101 50.0602C47.2101 49.1489 46.4714 48.4102 45.5602 48.4102C44.6489 48.4102 43.9102 49.1489 43.9102 50.0602C43.9102 50.9714 44.6489 51.7102 45.5602 51.7102Z" fill="#470F4C"/>
<path d="M45.5594 52.1702C44.3894 52.1702 43.4395 51.2202 43.4395 50.0502C43.4395 48.8802 44.3894 47.9302 45.5594 47.9302C46.7294 47.9302 47.6794 48.8802 47.6794 50.0502C47.6794 51.2202 46.7294 52.1702 45.5594 52.1702ZM45.5594 48.8802C44.9094 48.8802 44.3895 49.4102 44.3895 50.0502C44.3895 50.6902 44.9194 51.2202 45.5594 51.2202C46.1994 51.2202 46.7295 50.6902 46.7295 50.0502C46.7295 49.4102 46.1994 48.8802 45.5594 48.8802Z" fill="#470F4C"/>
<path d="M70.2691 51.7102C71.1804 51.7102 71.9192 50.9714 71.9192 50.0602C71.9192 49.1489 71.1804 48.4102 70.2691 48.4102C69.3579 48.4102 68.6191 49.1489 68.6191 50.0602C68.6191 50.9714 69.3579 51.7102 70.2691 51.7102Z" fill="#470F4C"/>
<path d="M70.2684 52.1702C69.0984 52.1702 68.1484 51.2202 68.1484 50.0502C68.1484 48.8802 69.0984 47.9302 70.2684 47.9302C71.4384 47.9302 72.3885 48.8802 72.3885 50.0502C72.3885 51.2202 71.4384 52.1702 70.2684 52.1702ZM70.2684 48.8802C69.6184 48.8802 69.0984 49.4102 69.0984 50.0502C69.0984 50.6902 69.6284 51.2202 70.2684 51.2202C70.9084 51.2202 71.4384 50.6902 71.4384 50.0502C71.4384 49.4102 70.9084 48.8802 70.2684 48.8802Z" fill="#470F4C"/>
<path d="M56.4789 89.0802C48.1589 89.0802 41.6889 86.2502 37.2389 80.6802C30.9289 72.7802 29.8589 60.6802 30.0689 51.9202C30.2889 42.7702 31.9089 35.2602 32.0389 34.7102L32.5089 29.5702C32.5189 29.4502 32.5789 29.3402 32.6589 29.2602L37.3589 25.0302C37.4589 24.9402 37.5989 24.9002 37.7389 24.9102L79.5789 30.3202C79.7789 30.3502 79.9389 30.4902 79.9789 30.6802C79.9989 30.7602 81.9589 39.3102 82.3289 49.6802C82.6789 59.3002 81.7089 72.5002 75.0889 80.8302C70.7389 86.3002 64.4789 89.0802 56.4789 89.0802ZM33.4289 29.8402L32.9789 34.8302C32.9789 34.8302 32.9789 34.8702 32.9789 34.8902C32.9089 35.1902 26.2389 65.3702 37.9889 80.0902C42.2489 85.4302 48.4789 88.1402 56.4889 88.1402C64.4989 88.1402 70.1989 85.4902 74.3589 80.2502C86.0589 65.5302 79.8789 34.7002 79.1289 31.2102L37.8289 25.8702L33.4289 29.8302V29.8402Z" fill="#470F4C"/>
<path d="M55.7085 104.33C42.3185 104.33 33.2585 96.1301 33.1285 96.0001C33.0285 95.9101 32.9785 95.7901 32.9785 95.6501V72.6101C32.9785 72.3501 33.1885 72.1401 33.4485 72.1401C33.7085 72.1401 33.9185 72.3501 33.9185 72.6101V95.4301C35.7985 97.0501 54.7785 112.45 77.8685 95.4101V74.0201C77.8685 73.7601 78.0785 73.5501 78.3385 73.5501C78.5985 73.5501 78.8085 73.7601 78.8085 74.0201V95.6401C78.8085 95.7901 78.7385 95.9301 78.6185 96.0201C70.2685 102.24 62.4385 104.32 55.6985 104.32L55.7085 104.33Z" fill="#470F4C"/>
<path d="M56.4792 88.6104C43.5392 88.6104 36.7892 81.7304 33.4492 72.8804C33.4692 76.5704 33.5192 86.1404 33.5192 86.3304C33.5192 86.3304 63.7592 101.46 78.3392 76.5404L78.3192 74.3804C74.8192 82.5604 68.2592 88.6104 56.4792 88.6104Z" fill="#470F4C"/>
<path d="M53.2285 91.2902C42.5985 91.2902 33.4785 86.8402 33.3085 86.7602C33.1485 86.6802 33.0485 86.5202 33.0485 86.3402C33.0485 86.1502 32.9985 76.5802 32.9785 72.8902C32.9785 72.6602 33.1385 72.4602 33.3685 72.4202C33.5885 72.3802 33.8185 72.5002 33.8985 72.7202C37.7585 82.9502 45.3585 88.1402 56.4885 88.1402C66.7385 88.1402 73.9385 83.4502 77.8985 74.2002C77.9885 73.9902 78.1985 73.8802 78.4285 73.9202C78.6485 73.9602 78.8085 74.1602 78.8085 74.3802L78.8285 76.5402C78.8285 76.6202 78.8085 76.7102 78.7685 76.7802C72.1085 88.1702 62.1485 91.2902 53.2485 91.2902H53.2285ZM33.9885 86.0302C36.3185 87.1102 53.7085 94.6702 67.6085 86.8002C64.3985 88.3102 60.6885 89.0702 56.4785 89.0702C45.7485 89.0702 38.1785 84.4302 33.9385 75.2602C33.9585 79.1102 33.9885 84.6802 33.9985 86.0302H33.9885Z" fill="#470F4C"/>
<path d="M29.2889 41.8297C30.6289 41.8297 31.5389 42.0897 32.4489 42.9497C32.6389 34.5897 33.7789 24.5097 36.5789 19.7397C30.9689 21.6197 28.0489 32.1997 27.6289 42.1197C28.1489 41.9397 28.7089 41.8297 29.2889 41.8297Z" fill="#470F4C"/>
<path d="M32.4395 43.4199C32.3195 43.4199 32.1895 43.3699 32.0995 43.2899C31.3395 42.5699 30.5695 42.3099 29.2795 42.3099C28.7795 42.3099 28.2695 42.3999 27.7895 42.5699C27.6395 42.6199 27.4695 42.5999 27.3395 42.5099C27.2095 42.4199 27.1295 42.2699 27.1395 42.1099C27.5295 32.8899 30.1895 21.3899 36.4095 19.2999C36.5995 19.2299 36.8095 19.2999 36.9395 19.4399C37.0695 19.5899 37.0895 19.7999 36.9895 19.9799C34.6795 23.9199 33.1595 32.5199 32.9195 42.9699C32.9195 43.1599 32.7995 43.3299 32.6195 43.3999C32.5595 43.4199 32.4995 43.4399 32.4295 43.4399L32.4395 43.4199ZM29.2795 41.3599C30.4095 41.3599 31.2395 41.5499 31.9695 41.9899C32.1095 37.4899 32.7395 26.7799 35.4795 20.7699C31.0095 23.5799 28.5895 32.7999 28.1295 41.4699C28.5095 41.3899 28.8895 41.3499 29.2695 41.3499L29.2795 41.3599Z" fill="#470F4C"/>
<path d="M29.2891 52.1699C28.8891 52.1699 28.4991 52.1199 28.1191 52.0299C29.0291 57.5799 30.7491 58.9899 30.7491 58.9899L32.8892 55.5799C32.8892 55.5799 32.4292 54.0199 32.3792 51.1099C31.4692 51.9599 30.6291 52.1699 29.2991 52.1699H29.2891Z" fill="#470F4C"/>
<path d="M30.7387 59.4598C30.6287 59.4598 30.5087 59.4198 30.4187 59.3498C30.3387 59.2898 28.5487 57.7698 27.6287 52.0998C27.5987 51.9398 27.6587 51.7898 27.7787 51.6798C27.8987 51.5698 28.0687 51.5298 28.2287 51.5698C28.5887 51.6498 28.9387 51.6998 29.2787 51.6998C30.5987 51.6998 31.2687 51.4798 32.0187 50.7698C32.1587 50.6398 32.3687 50.5998 32.5487 50.6698C32.7287 50.7398 32.8487 50.9098 32.8487 51.0998C32.8987 53.8898 33.3387 55.4298 33.3387 55.4398C33.3787 55.5698 33.3587 55.6998 33.2887 55.8098L31.1487 59.2198C31.0787 59.3398 30.9487 59.4198 30.8087 59.4398C30.7787 59.4398 30.7587 59.4398 30.7287 59.4398L30.7387 59.4598ZM28.7087 52.6098C29.3087 55.8298 30.1787 57.4598 30.6787 58.1698L32.3487 55.4998C32.2387 55.0498 31.9987 53.8798 31.9087 52.0498C31.1087 52.5198 30.2787 52.6398 29.2887 52.6398C29.0987 52.6398 28.9087 52.6298 28.7187 52.6098H28.7087Z" fill="#470F4C"/>
<path d="M84.3411 52.1301C84.1511 52.1501 83.9511 52.1701 83.7511 52.1701C83.1511 52.1701 82.5811 52.0501 82.0511 51.8501C82.0911 56.5501 81.8711 59.9301 81.8711 59.9301C83.0811 57.3601 83.8611 54.7401 84.3411 52.1301Z" fill="#470F4C"/>
<path d="M81.8702 60.4C81.8702 60.4 81.7902 60.4 81.7502 60.39C81.5302 60.33 81.3802 60.13 81.4002 59.9C81.4002 59.87 81.6202 56.48 81.5802 51.86C81.5802 51.7 81.6502 51.56 81.7802 51.47C81.9102 51.38 82.0702 51.36 82.2202 51.42C82.8902 51.68 83.6102 51.76 84.2802 51.67C84.4302 51.65 84.5802 51.71 84.6802 51.81C84.7802 51.92 84.8302 52.07 84.8002 52.22C84.2902 55.02 83.4502 57.69 82.3002 60.13C82.2202 60.3 82.0502 60.4 81.8702 60.4ZM82.5302 52.49C82.5302 54.37 82.5002 56.02 82.4602 57.28C83.0002 55.79 83.4402 54.24 83.7602 52.64C83.3502 52.64 82.9402 52.59 82.5402 52.49H82.5302Z" fill="#470F4C"/>
<path d="M83.7505 41.8299C84.1105 41.8299 84.4606 41.8699 84.7906 41.9499C84.0606 32.7199 80.6906 25.6099 80.6906 25.6099L78.8105 29.4099C80.3205 32.9399 81.1505 37.6699 81.5905 42.3599C82.2405 42.0299 82.9705 41.8299 83.7505 41.8299Z" fill="#470F4C"/>
<path d="M81.5901 42.8299C81.5101 42.8299 81.4301 42.8099 81.3601 42.7699C81.2201 42.6899 81.1301 42.5599 81.1201 42.3999C80.6101 36.9699 79.6801 32.6599 78.3801 29.5999C78.3301 29.4699 78.3301 29.3299 78.3901 29.2099L80.2701 25.4099C80.3501 25.2499 80.5101 25.1499 80.6901 25.1499C80.8701 25.1499 81.0401 25.2599 81.1101 25.4199C81.1401 25.4899 84.5301 32.7199 85.2501 41.9199C85.2601 42.0699 85.2001 42.2199 85.0901 42.3099C84.9801 42.4099 84.8201 42.4499 84.6801 42.4099C83.6901 42.1899 82.7001 42.3199 81.8001 42.7799C81.7301 42.8099 81.6601 42.8299 81.5801 42.8299H81.5901ZM79.3301 29.4299C80.5801 32.4399 81.4801 36.5599 82.0001 41.6699C82.7301 41.4099 83.4901 41.3099 84.2701 41.3899C83.6401 34.5199 81.5501 28.8799 80.6601 26.7399L79.3301 29.4299Z" fill="#470F4C"/>
<path d="M29.22 42.2998C28.96 42.2998 28.75 42.0798 28.75 41.8198C28.86 34.2398 32.45 26.7398 32.6 26.4298C32.71 26.1998 33 26.0998 33.23 26.2098C33.46 26.3198 33.56 26.6098 33.45 26.8398C33.41 26.9198 29.8 34.4698 29.69 41.8298C29.69 42.0898 29.48 42.2998 29.22 42.2998Z" fill="#470F4C"/>
<path d="M30.5386 56.05C30.5386 56.05 30.4886 56.05 30.4586 56.05C28.9686 55.8 28.7686 52.8 28.7386 52.2C28.7286 51.94 28.9286 51.72 29.1886 51.71C29.4686 51.71 29.6686 51.9 29.6786 52.16C29.7386 53.5 30.1286 55.04 30.6086 55.12C30.8686 55.16 31.0386 55.41 30.9986 55.66C30.9586 55.89 30.7586 56.06 30.5286 56.06L30.5386 56.05Z" fill="#470F4C"/>
<path d="M37.8393 45.8302C37.6993 45.8302 37.5693 45.7702 37.4693 45.6602C37.2993 45.4602 37.3293 45.1602 37.5393 45.0002C37.6593 44.9002 40.6693 42.4802 46.2093 41.3802C46.4693 41.3302 46.7193 41.4902 46.7693 41.7502C46.8193 42.0102 46.6593 42.2502 46.3993 42.3102C41.0893 43.3702 38.1693 45.7102 38.1393 45.7402C38.0493 45.8102 37.9493 45.8502 37.8393 45.8502V45.8302Z" fill="#470F4C"/>
<path d="M76.6989 45.8302C76.5989 45.8302 76.4889 45.8002 76.3989 45.7202C76.3689 45.7002 73.4289 43.3502 68.1389 42.2902C67.8789 42.2402 67.7189 41.9902 67.7689 41.7302C67.8189 41.4702 68.0689 41.3102 68.3289 41.3602C73.8689 42.4702 76.8689 44.8802 76.9989 44.9802C77.1989 45.1402 77.2289 45.4402 77.0689 45.6402C76.9789 45.7502 76.8389 45.8102 76.6989 45.8102V45.8302Z" fill="#470F4C"/>
<path d="M56.3784 63.3C54.4484 63.3 52.3984 63.15 51.2884 62.88C51.0384 62.82 50.8784 62.56 50.9384 62.31C50.9984 62.06 51.2584 61.9 51.5084 61.96C53.6484 62.48 59.1484 62.5 60.2884 61.99C60.8184 61.28 60.5784 53.79 60.0084 46.99C59.9884 46.73 60.1784 46.5 60.4384 46.48C60.6984 46.46 60.9284 46.65 60.9484 46.91C61.5284 53.86 61.9584 62.28 60.6684 62.85C59.9784 63.16 58.2284 63.3 56.3684 63.3H56.3784Z" fill="#470F4C"/>
<path d="M79.5184 30.7803C79.5184 30.7803 81.0884 53.1103 80.3084 55.5803C79.5284 58.0503 75.2884 65.6503 57.2884 65.3403C39.8884 65.0403 33.7684 59.8503 32.6984 55.5803C31.6284 51.3103 33.1984 31.7703 33.1984 31.7703L32.5084 34.7803C32.5084 34.7803 20.2884 88.6103 56.4884 88.6103C92.6884 88.6103 79.5284 30.7903 79.5284 30.7903L79.5184 30.7803ZM57.2784 75.1003C49.4684 75.1003 48.9584 70.3503 48.9584 70.3503C48.9584 70.3503 56.4784 72.2003 65.0984 70.3503C65.0984 70.3503 65.0884 75.1003 57.2784 75.1003Z" fill="#470F4C"/>
<path d="M56.4789 89.0801C48.1589 89.0801 41.6889 86.2501 37.2389 80.6801C30.9289 72.7801 29.8589 60.6801 30.0689 51.9201C30.2989 42.4701 32.0289 34.7601 32.0389 34.6801L32.7289 31.6701C32.7789 31.4301 33.0189 31.2701 33.2589 31.3101C33.4989 31.3501 33.6789 31.5701 33.6589 31.8101C33.6389 32.0001 32.1089 51.3201 33.1389 55.4701C33.6689 57.5901 36.9689 64.5301 57.2789 64.8701C75.8089 65.1901 79.3289 57.0701 79.8389 55.4401C80.4589 53.4901 79.4689 37.0001 79.0289 30.8201C79.0089 30.5701 79.1889 30.3601 79.4289 30.3201C79.6789 30.2801 79.9089 30.4401 79.9589 30.6801C79.9789 30.7601 81.9389 39.3101 82.3089 49.6801C82.6589 59.3001 81.6889 72.5001 75.0689 80.8301C70.7189 86.3001 64.4589 89.0801 56.4589 89.0801H56.4789ZM32.2389 38.8601C30.8689 47.5901 28.7789 68.5701 37.9789 80.0901C42.2389 85.4301 48.4689 88.1401 56.4789 88.1401C64.4889 88.1401 70.1889 85.4901 74.3489 80.2501C82.7189 69.7201 81.9389 50.9601 80.5489 39.8501C80.9089 46.3801 81.2189 54.2601 80.7489 55.7301C80.1989 57.4701 76.4589 66.1401 57.2689 65.8201C36.8689 65.4701 32.9589 58.6301 32.2289 55.7001C31.5689 53.0601 31.8789 44.9401 32.2289 38.8701L32.2389 38.8601ZM57.2789 75.5701C49.1389 75.5701 48.5089 70.6101 48.4889 70.4001C48.4689 70.2501 48.5289 70.1001 48.6489 69.9901C48.7689 69.8901 48.9189 69.8501 49.0689 69.8901C49.1389 69.9101 56.5889 71.6901 64.9989 69.8901C65.1389 69.8601 65.2889 69.8901 65.3989 69.9801C65.5089 70.0701 65.5789 70.2101 65.5689 70.3501C65.5689 70.4001 65.4589 75.5701 57.2789 75.5701ZM49.6089 70.9701C50.0789 72.1901 51.7189 74.6301 57.2789 74.6301C62.8389 74.6301 64.1989 72.1301 64.5289 70.9501C57.7589 72.2601 51.6989 71.3601 49.6189 70.9701H49.6089Z" fill="#470F4C"/>
<path d="M83.7484 52.6401C83.0184 52.6401 82.3084 52.4901 81.6384 52.1901C81.3984 52.0801 81.2884 51.8101 81.3984 51.5701C81.5084 51.3301 81.7784 51.2201 82.0184 51.3301C82.5684 51.5701 83.1484 51.7001 83.7484 51.7001C86.2084 51.7001 88.2084 49.5901 88.2084 47.0001C88.2084 44.4101 86.2084 42.3001 83.7484 42.3001C83.0684 42.3001 82.4084 42.4601 81.7984 42.7701C81.5684 42.8901 81.2784 42.8001 81.1584 42.5601C81.0384 42.3301 81.1284 42.0401 81.3684 41.9201C82.1084 41.5401 82.9084 41.3501 83.7384 41.3501C86.7184 41.3501 89.1484 43.8801 89.1484 46.9901C89.1484 50.1001 86.7184 52.6301 83.7384 52.6301L83.7484 52.6401Z" fill="#470F4C"/>
<path d="M83.1992 49.9301C82.6892 49.9301 82.1992 49.8301 81.7392 49.6401C81.4992 49.5401 81.3892 49.2601 81.4892 49.0201C81.5892 48.7801 81.8692 48.6701 82.1092 48.7701C82.4492 48.9101 82.8192 48.9901 83.2092 48.9901C84.5492 48.9901 85.6292 48.1001 85.6292 47.0001C85.6292 45.9001 84.5392 45.0101 83.2092 45.0101C82.7092 45.0101 82.2392 45.1301 81.8292 45.3601C81.5992 45.4901 81.3092 45.4101 81.1892 45.1801C81.0592 44.9501 81.1392 44.6601 81.3692 44.5401C81.9192 44.2301 82.5592 44.0601 83.2192 44.0601C85.0792 44.0601 86.5892 45.3701 86.5892 46.9901C86.5892 48.6101 85.0792 49.9201 83.2192 49.9201L83.1992 49.9301Z" fill="#470F4C"/>
<path d="M29.2186 52.6399C26.2386 52.6399 23.8086 50.1099 23.8086 46.9999C23.8086 43.8899 26.2386 41.3599 29.2186 41.3599C29.9386 41.3599 30.6486 41.5099 31.3086 41.7999C31.5486 41.8999 31.6586 42.1799 31.5486 42.4199C31.4486 42.6599 31.1686 42.7699 30.9286 42.6599C30.3886 42.4199 29.8086 42.2999 29.2186 42.2999C26.7586 42.2999 24.7586 44.4099 24.7586 46.9999C24.7586 49.5899 26.7586 51.6999 29.2186 51.6999C29.6886 51.6999 30.0086 51.6599 30.3786 51.5399C30.6286 51.4599 30.8886 51.5999 30.9686 51.8499C31.0486 52.0999 30.9086 52.3599 30.6586 52.4399C30.1886 52.5899 29.7786 52.6399 29.2086 52.6399H29.2186Z" fill="#470F4C"/>
<path d="M29.7684 49.9298C27.9084 49.9298 26.3984 48.6098 26.3984 46.9998C26.3984 45.3898 27.9084 44.0698 29.7684 44.0698C30.2584 44.0698 30.7285 44.1598 31.1685 44.3398C31.4085 44.4398 31.5284 44.7098 31.4284 44.9498C31.3284 45.1898 31.0585 45.3098 30.8185 45.2098C30.4885 45.0798 30.1384 45.0098 29.7684 45.0098C28.4284 45.0098 27.3484 45.8998 27.3484 46.9998C27.3484 48.0998 28.4384 48.9898 29.7684 48.9898C29.9884 48.9898 30.2084 48.9698 30.4184 48.9198C30.6684 48.8598 30.9284 49.0198 30.9884 49.2698C31.0484 49.5198 30.8884 49.7798 30.6384 49.8398C30.3584 49.8998 30.0684 49.9398 29.7784 49.9398L29.7684 49.9298Z" fill="#470F4C"/>
<path d="M110.079 131H1.4792C1.2292 131 1.02919 130.81 1.00919 130.56C0.999194 130.35 -0.250802 109.39 14.9192 102.52C29.8492 95.7499 33.2492 95.2199 33.3792 95.1999C33.6392 95.1599 33.8792 95.3399 33.9092 95.5999C33.9492 95.8599 33.7692 96.0999 33.5092 96.1299C33.5092 96.1299 29.9992 96.7199 15.2992 103.38C7.7092 106.82 4.4792 113.98 3.1092 119.39C1.8692 124.3 1.8792 128.69 1.9192 130.06H109.609C109.649 128.69 109.669 124.3 108.419 119.39C107.049 113.99 103.819 106.82 96.2292 103.38C81.5292 96.7199 78.0492 96.1399 78.0192 96.1299C77.7592 96.0899 77.5792 95.8499 77.6192 95.5899C77.6592 95.3299 77.8892 95.1599 78.1492 95.1899C78.2892 95.2099 81.6792 95.7499 96.6092 102.51C111.779 109.38 110.529 130.34 110.519 130.55C110.499 130.8 110.299 130.99 110.049 130.99L110.079 131Z" fill="#470F4C"/>
<path d="M32.7793 29.8499C32.7793 29.8499 33.7793 25.3999 40.0493 27.1499C46.3193 28.8999 79.1693 41.4399 85.1893 23.6599C85.1893 23.6599 85.0593 23.5799 82.5593 22.9499C81.0893 22.5799 78.1693 21.5999 75.9093 18.8999C73.6493 16.1999 64.3693 11.9099 49.8293 14.2899C35.2893 16.6699 32.2793 23.0299 32.7793 29.8599V29.8499Z" fill="#470F4C"/>
<path d="M68.3396 33.38C58.7096 33.38 47.7796 29.92 42.4096 28.22C41.3196 27.88 40.4596 27.6 39.8496 27.43C38.1896 26.97 36.7996 26.93 35.6996 27.31C33.7196 28.01 33.2796 29.86 33.2796 29.88C33.2396 30.04 33.0196 30.16 32.7596 30.15C32.4996 30.15 32.2896 30.01 32.2796 29.85C31.6296 21.06 37.1696 16.01 49.7096 13.96C64.7696 11.49 74.1696 16.1 76.3596 18.73C78.3596 21.13 80.9396 22.17 82.7496 22.63C85.3496 23.29 85.4796 23.37 85.5496 23.42C85.6696 23.5 85.7196 23.61 85.6896 23.71C84.2396 27.99 81.1196 30.88 76.4096 32.32C73.9596 33.07 71.2096 33.37 68.3396 33.37V33.38ZM37.3696 26.42C38.2496 26.42 39.2196 26.56 40.2596 26.85C40.8896 27.03 41.7596 27.3 42.8596 27.65C49.6996 29.81 65.6996 34.88 75.9696 31.75C80.2996 30.43 83.1996 27.76 84.6196 23.82C84.3296 23.74 83.6796 23.56 82.3796 23.23C80.4096 22.73 77.6196 21.6 75.4796 19.03C73.4096 16.56 64.4596 12.21 49.9696 14.58C38.8396 16.4 33.4796 20.7 33.2496 28.05C33.6896 27.56 34.3196 27.07 35.2196 26.75C35.8696 26.52 36.5896 26.41 37.3796 26.41L37.3696 26.42Z" fill="#470F4C"/>
<path d="M41.4696 58.42C38.9796 58.42 36.5896 57.8 35.1896 56.4C32.4496 53.66 32.5796 47.09 32.5896 46.81C32.5896 46.63 32.7496 46.48 32.9296 46.48C33.1096 46.48 33.2596 46.64 33.2596 46.82C33.2596 46.89 33.1296 53.38 35.6596 55.92C38.1596 58.42 44.4996 58.16 47.9396 56.2C50.7296 54.61 52.6196 50.55 52.6396 50.51C52.7196 50.34 52.9196 50.27 53.0796 50.35C53.2496 50.43 53.3196 50.63 53.2396 50.79C53.1596 50.96 51.2396 55.08 48.2596 56.78C46.4496 57.82 43.8996 58.41 41.4596 58.41L41.4696 58.42Z" fill="#470F4C"/>
<path d="M83.5589 43.2101L83.0788 41.4201C83.0388 41.2501 82.8988 41.1301 82.7388 41.0901C81.6988 40.8701 77.9589 40.0701 75.6689 39.6501C72.9989 39.1501 66.6589 39.1501 63.4888 40.4801C60.6889 41.6601 57.8989 41.6701 57.2789 41.6501C57.2789 41.6501 57.2589 41.6501 57.2189 41.6501C57.1789 41.6501 57.1589 41.6501 57.1589 41.6501C56.5389 41.6701 53.7389 41.6601 50.9489 40.4801C47.7789 39.1501 41.4388 39.1501 38.7688 39.6501C36.5188 40.0701 32.8489 40.8501 31.7489 41.0801C31.5489 41.1201 31.3889 41.2701 31.3389 41.4701L30.8989 43.1401C30.8289 43.4001 30.9689 43.6801 31.2189 43.7801C32.5389 44.3101 32.5689 46.1701 32.4989 47.1101C32.4789 47.3801 32.6689 47.6201 32.9289 47.6601C33.2089 47.6901 33.4488 47.5001 33.4888 47.2301C33.5888 46.5001 33.8788 44.9501 34.6088 43.4901C35.6088 41.4901 39.6089 40.4901 44.6189 40.4901C49.6289 40.4901 52.6289 42.9901 53.2889 45.3301C53.7989 47.1201 52.7389 49.7101 52.2189 50.8101C51.9989 51.2701 52.4089 51.8101 52.8989 51.6901C52.9189 51.6901 52.9389 51.6901 52.9489 51.6701C53.4489 51.5001 54.9489 47.5001 55.4489 46.1601C55.9489 44.8301 56.7488 44.9301 57.2988 44.9301C57.8188 44.9301 58.4888 44.8301 58.9888 46.1601C59.4888 47.4901 60.9888 51.5001 61.4888 51.6701C61.5088 51.6701 61.5289 51.6801 61.5389 51.6901C62.0389 51.8101 62.4389 51.2801 62.2189 50.8101C61.6989 49.7101 60.6389 47.1301 61.1489 45.3301C61.8189 42.9901 64.8189 40.4901 69.8189 40.4901C74.8189 40.4901 78.8288 41.4901 79.8288 43.4901C80.5588 44.9501 80.8489 46.5001 80.9489 47.2301C80.9789 47.4801 81.1889 47.6601 81.4389 47.6601C81.7289 47.6601 81.9589 47.4101 81.9289 47.1201C81.8489 46.1701 81.8789 44.2601 83.2589 43.7501C83.4789 43.6701 83.6088 43.4301 83.5488 43.2101H83.5589Z" fill="#470F4C"/>
<path d="M72.9598 58.4202C70.5198 58.4202 67.9698 57.8302 66.1598 56.7902C63.1898 55.0902 61.2698 50.9802 61.1798 50.8002C61.0998 50.6302 61.1798 50.4302 61.3398 50.3602C61.5098 50.2802 61.7098 50.3602 61.7798 50.5202C61.7998 50.5602 63.6898 54.6202 66.4798 56.2102C69.9198 58.1702 76.2598 58.4302 78.7598 55.9302C81.2998 53.3902 81.1698 46.9002 81.1598 46.8302C81.1598 46.6502 81.2998 46.4902 81.4898 46.4902C81.6698 46.4902 81.8198 46.6302 81.8198 46.8202C81.8198 47.1002 81.9598 53.6702 79.2198 56.4102C77.8198 57.8102 75.4298 58.4302 72.9398 58.4302L72.9598 58.4202Z" fill="#470F4C"/>
</svg>
