<?xml version="1.0" encoding="utf-8"?>
<!-- Generator: Adobe Illustrator 26.5.0, SVG Export Plug-In . SVG Version: 6.00 Build 0)  -->
<svg version="1.1" id="Capa_1" xmlns="http://www.w3.org/2000/svg" xmlns:xlink="http://www.w3.org/1999/xlink" x="0px" y="0px"
	 viewBox="0 0 500 200" style="enable-background:new 0 0 500 200;" xml:space="preserve">
<style type="text/css">
	.st0{fill:#FFFFFF;}
	.st1{fill:#00B380;}
	.st2{fill-rule:evenodd;clip-rule:evenodd;fill:#FFFFFF;}
	.st3{fill-rule:evenodd;clip-rule:evenodd;fill:#919191;}
</style>
<g>
	<g>
		<polygon class="st2" points="206.68,120.82 206.06,119.8 204.43,120.8 204.43,119.4 203.24,119.4 203.24,122.73 206.15,124.33 
			206.72,123.29 204.57,122.1 		"/>
		
			<rect x="231.59" y="102.48" transform="matrix(0.8535 -0.521 0.521 0.8535 -19.3459 137.3294)" class="st2" width="6.01" height="1.19"/>
		
			<rect x="237.75" y="98.72" transform="matrix(0.8535 -0.521 0.521 0.8535 -16.4848 139.986)" class="st2" width="6.01" height="1.19"/>
		<rect x="219.27" y="110" transform="matrix(0.8536 -0.521 0.521 0.8536 -25.0695 132)" class="st2" width="6.01" height="1.19"/>
		
			<rect x="213.11" y="113.76" transform="matrix(0.8535 -0.521 0.521 0.8535 -27.9297 129.3509)" class="st2" width="6.01" height="1.19"/>
		<polygon class="st2" points="227.18,108.3 229.63,112.68 230.67,112.09 228.2,107.68 231.32,105.78 230.7,104.76 225.56,107.9 
			226.18,108.91 		"/>
		
			<rect x="243.91" y="94.96" transform="matrix(0.8533 -0.5214 0.5214 0.8533 -13.6019 142.7633)" class="st2" width="6.01" height="1.19"/>
		
			<rect x="274.71" y="76.16" transform="matrix(0.8533 -0.5214 0.5214 0.8533 0.7169 156.0573)" class="st2" width="6.01" height="1.19"/>
		
			<rect x="256.23" y="87.44" transform="matrix(0.8533 -0.5213 0.5213 0.8533 -7.8778 148.0651)" class="st2" width="6.01" height="1.19"/>
		
			<rect x="250.07" y="91.2" transform="matrix(0.8535 -0.521 0.521 0.8535 -10.7623 145.3034)" class="st2" width="6.01" height="1.19"/>
		
			<rect x="262.39" y="83.68" transform="matrix(0.8533 -0.5213 0.5213 0.8533 -5.014 150.7249)" class="st2" width="6.01" height="1.19"/>
		
			<rect x="268.55" y="79.92" transform="matrix(0.8533 -0.5213 0.5213 0.8533 -2.1504 153.3851)" class="st2" width="6.01" height="1.19"/>
		
			<rect x="206.95" y="117.52" transform="matrix(0.8533 -0.5214 0.5214 0.8533 -30.7875 126.7913)" class="st2" width="6.01" height="1.19"/>
		
			<rect x="255.91" y="41.5" transform="matrix(0.4656 -0.885 0.885 0.4656 97.5786 250.8413)" class="st2" width="1.19" height="6.25"/>
		
			<rect x="262.54" y="44.99" transform="matrix(0.4656 -0.885 0.885 0.4656 98.0345 258.5773)" class="st2" width="1.19" height="6.25"/>
		
			<rect x="269.17" y="48.48" transform="matrix(0.4656 -0.885 0.885 0.4656 98.4978 266.3189)" class="st2" width="1.19" height="6.25"/>
		
			<rect x="275.81" y="51.97" transform="matrix(0.4656 -0.885 0.885 0.4656 98.9557 274.0566)" class="st2" width="1.19" height="6.25"/>
		<polygon class="st2" points="250,41.87 252.35,43.11 252.91,42.06 250,40.53 247.09,42.06 247.65,43.11 		"/>
		
			<rect x="227.14" y="51.01" transform="matrix(0.8849 -0.4659 0.4659 0.8849 2.4744 113.214)" class="st2" width="6.24" height="1.19"/>
		
			<rect x="240.39" y="44.03" transform="matrix(0.8849 -0.4659 0.4659 0.8849 7.251 118.5803)" class="st2" width="6.24" height="1.19"/>
		
			<rect x="220.52" y="54.5" transform="matrix(0.8849 -0.4659 0.4659 0.8849 0.086 110.5308)" class="st2" width="6.24" height="1.19"/>
		
			<rect x="233.77" y="47.52" transform="matrix(0.8849 -0.4659 0.4659 0.8849 4.8627 115.8971)" class="st2" width="6.24" height="1.19"/>
		
			<rect x="238.71" y="125.71" transform="matrix(0.8726 -0.4883 0.4883 0.8726 -32.3917 133.2572)" class="st2" width="1.19" height="6.04"/>
		
			<rect x="231.62" y="113.05" transform="matrix(0.8726 -0.4884 0.4884 0.8726 -27.1116 128.2064)" class="st2" width="1.19" height="6.04"/>
		
			<rect x="235.17" y="119.38" transform="matrix(0.8726 -0.4884 0.4884 0.8726 -29.7516 130.7426)" class="st2" width="1.19" height="6.04"/>
		
			<rect x="221" y="94.07" transform="matrix(0.8726 -0.4884 0.4884 0.8726 -19.1926 120.5977)" class="st2" width="1.19" height="6.04"/>
		
			<rect x="213.91" y="81.41" transform="matrix(0.8726 -0.4884 0.4884 0.8726 -13.9146 115.514)" class="st2" width="1.19" height="6.04"/>
		
			<rect x="217.46" y="87.74" transform="matrix(0.8726 -0.4884 0.4884 0.8726 -16.553 118.0604)" class="st2" width="1.19" height="6.04"/>
		
			<rect x="224.54" y="100.4" transform="matrix(0.8726 -0.4884 0.4884 0.8726 -21.8323 123.1339)" class="st2" width="1.19" height="6.04"/>
		
			<rect x="286.51" y="124.88" transform="matrix(0.8736 -0.4867 0.4867 0.8736 -24.4447 156.8392)" class="st2" width="6.36" height="1.19"/>
		
			<rect x="273.19" y="132.31" transform="matrix(0.8732 -0.4874 0.4874 0.8732 -29.7305 151.5567)" class="st2" width="6.36" height="1.19"/>
		
			<rect x="259.87" y="139.75" transform="matrix(0.8732 -0.4874 0.4874 0.8732 -35.0434 146.0067)" class="st2" width="6.36" height="1.19"/>
		
			<rect x="279.85" y="128.6" transform="matrix(0.8732 -0.4874 0.4874 0.8732 -27.0742 154.3317)" class="st2" width="6.36" height="1.19"/>
		
			<rect x="266.53" y="136.03" transform="matrix(0.8732 -0.4874 0.4874 0.8732 -32.3871 148.7816)" class="st2" width="6.36" height="1.19"/>
		<polygon class="st2" points="295.58,121.51 293.28,122.79 293.86,123.83 296.76,122.21 296.76,118.89 295.58,118.89 		"/>
		<rect x="295.58" y="111.85" class="st2" width="1.19" height="5.86"/>
		<rect x="295.58" y="97.78" class="st2" width="1.19" height="5.86"/>
		<rect x="295.58" y="104.82" class="st2" width="1.19" height="5.86"/>
		<rect x="295.58" y="90.74" class="st2" width="1.19" height="5.86"/>
		<rect x="295.58" y="83.71" class="st2" width="1.19" height="5.86"/>
		
			<rect x="261.1" y="121.81" transform="matrix(0.4904 -0.8715 0.8715 0.4904 27.9189 292.5614)" class="st2" width="6.05" height="1.19"/>
		
			<rect x="282.48" y="83.84" transform="matrix(0.4904 -0.8715 0.8715 0.4904 71.9077 291.8406)" class="st2" width="6.05" height="1.19"/>
		
			<rect x="257.54" y="128.14" transform="matrix(0.4906 -0.8714 0.8714 0.4906 20.561 292.6425)" class="st2" width="6.05" height="1.19"/>
		
			<rect x="264.67" y="115.48" transform="matrix(0.4904 -0.8715 0.8715 0.4904 35.2507 292.441)" class="st2" width="6.05" height="1.19"/>
		
			<rect x="271.79" y="102.83" transform="matrix(0.4905 -0.8715 0.8715 0.4905 49.9048 292.1909)" class="st2" width="6.05" height="1.19"/>
		
			<rect x="275.36" y="96.5" transform="matrix(0.4904 -0.8715 0.8715 0.4904 57.2446 292.081)" class="st2" width="6.05" height="1.19"/>
		
			<rect x="278.92" y="90.17" transform="matrix(0.4904 -0.8715 0.8715 0.4904 64.5759 291.961)" class="st2" width="6.05" height="1.19"/>
		
			<rect x="268.23" y="109.15" transform="matrix(0.4904 -0.8715 0.8715 0.4904 42.582 292.321)" class="st2" width="6.05" height="1.19"/>
		
			<rect x="209.71" y="122.78" transform="matrix(0.4813 -0.8765 0.8765 0.4813 -1.308 249.6486)" class="st2" width="1.19" height="6.3"/>
		
			<rect x="229.59" y="133.7" transform="matrix(0.4813 -0.8765 0.8765 0.4813 -0.5651 272.7361)" class="st2" width="1.19" height="6.3"/>
		
			<rect x="222.96" y="130.06" transform="matrix(0.4813 -0.8765 0.8765 0.4813 -0.8115 265.0428)" class="st2" width="1.19" height="6.3"/>
		
			<rect x="216.33" y="126.42" transform="matrix(0.4813 -0.8766 0.8766 0.4813 -1.0493 257.3635)" class="st2" width="1.19" height="6.3"/>
		<rect x="203.25" y="112.3" class="st2" width="1.19" height="5.92"/>
		<rect x="203.25" y="105.19" class="st2" width="1.19" height="5.92"/>
		<rect x="203.27" y="90.97" class="st2" width="1.19" height="5.92"/>
		<rect x="203.26" y="98.08" class="st2" width="1.19" height="5.92"/>
		<rect x="203.28" y="83.86" class="st2" width="1.19" height="5.92"/>
		<path class="st2" d="M203.29,82.68l1.19,0l0.01-5.42c1.67-0.08,3.24-0.5,4.65-1.21l2.79,4.98l1.04-0.58l-2.79-4.98
			c3.16-1.99,5.3-5.43,5.5-9.39h5.4V64.9h-5.4c-0.08-1.55-0.45-3.03-1.08-4.37l5.46-2.88l-0.55-1.05l-5.46,2.88
			c-2.06-3.46-5.82-5.78-10.13-5.78c-6.51,0-11.79,5.28-11.79,11.79c0,6.31,4.96,11.44,11.18,11.76L203.29,82.68z"/>
		<rect x="243.53" y="64.9" class="st2" width="5.91" height="1.19"/>
		<rect x="222.25" y="64.9" class="st2" width="5.91" height="1.19"/>
		<rect x="250.63" y="64.9" class="st2" width="5.91" height="1.19"/>
		<rect x="236.44" y="64.9" class="st2" width="5.91" height="1.19"/>
		<rect x="271.91" y="64.9" class="st2" width="5.91" height="1.19"/>
		<rect x="264.82" y="64.9" class="st2" width="5.91" height="1.19"/>
		<rect x="257.72" y="64.9" class="st2" width="5.91" height="1.19"/>
		<rect x="229.34" y="64.9" class="st2" width="5.91" height="1.19"/>
		<path class="st2" d="M307.96,65.49c0-6.51-5.28-11.79-11.79-11.79c-4.32,0-8.08,2.33-10.14,5.79l-5.48-2.89l-0.55,1.05l5.48,2.88
			c-0.62,1.34-0.99,2.81-1.07,4.36h-5.4v1.19h5.4c0.09,1.82,0.58,3.53,1.4,5.04l-4.8,2.93l0.62,1.01l4.8-2.93
			c0.91,1.33,2.09,2.46,3.45,3.32l-2.81,4.99l1.04,0.58l2.81-4.99c1.42,0.71,2.99,1.13,4.66,1.22v5.28h1.19v-5.28
			C303,76.95,307.96,71.81,307.96,65.49z"/>
		<path class="st2" d="M256.2,137.71l2.81-4.99l-1.04-0.58l-2.81,4.99c-1.58-0.79-3.36-1.25-5.26-1.25c-1.88,0-3.65,0.45-5.23,1.23
			l-2.79-4.98l-1.04,0.58l2.79,4.98c-1.68,1.06-3.08,2.52-4.04,4.26l0.26-0.48l-5.52-3.03l-0.57,1.04l5.52,3.03l0.21-0.38
			c-0.88,1.65-1.38,3.53-1.38,5.54c0,6.51,5.28,11.79,11.79,11.79c6.51,0,11.79-5.28,11.79-11.79
			C261.7,143.48,259.5,139.8,256.2,137.71z"/>
	</g>
	<circle class="st3" cx="203.83" cy="121.86" r="11.79"/>
</g>
</svg>
