<svg width="266" height="517" viewBox="0 0 266 517" fill="none" xmlns="http://www.w3.org/2000/svg">
<path d="M42 0V516.5" stroke="#F5F5F5" stroke-dasharray="4 4"/>
<path d="M266 264H104" stroke="#F5F5F5" stroke-dasharray="4 4"/>
<path fill-rule="evenodd" clip-rule="evenodd" d="M33.6655 243.674L33.3514 188L54.5749 188L54.3168 222.659L73.4804 203.158C80.8807 204.146 87.8589 206.468 94.1649 209.875L67.8326 235.608L111.252 223.598C115.363 228.348 118.749 233.745 121.237 239.614L62.3274 254.729L125.348 254.197C125.791 257.154 126.021 260.18 126.021 263.261C126.021 266.866 125.707 270.397 125.103 273.829L61.5591 273.12L120.57 288.424C117.905 294.259 114.342 299.598 110.057 304.264L65.3189 291.765L91.8476 317.835C85.2782 321.026 78.0461 323.067 70.4136 323.693L53.692 306.582L53.4462 339.596H34.2066L33.9061 286.335L24.2549 276.459L33.7966 266.917L33.763 260.958L25.1474 252.343L33.6655 243.674ZM12.2317 275.926C15.4077 275.926 18.207 274.764 20.6241 272.444C23.0356 270.13 24.2554 267.275 24.2554 263.89C24.2554 260.505 23.0075 257.625 20.5173 255.244C18.0327 252.864 15.2053 251.671 12.0237 251.671C8.5723 251.671 5.7055 252.864 3.4233 255.244C1.1411 257.625 -2.95475e-07 260.511 0 263.89C2.95476e-07 267.27 1.2479 270.125 3.72684 272.444C6.21702 274.764 9.05572 275.926 12.2317 275.926Z" fill="#232323"/>
</svg>
