<svg width="27" height="33" viewBox="0 0 27 33" fill="none" xmlns="http://www.w3.org/2000/svg">
<path fill-rule="evenodd" clip-rule="evenodd" d="M7.0571 12.1374L6.9958 0.642822H11.1933L11.1416 7.98092L15.1568 3.895C16.7006 4.10099 18.1564 4.58542 19.4719 5.29614L13.9786 10.6643L23.0366 8.15885C23.8943 9.14992 24.6007 10.2756 25.1197 11.5L12.8303 14.6532L25.9773 14.5421C26.0697 15.159 26.1176 15.7904 26.1176 16.433C26.1176 17.185 26.052 17.9217 25.9262 18.6376L12.672 18.4898L24.9807 21.6818C24.4248 22.8992 23.6815 24.013 22.7877 24.9864L13.4547 22.3789L18.9891 27.8175C17.6187 28.4834 16.1101 28.9091 14.5179 29.0399L11.0186 25.459L10.97 32.3571H7.16493L7.10679 21.456L4.88818 19.1857L7.08298 16.9909L7.07855 16.1594L5.07427 14.1551L7.0571 12.1374ZM2.35193 18.8319C2.96261 18.8319 3.50087 18.6084 3.96564 18.1624C4.42932 17.7174 4.66387 17.1685 4.66387 16.5176C4.66387 15.8667 4.42392 15.3129 3.9451 14.8552C3.46737 14.3974 2.9237 14.168 2.31194 14.168C1.6483 14.168 1.09706 14.3974 0.658237 14.8552C0.219412 15.3129 0 15.8677 0 16.5176C0 17.1675 0.239949 17.7164 0.716603 18.1624C1.19542 18.6084 1.74125 18.8319 2.35193 18.8319Z" fill="#F5F5F5"/>
</svg>
